<svg xmlns="http://www.w3.org/2000/svg" xmlns:xlink="http://www.w3.org/1999/xlink" width="400" zoomAndPan="magnify" viewBox="0 0 300 37.5" height="50" preserveAspectRatio="xMidYMid meet" version="1.0"><defs><g/><clipPath id="id1"><path d="M 1.972656 0 L 298.023438 0 L 298.023438 37.007812 L 1.972656 37.007812 Z M 1.972656 0 " clip-rule="nonzero"/></clipPath><clipPath id="id2"><path d="M 160.226562 10.273438 L 297.890625 10.273438 L 297.890625 27.296875 L 160.226562 27.296875 Z M 160.226562 10.273438 " clip-rule="nonzero"/></clipPath></defs><g clip-path="url(#id1)"><path fill="#ffffff" d="M 1.972656 0 L 298.027344 0 L 298.027344 44.40625 L 1.972656 44.40625 Z M 1.972656 0 " fill-opacity="1" fill-rule="nonzero"/><path fill="#ffffff" d="M 1.972656 0 L 298.027344 0 L 298.027344 37.007812 L 1.972656 37.007812 Z M 1.972656 0 " fill-opacity="1" fill-rule="nonzero"/><path fill="#ffffff" d="M 1.972656 0 L 298.027344 0 L 298.027344 37.007812 L 1.972656 37.007812 Z M 1.972656 0 " fill-opacity="1" fill-rule="nonzero"/></g><g clip-path="url(#id2)"><path fill="#1e3d58" d="M 161.710938 10.273438 L 296.410156 10.273438 C 297.226562 10.273438 297.886719 10.941406 297.886719 11.769531 L 297.886719 25.796875 C 297.886719 26.625 297.226562 27.296875 296.410156 27.296875 L 161.710938 27.296875 C 160.890625 27.296875 160.230469 26.625 160.230469 25.796875 L 160.230469 11.769531 C 160.230469 10.941406 160.890625 10.273438 161.710938 10.273438 " fill-opacity="1" fill-rule="nonzero"/></g><g fill="#000000" fill-opacity="1"><g transform="translate(2.193411, 22.944079)"><g><path d="M 0.765625 -10.203125 C 2.578125 -10.148438 3.796875 -10.125 4.421875 -10.125 C 4.847656 -10.125 5.289062 -10.128906 5.75 -10.140625 C 6.21875 -10.148438 6.65625 -10.160156 7.0625 -10.171875 C 7.46875 -10.191406 7.710938 -10.203125 7.796875 -10.203125 C 7.878906 -10.140625 8.019531 -9.675781 8.21875 -8.8125 C 8.425781 -7.957031 8.53125 -7.445312 8.53125 -7.28125 C 8.53125 -7.25 8.515625 -7.203125 8.484375 -7.140625 C 8.453125 -7.085938 8.398438 -7.03125 8.328125 -6.96875 C 8.253906 -6.90625 8.148438 -6.847656 8.015625 -6.796875 C 7.890625 -6.753906 7.738281 -6.734375 7.5625 -6.734375 C 7.5 -6.734375 7.421875 -6.878906 7.328125 -7.171875 C 7.242188 -7.460938 7.160156 -7.796875 7.078125 -8.171875 C 6.992188 -8.554688 6.929688 -8.800781 6.890625 -8.90625 C 6.554688 -8.90625 6.003906 -8.898438 5.234375 -8.890625 C 4.460938 -8.890625 3.847656 -8.890625 3.390625 -8.890625 C 3.328125 -8.890625 3.273438 -8.863281 3.234375 -8.8125 C 3.203125 -8.769531 3.179688 -8.722656 3.171875 -8.671875 C 3.171875 -8.617188 3.171875 -8.546875 3.171875 -8.453125 L 3.171875 -5.90625 C 3.429688 -5.988281 3.753906 -6.066406 4.140625 -6.140625 C 4.523438 -6.210938 4.878906 -6.25 5.203125 -6.25 C 5.472656 -6.25 5.6875 -6.179688 5.84375 -6.046875 C 6.007812 -5.910156 6.09375 -5.691406 6.09375 -5.390625 C 6.09375 -5.128906 6.003906 -4.914062 5.828125 -4.75 C 5.660156 -4.582031 5.457031 -4.5 5.21875 -4.5 C 4.894531 -4.90625 4.429688 -5.109375 3.828125 -5.109375 C 3.648438 -5.109375 3.429688 -5.09375 3.171875 -5.0625 L 3.171875 -1.65625 C 3.171875 -1.5625 3.171875 -1.488281 3.171875 -1.4375 C 3.179688 -1.382812 3.203125 -1.332031 3.234375 -1.28125 C 3.273438 -1.238281 3.328125 -1.21875 3.390625 -1.21875 C 3.890625 -1.21875 4.554688 -1.210938 5.390625 -1.203125 C 6.222656 -1.203125 6.8125 -1.203125 7.15625 -1.203125 C 7.207031 -1.316406 7.289062 -1.585938 7.40625 -2.015625 C 7.519531 -2.453125 7.628906 -2.832031 7.734375 -3.15625 C 7.847656 -3.476562 7.953125 -3.640625 8.046875 -3.640625 C 8.210938 -3.640625 8.363281 -3.617188 8.5 -3.578125 C 8.632812 -3.535156 8.734375 -3.476562 8.796875 -3.40625 C 8.867188 -3.34375 8.921875 -3.28125 8.953125 -3.21875 C 8.992188 -3.164062 9.015625 -3.125 9.015625 -3.09375 C 9.015625 -2.90625 8.890625 -2.347656 8.640625 -1.421875 C 8.390625 -0.492188 8.222656 0.00390625 8.140625 0.078125 C 7.304688 0.0234375 6.066406 0 4.421875 0 C 2.984375 0 1.765625 0.0234375 0.765625 0.078125 C 0.640625 0.00390625 0.546875 -0.140625 0.484375 -0.359375 C 0.429688 -0.578125 0.40625 -0.800781 0.40625 -1.03125 C 0.40625 -1.132812 0.476562 -1.210938 0.625 -1.265625 C 0.78125 -1.328125 0.960938 -1.359375 1.171875 -1.359375 C 1.347656 -1.359375 1.460938 -1.394531 1.515625 -1.46875 C 1.566406 -1.539062 1.59375 -1.644531 1.59375 -1.78125 L 1.59375 -8.34375 C 1.59375 -8.476562 1.566406 -8.582031 1.515625 -8.65625 C 1.460938 -8.726562 1.347656 -8.765625 1.171875 -8.765625 C 0.660156 -8.765625 0.40625 -8.882812 0.40625 -9.125 C 0.40625 -9.34375 0.429688 -9.5625 0.484375 -9.78125 C 0.546875 -10 0.640625 -10.140625 0.765625 -10.203125 Z M 0.765625 -10.203125 "/></g></g></g><g fill="#000000" fill-opacity="1"><g transform="translate(11.179929, 22.944079)"><g><path d="M 1.8125 -8.453125 C 1.707031 -8.453125 1.597656 -8.460938 1.484375 -8.484375 C 1.367188 -8.503906 1.242188 -8.539062 1.109375 -8.59375 C 0.984375 -8.644531 0.878906 -8.726562 0.796875 -8.84375 C 0.710938 -8.96875 0.671875 -9.113281 0.671875 -9.28125 C 0.671875 -9.832031 1.046875 -10.109375 1.796875 -10.109375 C 2.003906 -10.109375 2.179688 -10.082031 2.328125 -10.03125 C 2.472656 -9.976562 2.582031 -9.90625 2.65625 -9.8125 C 2.726562 -9.71875 2.773438 -9.628906 2.796875 -9.546875 C 2.828125 -9.460938 2.84375 -9.367188 2.84375 -9.265625 C 2.84375 -9.066406 2.78125 -8.898438 2.65625 -8.765625 C 2.53125 -8.628906 2.394531 -8.539062 2.25 -8.5 C 2.101562 -8.46875 1.957031 -8.453125 1.8125 -8.453125 Z M 2.9375 -6.65625 L 2.9375 -1.703125 C 2.9375 -1.640625 2.9375 -1.585938 2.9375 -1.546875 C 2.945312 -1.503906 2.960938 -1.457031 2.984375 -1.40625 C 3.015625 -1.363281 3.0625 -1.328125 3.125 -1.296875 C 3.1875 -1.273438 3.269531 -1.265625 3.375 -1.265625 C 3.539062 -1.265625 3.6875 -1.234375 3.8125 -1.171875 C 3.9375 -1.117188 4 -1.039062 4 -0.9375 C 4 -0.40625 3.925781 -0.078125 3.78125 0.046875 C 3.375 0.015625 2.875 0 2.28125 0 C 1.664062 0 1.097656 0.015625 0.578125 0.046875 C 0.421875 -0.0859375 0.34375 -0.414062 0.34375 -0.9375 C 0.34375 -1.039062 0.40625 -1.117188 0.53125 -1.171875 C 0.65625 -1.234375 0.800781 -1.265625 0.96875 -1.265625 C 1.144531 -1.265625 1.257812 -1.300781 1.3125 -1.375 C 1.375 -1.445312 1.40625 -1.550781 1.40625 -1.6875 L 1.40625 -5.34375 C 1.40625 -5.582031 1.332031 -5.75 1.1875 -5.84375 C 1.050781 -5.945312 0.785156 -6.003906 0.390625 -6.015625 C 0.335938 -6.035156 0.300781 -6.066406 0.28125 -6.109375 C 0.269531 -6.148438 0.265625 -6.25 0.265625 -6.40625 C 0.265625 -6.632812 0.285156 -6.835938 0.328125 -7.015625 C 0.378906 -7.191406 0.429688 -7.289062 0.484375 -7.3125 C 0.828125 -7.269531 1.164062 -7.25 1.5 -7.25 C 1.707031 -7.25 1.929688 -7.257812 2.171875 -7.28125 C 2.421875 -7.300781 2.550781 -7.3125 2.5625 -7.3125 C 2.71875 -7.3125 2.816406 -7.269531 2.859375 -7.1875 C 2.910156 -7.113281 2.9375 -6.9375 2.9375 -6.65625 Z M 2.9375 -6.65625 "/></g></g></g><g fill="#000000" fill-opacity="1"><g transform="translate(15.394904, 22.944079)"><g><path d="M 5.03125 -1.359375 C 5.164062 -1.097656 5.234375 -0.851562 5.234375 -0.625 C 5.234375 -0.5 5.175781 -0.390625 5.0625 -0.296875 C 4.945312 -0.203125 4.800781 -0.128906 4.625 -0.078125 C 4.445312 -0.0351562 4.269531 -0.00390625 4.09375 0.015625 C 3.925781 0.0351562 3.753906 0.046875 3.578125 0.046875 C 3.328125 0.046875 3.09375 0.015625 2.875 -0.046875 C 2.65625 -0.117188 2.445312 -0.238281 2.25 -0.40625 C 2.0625 -0.570312 1.910156 -0.8125 1.796875 -1.125 C 1.679688 -1.445312 1.625 -1.820312 1.625 -2.25 L 1.625 -6.1875 L 1.328125 -6.1875 C 0.796875 -6.1875 0.503906 -6.1875 0.453125 -6.1875 C 0.304688 -6.238281 0.234375 -6.410156 0.234375 -6.703125 C 0.234375 -7.066406 0.347656 -7.25 0.578125 -7.25 L 1.625 -7.25 C 1.644531 -7.394531 1.660156 -7.582031 1.671875 -7.8125 C 1.691406 -8.039062 1.707031 -8.222656 1.71875 -8.359375 C 1.726562 -8.492188 1.75 -8.65625 1.78125 -8.84375 C 1.8125 -9.03125 1.851562 -9.175781 1.90625 -9.28125 C 1.957031 -9.382812 2.023438 -9.488281 2.109375 -9.59375 C 2.191406 -9.695312 2.296875 -9.773438 2.421875 -9.828125 C 2.546875 -9.878906 2.695312 -9.90625 2.875 -9.90625 C 3 -9.90625 3.097656 -9.882812 3.171875 -9.84375 L 3.171875 -7.25 L 4.0625 -7.25 C 4.601562 -7.25 4.890625 -7.257812 4.921875 -7.28125 C 5.140625 -7.28125 5.25 -7.082031 5.25 -6.6875 C 5.25 -6.394531 5.175781 -6.222656 5.03125 -6.171875 C 4.882812 -6.179688 4.59375 -6.1875 4.15625 -6.1875 L 3.171875 -6.1875 L 3.171875 -2.296875 C 3.171875 -1.546875 3.410156 -1.171875 3.890625 -1.171875 C 4.210938 -1.171875 4.59375 -1.234375 5.03125 -1.359375 Z M 5.03125 -1.359375 "/></g></g></g><g fill="#000000" fill-opacity="1"><g transform="translate(20.946998, 22.944079)"><g><path d="M 2.890625 -9.15625 L 2.890625 -6.28125 C 3.210938 -6.625 3.597656 -6.898438 4.046875 -7.109375 C 4.492188 -7.328125 4.972656 -7.4375 5.484375 -7.4375 C 5.773438 -7.4375 6.039062 -7.382812 6.28125 -7.28125 C 6.53125 -7.1875 6.757812 -7.035156 6.96875 -6.828125 C 7.175781 -6.617188 7.335938 -6.328125 7.453125 -5.953125 C 7.566406 -5.585938 7.625 -5.15625 7.625 -4.65625 L 7.625 -1.890625 C 7.625 -1.460938 7.738281 -1.238281 7.96875 -1.21875 C 8.007812 -1.207031 8.0625 -1.195312 8.125 -1.1875 C 8.1875 -1.1875 8.238281 -1.1875 8.28125 -1.1875 C 8.320312 -1.1875 8.367188 -1.179688 8.421875 -1.171875 C 8.472656 -1.160156 8.515625 -1.148438 8.546875 -1.140625 C 8.578125 -1.140625 8.613281 -1.132812 8.65625 -1.125 C 8.695312 -1.113281 8.726562 -1.097656 8.75 -1.078125 C 8.78125 -1.066406 8.804688 -1.050781 8.828125 -1.03125 C 8.847656 -1.019531 8.863281 -1 8.875 -0.96875 C 8.882812 -0.945312 8.890625 -0.921875 8.890625 -0.890625 C 8.890625 -0.390625 8.789062 -0.078125 8.59375 0.046875 C 8.207031 0.015625 7.832031 0 7.46875 0 C 7.28125 0 7.070312 0.00390625 6.84375 0.015625 C 6.613281 0.0351562 6.441406 0.046875 6.328125 0.046875 C 6.273438 0.046875 6.234375 0.0351562 6.203125 0.015625 C 6.171875 0.00390625 6.144531 -0.03125 6.125 -0.09375 C 6.101562 -0.164062 6.09375 -0.273438 6.09375 -0.421875 L 6.09375 -4.53125 C 6.09375 -5.113281 5.988281 -5.539062 5.78125 -5.8125 C 5.582031 -6.09375 5.316406 -6.234375 4.984375 -6.234375 C 4.671875 -6.234375 4.320312 -6.132812 3.9375 -5.9375 C 3.5625 -5.75 3.210938 -5.507812 2.890625 -5.21875 L 2.890625 -1.703125 C 2.890625 -1.640625 2.890625 -1.585938 2.890625 -1.546875 C 2.898438 -1.503906 2.914062 -1.457031 2.9375 -1.40625 C 2.96875 -1.363281 3.015625 -1.328125 3.078125 -1.296875 C 3.140625 -1.273438 3.222656 -1.265625 3.328125 -1.265625 C 3.492188 -1.265625 3.632812 -1.234375 3.75 -1.171875 C 3.875 -1.117188 3.9375 -1.039062 3.9375 -0.9375 C 3.9375 -0.40625 3.863281 -0.078125 3.71875 0.046875 C 3.289062 0.015625 2.769531 0 2.15625 0 C 1.5 0 0.953125 0.015625 0.515625 0.046875 C 0.367188 -0.0859375 0.296875 -0.414062 0.296875 -0.9375 C 0.296875 -1.039062 0.351562 -1.117188 0.46875 -1.171875 C 0.59375 -1.234375 0.742188 -1.265625 0.921875 -1.265625 C 1.097656 -1.265625 1.210938 -1.300781 1.265625 -1.375 C 1.316406 -1.445312 1.34375 -1.550781 1.34375 -1.6875 L 1.34375 -8.203125 C 1.34375 -8.441406 1.273438 -8.613281 1.140625 -8.71875 C 1.003906 -8.820312 0.738281 -8.878906 0.34375 -8.890625 C 0.28125 -8.910156 0.238281 -8.941406 0.21875 -8.984375 C 0.207031 -9.023438 0.203125 -9.125 0.203125 -9.28125 C 0.203125 -9.507812 0.226562 -9.710938 0.28125 -9.890625 C 0.332031 -10.066406 0.378906 -10.164062 0.421875 -10.1875 C 0.796875 -10.144531 1.15625 -10.125 1.5 -10.125 C 1.707031 -10.125 1.921875 -10.132812 2.140625 -10.15625 C 2.367188 -10.175781 2.492188 -10.1875 2.515625 -10.1875 C 2.671875 -10.1875 2.769531 -10.144531 2.8125 -10.0625 C 2.863281 -9.988281 2.890625 -9.8125 2.890625 -9.53125 C 2.890625 -9.5 2.890625 -9.441406 2.890625 -9.359375 C 2.890625 -9.273438 2.890625 -9.207031 2.890625 -9.15625 Z M 2.890625 -9.15625 "/></g></g></g><g fill="#000000" fill-opacity="1"><g transform="translate(30.048901, 22.944079)"><g><path d="M 7.265625 -4.015625 C 7.265625 -3.804688 7.210938 -3.644531 7.109375 -3.53125 C 7.003906 -3.425781 6.804688 -3.375 6.515625 -3.375 L 1.828125 -3.375 C 1.847656 -2.957031 1.921875 -2.597656 2.046875 -2.296875 C 2.171875 -2.003906 2.335938 -1.769531 2.546875 -1.59375 C 2.753906 -1.425781 2.984375 -1.300781 3.234375 -1.21875 C 3.484375 -1.144531 3.753906 -1.109375 4.046875 -1.109375 C 4.460938 -1.109375 4.882812 -1.179688 5.3125 -1.328125 C 5.738281 -1.472656 6.128906 -1.675781 6.484375 -1.9375 C 6.734375 -1.632812 6.859375 -1.332031 6.859375 -1.03125 C 6.859375 -0.84375 6.726562 -0.65625 6.46875 -0.46875 C 6.21875 -0.28125 5.875 -0.125 5.4375 0 C 5 0.125 4.539062 0.1875 4.0625 0.1875 C 3.675781 0.1875 3.304688 0.144531 2.953125 0.0625 C 2.597656 -0.0078125 2.25 -0.140625 1.90625 -0.328125 C 1.570312 -0.523438 1.28125 -0.769531 1.03125 -1.0625 C 0.789062 -1.351562 0.597656 -1.726562 0.453125 -2.1875 C 0.304688 -2.65625 0.234375 -3.179688 0.234375 -3.765625 C 0.234375 -4.335938 0.335938 -4.859375 0.546875 -5.328125 C 0.765625 -5.804688 1.050781 -6.195312 1.40625 -6.5 C 1.769531 -6.800781 2.171875 -7.03125 2.609375 -7.1875 C 3.054688 -7.351562 3.515625 -7.4375 3.984375 -7.4375 C 4.328125 -7.4375 4.65625 -7.394531 4.96875 -7.3125 C 5.289062 -7.226562 5.585938 -7.09375 5.859375 -6.90625 C 6.140625 -6.726562 6.382812 -6.503906 6.59375 -6.234375 C 6.800781 -5.972656 6.960938 -5.648438 7.078125 -5.265625 C 7.203125 -4.890625 7.265625 -4.472656 7.265625 -4.015625 Z M 5.90625 -4.421875 C 5.863281 -5.046875 5.664062 -5.519531 5.3125 -5.84375 C 4.957031 -6.175781 4.53125 -6.34375 4.03125 -6.34375 C 3.507812 -6.34375 3.035156 -6.164062 2.609375 -5.8125 C 2.179688 -5.46875 1.9375 -5.003906 1.875 -4.421875 Z M 5.90625 -4.421875 "/></g></g></g><g fill="#000000" fill-opacity="1"><g transform="translate(37.562553, 22.944079)"><g><path d="M 2.734375 -6.65625 L 2.734375 -6.21875 C 2.941406 -6.539062 3.242188 -6.820312 3.640625 -7.0625 C 4.046875 -7.3125 4.429688 -7.4375 4.796875 -7.4375 C 5.035156 -7.4375 5.265625 -7.394531 5.484375 -7.3125 C 5.703125 -7.238281 5.890625 -7.097656 6.046875 -6.890625 C 6.210938 -6.691406 6.296875 -6.441406 6.296875 -6.140625 C 6.296875 -5.335938 5.867188 -4.9375 5.015625 -4.9375 C 4.992188 -4.9375 4.972656 -4.9375 4.953125 -4.9375 C 4.929688 -4.945312 4.914062 -4.957031 4.90625 -4.96875 C 4.894531 -4.976562 4.882812 -4.984375 4.875 -4.984375 C 4.875 -4.992188 4.867188 -5.007812 4.859375 -5.03125 C 4.847656 -5.050781 4.835938 -5.066406 4.828125 -5.078125 C 4.828125 -5.085938 4.828125 -5.109375 4.828125 -5.140625 C 4.828125 -5.171875 4.820312 -5.191406 4.8125 -5.203125 C 4.8125 -5.222656 4.8125 -5.25 4.8125 -5.28125 C 4.8125 -5.320312 4.804688 -5.351562 4.796875 -5.375 L 4.71875 -6.078125 C 4.59375 -6.140625 4.457031 -6.171875 4.3125 -6.171875 C 4.050781 -6.171875 3.785156 -6.070312 3.515625 -5.875 C 3.253906 -5.6875 3.0625 -5.46875 2.9375 -5.21875 L 2.9375 -1.78125 C 2.9375 -1.707031 2.9375 -1.648438 2.9375 -1.609375 C 2.945312 -1.578125 2.960938 -1.535156 2.984375 -1.484375 C 3.015625 -1.429688 3.0625 -1.394531 3.125 -1.375 C 3.1875 -1.351562 3.269531 -1.34375 3.375 -1.34375 C 3.539062 -1.34375 3.6875 -1.3125 3.8125 -1.25 C 3.9375 -1.195312 4 -1.117188 4 -1.015625 C 4 -0.796875 3.960938 -0.578125 3.890625 -0.359375 C 3.816406 -0.148438 3.710938 -0.015625 3.578125 0.046875 C 3.253906 0.015625 2.785156 0 2.171875 0 C 1.566406 0 1.101562 0.015625 0.78125 0.046875 C 0.625 -0.015625 0.507812 -0.148438 0.4375 -0.359375 C 0.375 -0.566406 0.34375 -0.785156 0.34375 -1.015625 C 0.34375 -1.117188 0.40625 -1.195312 0.53125 -1.25 C 0.65625 -1.3125 0.800781 -1.34375 0.96875 -1.34375 C 1.144531 -1.34375 1.257812 -1.378906 1.3125 -1.453125 C 1.375 -1.523438 1.40625 -1.628906 1.40625 -1.765625 L 1.40625 -5.34375 C 1.40625 -5.582031 1.332031 -5.75 1.1875 -5.84375 C 1.050781 -5.945312 0.785156 -6.003906 0.390625 -6.015625 C 0.335938 -6.035156 0.300781 -6.066406 0.28125 -6.109375 C 0.269531 -6.148438 0.265625 -6.25 0.265625 -6.40625 C 0.265625 -6.632812 0.285156 -6.835938 0.328125 -7.015625 C 0.378906 -7.191406 0.429688 -7.289062 0.484375 -7.3125 C 0.804688 -7.269531 1.117188 -7.25 1.421875 -7.25 C 1.617188 -7.25 1.820312 -7.257812 2.03125 -7.28125 C 2.238281 -7.300781 2.347656 -7.3125 2.359375 -7.3125 C 2.515625 -7.3125 2.613281 -7.269531 2.65625 -7.1875 C 2.707031 -7.113281 2.734375 -6.9375 2.734375 -6.65625 Z M 2.734375 -6.65625 "/></g></g></g><g fill="#000000" fill-opacity="1"><g transform="translate(44.125969, 22.944079)"><g/></g></g><g fill="#000000" fill-opacity="1"><g transform="translate(47.519669, 22.944079)"><g><path d="M 3.171875 -5.71875 L 5.984375 -5.71875 C 6.554688 -5.71875 7.003906 -5.875 7.328125 -6.1875 C 7.648438 -6.5 7.8125 -6.867188 7.8125 -7.296875 C 7.8125 -7.753906 7.640625 -8.148438 7.296875 -8.484375 C 6.960938 -8.816406 6.484375 -8.984375 5.859375 -8.984375 L 3.171875 -8.984375 Z M 0.765625 -10.203125 C 1.359375 -10.148438 2.191406 -10.125 3.265625 -10.125 C 3.648438 -10.125 4.128906 -10.140625 4.703125 -10.171875 C 5.285156 -10.203125 5.671875 -10.21875 5.859375 -10.21875 C 6.421875 -10.21875 6.929688 -10.132812 7.390625 -9.96875 C 7.859375 -9.8125 8.234375 -9.59375 8.515625 -9.3125 C 8.796875 -9.039062 9.007812 -8.734375 9.15625 -8.390625 C 9.3125 -8.054688 9.390625 -7.707031 9.390625 -7.34375 C 9.390625 -7.113281 9.351562 -6.878906 9.28125 -6.640625 C 9.207031 -6.410156 9.09375 -6.1875 8.9375 -5.96875 C 8.789062 -5.757812 8.613281 -5.566406 8.40625 -5.390625 C 8.207031 -5.222656 7.957031 -5.082031 7.65625 -4.96875 C 7.363281 -4.863281 7.046875 -4.800781 6.703125 -4.78125 C 7.046875 -4.675781 7.335938 -4.476562 7.578125 -4.1875 C 7.828125 -3.90625 8.015625 -3.601562 8.140625 -3.28125 C 8.265625 -2.96875 8.378906 -2.65625 8.484375 -2.34375 C 8.597656 -2.039062 8.726562 -1.789062 8.875 -1.59375 C 9.019531 -1.394531 9.203125 -1.296875 9.421875 -1.296875 C 10.066406 -1.296875 10.390625 -1.234375 10.390625 -1.109375 L 10.390625 -0.859375 C 10.390625 -0.703125 10.378906 -0.578125 10.359375 -0.484375 C 10.335938 -0.390625 10.285156 -0.289062 10.203125 -0.1875 C 10.117188 -0.0820312 9.984375 -0.00390625 9.796875 0.046875 C 9.609375 0.0976562 9.367188 0.125 9.078125 0.125 C 8.785156 0.125 8.53125 0.078125 8.3125 -0.015625 C 8.09375 -0.109375 7.910156 -0.238281 7.765625 -0.40625 C 7.628906 -0.570312 7.503906 -0.765625 7.390625 -0.984375 C 7.285156 -1.203125 7.1875 -1.429688 7.09375 -1.671875 C 7.007812 -1.921875 6.921875 -2.171875 6.828125 -2.421875 C 6.742188 -2.671875 6.640625 -2.910156 6.515625 -3.140625 C 6.390625 -3.378906 6.242188 -3.59375 6.078125 -3.78125 C 5.921875 -3.976562 5.71875 -4.144531 5.46875 -4.28125 C 5.21875 -4.425781 4.929688 -4.523438 4.609375 -4.578125 L 3.171875 -4.578125 L 3.171875 -1.796875 C 3.171875 -1.734375 3.171875 -1.679688 3.171875 -1.640625 C 3.179688 -1.597656 3.195312 -1.550781 3.21875 -1.5 C 3.25 -1.457031 3.296875 -1.421875 3.359375 -1.390625 C 3.421875 -1.367188 3.5 -1.359375 3.59375 -1.359375 C 3.800781 -1.359375 3.976562 -1.328125 4.125 -1.265625 C 4.28125 -1.210938 4.359375 -1.132812 4.359375 -1.03125 C 4.359375 -0.425781 4.285156 -0.0546875 4.140625 0.078125 C 3.453125 0.0234375 2.867188 0 2.390625 0 C 1.972656 0 1.429688 0.0234375 0.765625 0.078125 C 0.640625 0.00390625 0.546875 -0.140625 0.484375 -0.359375 C 0.429688 -0.578125 0.40625 -0.800781 0.40625 -1.03125 C 0.40625 -1.132812 0.476562 -1.210938 0.625 -1.265625 C 0.78125 -1.328125 0.960938 -1.359375 1.171875 -1.359375 C 1.347656 -1.359375 1.460938 -1.394531 1.515625 -1.46875 C 1.566406 -1.539062 1.59375 -1.644531 1.59375 -1.78125 L 1.59375 -8.34375 C 1.59375 -8.476562 1.566406 -8.582031 1.515625 -8.65625 C 1.460938 -8.726562 1.347656 -8.765625 1.171875 -8.765625 C 0.660156 -8.765625 0.40625 -8.882812 0.40625 -9.125 C 0.40625 -9.34375 0.429688 -9.5625 0.484375 -9.78125 C 0.546875 -10 0.640625 -10.140625 0.765625 -10.203125 Z M 0.765625 -10.203125 "/></g></g></g><g fill="#000000" fill-opacity="1"><g transform="translate(58.189463, 22.944079)"><g><path d="M 7.578125 -6.828125 L 7.578125 -1.859375 C 7.578125 -1.734375 7.578125 -1.644531 7.578125 -1.59375 C 7.585938 -1.550781 7.601562 -1.5 7.625 -1.4375 C 7.644531 -1.375 7.675781 -1.332031 7.71875 -1.3125 C 7.769531 -1.289062 7.835938 -1.269531 7.921875 -1.25 C 8.003906 -1.238281 8.113281 -1.234375 8.25 -1.234375 C 8.445312 -1.234375 8.570312 -1.207031 8.625 -1.15625 C 8.6875 -1.113281 8.71875 -1.015625 8.71875 -0.859375 C 8.71875 -0.628906 8.691406 -0.425781 8.640625 -0.25 C 8.585938 -0.0820312 8.539062 0.015625 8.5 0.046875 C 8.164062 0.015625 7.859375 0 7.578125 0 C 7.390625 0 7.191406 0.00390625 6.984375 0.015625 C 6.785156 0.0351562 6.664062 0.046875 6.625 0.046875 C 6.445312 0.046875 6.335938 -0.00390625 6.296875 -0.109375 C 6.253906 -0.210938 6.234375 -0.503906 6.234375 -0.984375 C 5.921875 -0.609375 5.539062 -0.316406 5.09375 -0.109375 C 4.644531 0.0859375 4.191406 0.1875 3.734375 0.1875 C 3.398438 0.1875 3.085938 0.128906 2.796875 0.015625 C 2.503906 -0.0976562 2.238281 -0.257812 2 -0.46875 C 1.769531 -0.6875 1.585938 -0.976562 1.453125 -1.34375 C 1.316406 -1.71875 1.25 -2.140625 1.25 -2.609375 L 1.25 -5.328125 C 1.25 -5.753906 1.132812 -5.976562 0.90625 -6 C 0.863281 -6.007812 0.8125 -6.015625 0.75 -6.015625 C 0.6875 -6.015625 0.632812 -6.015625 0.59375 -6.015625 C 0.550781 -6.023438 0.503906 -6.035156 0.453125 -6.046875 C 0.398438 -6.054688 0.359375 -6.0625 0.328125 -6.0625 C 0.296875 -6.070312 0.257812 -6.082031 0.21875 -6.09375 C 0.175781 -6.101562 0.140625 -6.113281 0.109375 -6.125 C 0.0859375 -6.144531 0.0664062 -6.160156 0.046875 -6.171875 C 0.0234375 -6.191406 0.0078125 -6.210938 0 -6.234375 C -0.0078125 -6.265625 -0.015625 -6.296875 -0.015625 -6.328125 C -0.015625 -6.847656 0.0546875 -7.175781 0.203125 -7.3125 C 0.628906 -7.269531 1.023438 -7.25 1.390625 -7.25 C 1.640625 -7.25 1.894531 -7.257812 2.15625 -7.28125 C 2.414062 -7.300781 2.546875 -7.3125 2.546875 -7.3125 C 2.703125 -7.3125 2.78125 -7.148438 2.78125 -6.828125 L 2.78125 -2.53125 C 2.78125 -2.03125 2.910156 -1.65625 3.171875 -1.40625 C 3.429688 -1.15625 3.757812 -1.03125 4.15625 -1.03125 C 4.5 -1.03125 4.84375 -1.117188 5.1875 -1.296875 C 5.53125 -1.484375 5.8125 -1.734375 6.03125 -2.046875 L 6.03125 -5.328125 C 6.03125 -5.753906 5.921875 -5.976562 5.703125 -6 C 5.660156 -6.007812 5.609375 -6.015625 5.546875 -6.015625 C 5.484375 -6.015625 5.429688 -6.015625 5.390625 -6.015625 C 5.347656 -6.023438 5.300781 -6.035156 5.25 -6.046875 C 5.195312 -6.054688 5.15625 -6.0625 5.125 -6.0625 C 5.09375 -6.070312 5.050781 -6.082031 5 -6.09375 C 4.957031 -6.101562 4.925781 -6.113281 4.90625 -6.125 C 4.882812 -6.144531 4.863281 -6.160156 4.84375 -6.171875 C 4.820312 -6.191406 4.804688 -6.210938 4.796875 -6.234375 C 4.785156 -6.265625 4.78125 -6.296875 4.78125 -6.328125 C 4.78125 -6.859375 4.851562 -7.1875 5 -7.3125 C 5.425781 -7.269531 5.816406 -7.25 6.171875 -7.25 C 6.472656 -7.25 6.78125 -7.257812 7.09375 -7.28125 C 7.40625 -7.300781 7.566406 -7.3125 7.578125 -7.3125 C 7.578125 -7.3125 7.578125 -7.148438 7.578125 -6.828125 Z M 7.578125 -6.828125 "/></g></g></g><g fill="#000000" fill-opacity="1"><g transform="translate(67.114894, 22.944079)"><g><path d="M 8.796875 0.046875 C 8.359375 0.015625 7.960938 0 7.609375 0 C 7.378906 0 7.125 0.00390625 6.84375 0.015625 C 6.570312 0.0351562 6.394531 0.046875 6.3125 0.046875 C 6.15625 0.046875 6.078125 -0.125 6.078125 -0.46875 L 6.078125 -4.53125 C 6.078125 -5.113281 5.984375 -5.539062 5.796875 -5.8125 C 5.609375 -6.09375 5.359375 -6.234375 5.046875 -6.234375 C 4.734375 -6.234375 4.382812 -6.144531 4 -5.96875 C 3.625 -5.789062 3.273438 -5.5625 2.953125 -5.28125 L 2.953125 -1.703125 C 2.953125 -1.640625 2.953125 -1.585938 2.953125 -1.546875 C 2.960938 -1.503906 2.976562 -1.457031 3 -1.40625 C 3.03125 -1.363281 3.078125 -1.328125 3.140625 -1.296875 C 3.203125 -1.273438 3.28125 -1.265625 3.375 -1.265625 C 3.550781 -1.265625 3.695312 -1.234375 3.8125 -1.171875 C 3.9375 -1.117188 4 -1.039062 4 -0.9375 C 4 -0.40625 3.925781 -0.078125 3.78125 0.046875 C 3.507812 0.015625 2.992188 0 2.234375 0 C 1.472656 0 0.921875 0.015625 0.578125 0.046875 C 0.429688 -0.0859375 0.359375 -0.414062 0.359375 -0.9375 C 0.359375 -1.039062 0.414062 -1.117188 0.53125 -1.171875 C 0.65625 -1.234375 0.804688 -1.265625 0.984375 -1.265625 C 1.160156 -1.265625 1.273438 -1.300781 1.328125 -1.375 C 1.378906 -1.445312 1.40625 -1.550781 1.40625 -1.6875 L 1.40625 -5.34375 C 1.40625 -5.582031 1.332031 -5.75 1.1875 -5.84375 C 1.050781 -5.945312 0.789062 -6.003906 0.40625 -6.015625 C 0.34375 -6.035156 0.300781 -6.066406 0.28125 -6.109375 C 0.269531 -6.148438 0.265625 -6.25 0.265625 -6.40625 C 0.265625 -6.632812 0.289062 -6.835938 0.34375 -7.015625 C 0.394531 -7.191406 0.441406 -7.289062 0.484375 -7.3125 C 0.785156 -7.269531 1.078125 -7.25 1.359375 -7.25 C 1.566406 -7.25 1.78125 -7.257812 2 -7.28125 C 2.226562 -7.300781 2.351562 -7.3125 2.375 -7.3125 C 2.53125 -7.3125 2.628906 -7.269531 2.671875 -7.1875 C 2.722656 -7.113281 2.75 -6.9375 2.75 -6.65625 C 2.75 -6.625 2.75 -6.566406 2.75 -6.484375 C 2.75 -6.398438 2.75 -6.332031 2.75 -6.28125 C 3.132812 -6.625 3.570312 -6.898438 4.0625 -7.109375 C 4.5625 -7.328125 5.039062 -7.4375 5.5 -7.4375 C 6.125 -7.4375 6.632812 -7.210938 7.03125 -6.765625 C 7.425781 -6.316406 7.625 -5.613281 7.625 -4.65625 L 7.625 -1.734375 C 7.625 -1.441406 7.738281 -1.285156 7.96875 -1.265625 C 8.007812 -1.253906 8.066406 -1.25 8.140625 -1.25 C 8.210938 -1.25 8.269531 -1.242188 8.3125 -1.234375 C 8.363281 -1.234375 8.421875 -1.226562 8.484375 -1.21875 C 8.546875 -1.207031 8.59375 -1.195312 8.625 -1.1875 C 8.664062 -1.1875 8.707031 -1.179688 8.75 -1.171875 C 8.800781 -1.160156 8.835938 -1.144531 8.859375 -1.125 C 8.890625 -1.113281 8.914062 -1.097656 8.9375 -1.078125 C 8.96875 -1.066406 8.988281 -1.046875 9 -1.015625 C 9.007812 -0.992188 9.015625 -0.96875 9.015625 -0.9375 C 9.015625 -0.414062 8.941406 -0.0859375 8.796875 0.046875 Z M 8.796875 0.046875 "/></g></g></g><g fill="#000000" fill-opacity="1"><g transform="translate(76.291459, 22.944079)"><g/></g></g><g fill="#000000" fill-opacity="1"><g transform="translate(79.685159, 22.944079)"><g><path d="M 3.71875 -1.78125 L 3.71875 -8.796875 C 3.71875 -8.847656 3.710938 -8.882812 3.703125 -8.90625 C 3.703125 -8.9375 3.6875 -8.960938 3.65625 -8.984375 C 3.632812 -9.015625 3.597656 -9.03125 3.546875 -9.03125 C 3.335938 -9.03125 3.03125 -9.03125 2.625 -9.03125 C 2.21875 -9.039062 1.925781 -9.046875 1.75 -9.046875 C 1.707031 -8.953125 1.640625 -8.722656 1.546875 -8.359375 C 1.453125 -8.003906 1.359375 -7.691406 1.265625 -7.421875 C 1.171875 -7.148438 1.085938 -7.015625 1.015625 -7.015625 C 0.835938 -7.015625 0.679688 -7.035156 0.546875 -7.078125 C 0.421875 -7.128906 0.320312 -7.1875 0.25 -7.25 C 0.175781 -7.3125 0.125 -7.367188 0.09375 -7.421875 C 0.0625 -7.484375 0.046875 -7.53125 0.046875 -7.5625 C 0.046875 -7.71875 0.128906 -8.179688 0.296875 -8.953125 C 0.460938 -9.734375 0.578125 -10.15625 0.640625 -10.21875 C 0.648438 -10.21875 0.660156 -10.21875 0.671875 -10.21875 C 0.691406 -10.21875 0.707031 -10.21875 0.71875 -10.21875 C 2.0625 -10.101562 3.320312 -10.046875 4.5 -10.046875 C 5.675781 -10.046875 6.9375 -10.101562 8.28125 -10.21875 C 8.289062 -10.21875 8.300781 -10.21875 8.3125 -10.21875 C 8.332031 -10.21875 8.347656 -10.21875 8.359375 -10.21875 C 8.421875 -10.15625 8.535156 -9.734375 8.703125 -8.953125 C 8.867188 -8.179688 8.953125 -7.71875 8.953125 -7.5625 C 8.953125 -7.53125 8.9375 -7.484375 8.90625 -7.421875 C 8.875 -7.367188 8.820312 -7.3125 8.75 -7.25 C 8.675781 -7.1875 8.570312 -7.128906 8.4375 -7.078125 C 8.3125 -7.035156 8.160156 -7.015625 7.984375 -7.015625 C 7.910156 -7.015625 7.820312 -7.148438 7.71875 -7.421875 C 7.625 -7.691406 7.53125 -8.003906 7.4375 -8.359375 C 7.351562 -8.722656 7.289062 -8.953125 7.25 -9.046875 C 7.070312 -9.046875 6.78125 -9.039062 6.375 -9.03125 C 5.96875 -9.03125 5.660156 -9.03125 5.453125 -9.03125 C 5.378906 -9.03125 5.332031 -9.007812 5.3125 -8.96875 C 5.289062 -8.9375 5.28125 -8.878906 5.28125 -8.796875 L 5.28125 -1.796875 C 5.28125 -1.734375 5.28125 -1.679688 5.28125 -1.640625 C 5.289062 -1.597656 5.304688 -1.550781 5.328125 -1.5 C 5.359375 -1.457031 5.40625 -1.421875 5.46875 -1.390625 C 5.53125 -1.367188 5.613281 -1.359375 5.71875 -1.359375 C 5.925781 -1.359375 6.101562 -1.328125 6.25 -1.265625 C 6.40625 -1.210938 6.484375 -1.132812 6.484375 -1.03125 C 6.484375 -0.425781 6.40625 -0.0546875 6.25 0.078125 C 5.570312 0.0234375 4.992188 0 4.515625 0 C 4.035156 0 3.445312 0.0234375 2.75 0.078125 C 2.601562 -0.0546875 2.53125 -0.425781 2.53125 -1.03125 C 2.53125 -1.132812 2.601562 -1.210938 2.75 -1.265625 C 2.894531 -1.328125 3.070312 -1.359375 3.28125 -1.359375 C 3.457031 -1.359375 3.570312 -1.394531 3.625 -1.46875 C 3.6875 -1.539062 3.71875 -1.644531 3.71875 -1.78125 Z M 3.71875 -1.78125 "/></g></g></g><g fill="#000000" fill-opacity="1"><g transform="translate(88.685252, 22.944079)"><g><path d="M 2.890625 -9.15625 L 2.890625 -6.28125 C 3.210938 -6.625 3.597656 -6.898438 4.046875 -7.109375 C 4.492188 -7.328125 4.972656 -7.4375 5.484375 -7.4375 C 5.773438 -7.4375 6.039062 -7.382812 6.28125 -7.28125 C 6.53125 -7.1875 6.757812 -7.035156 6.96875 -6.828125 C 7.175781 -6.617188 7.335938 -6.328125 7.453125 -5.953125 C 7.566406 -5.585938 7.625 -5.15625 7.625 -4.65625 L 7.625 -1.890625 C 7.625 -1.460938 7.738281 -1.238281 7.96875 -1.21875 C 8.007812 -1.207031 8.0625 -1.195312 8.125 -1.1875 C 8.1875 -1.1875 8.238281 -1.1875 8.28125 -1.1875 C 8.320312 -1.1875 8.367188 -1.179688 8.421875 -1.171875 C 8.472656 -1.160156 8.515625 -1.148438 8.546875 -1.140625 C 8.578125 -1.140625 8.613281 -1.132812 8.65625 -1.125 C 8.695312 -1.113281 8.726562 -1.097656 8.75 -1.078125 C 8.78125 -1.066406 8.804688 -1.050781 8.828125 -1.03125 C 8.847656 -1.019531 8.863281 -1 8.875 -0.96875 C 8.882812 -0.945312 8.890625 -0.921875 8.890625 -0.890625 C 8.890625 -0.390625 8.789062 -0.078125 8.59375 0.046875 C 8.207031 0.015625 7.832031 0 7.46875 0 C 7.28125 0 7.070312 0.00390625 6.84375 0.015625 C 6.613281 0.0351562 6.441406 0.046875 6.328125 0.046875 C 6.273438 0.046875 6.234375 0.0351562 6.203125 0.015625 C 6.171875 0.00390625 6.144531 -0.03125 6.125 -0.09375 C 6.101562 -0.164062 6.09375 -0.273438 6.09375 -0.421875 L 6.09375 -4.53125 C 6.09375 -5.113281 5.988281 -5.539062 5.78125 -5.8125 C 5.582031 -6.09375 5.316406 -6.234375 4.984375 -6.234375 C 4.671875 -6.234375 4.320312 -6.132812 3.9375 -5.9375 C 3.5625 -5.75 3.210938 -5.507812 2.890625 -5.21875 L 2.890625 -1.703125 C 2.890625 -1.640625 2.890625 -1.585938 2.890625 -1.546875 C 2.898438 -1.503906 2.914062 -1.457031 2.9375 -1.40625 C 2.96875 -1.363281 3.015625 -1.328125 3.078125 -1.296875 C 3.140625 -1.273438 3.222656 -1.265625 3.328125 -1.265625 C 3.492188 -1.265625 3.632812 -1.234375 3.75 -1.171875 C 3.875 -1.117188 3.9375 -1.039062 3.9375 -0.9375 C 3.9375 -0.40625 3.863281 -0.078125 3.71875 0.046875 C 3.289062 0.015625 2.769531 0 2.15625 0 C 1.5 0 0.953125 0.015625 0.515625 0.046875 C 0.367188 -0.0859375 0.296875 -0.414062 0.296875 -0.9375 C 0.296875 -1.039062 0.351562 -1.117188 0.46875 -1.171875 C 0.59375 -1.234375 0.742188 -1.265625 0.921875 -1.265625 C 1.097656 -1.265625 1.210938 -1.300781 1.265625 -1.375 C 1.316406 -1.445312 1.34375 -1.550781 1.34375 -1.6875 L 1.34375 -8.203125 C 1.34375 -8.441406 1.273438 -8.613281 1.140625 -8.71875 C 1.003906 -8.820312 0.738281 -8.878906 0.34375 -8.890625 C 0.28125 -8.910156 0.238281 -8.941406 0.21875 -8.984375 C 0.207031 -9.023438 0.203125 -9.125 0.203125 -9.28125 C 0.203125 -9.507812 0.226562 -9.710938 0.28125 -9.890625 C 0.332031 -10.066406 0.378906 -10.164062 0.421875 -10.1875 C 0.796875 -10.144531 1.15625 -10.125 1.5 -10.125 C 1.707031 -10.125 1.921875 -10.132812 2.140625 -10.15625 C 2.367188 -10.175781 2.492188 -10.1875 2.515625 -10.1875 C 2.671875 -10.1875 2.769531 -10.144531 2.8125 -10.0625 C 2.863281 -9.988281 2.890625 -9.8125 2.890625 -9.53125 C 2.890625 -9.5 2.890625 -9.441406 2.890625 -9.359375 C 2.890625 -9.273438 2.890625 -9.207031 2.890625 -9.15625 Z M 2.890625 -9.15625 "/></g></g></g><g fill="#000000" fill-opacity="1"><g transform="translate(97.787155, 22.944079)"><g><path d="M 7.265625 -4.015625 C 7.265625 -3.804688 7.210938 -3.644531 7.109375 -3.53125 C 7.003906 -3.425781 6.804688 -3.375 6.515625 -3.375 L 1.828125 -3.375 C 1.847656 -2.957031 1.921875 -2.597656 2.046875 -2.296875 C 2.171875 -2.003906 2.335938 -1.769531 2.546875 -1.59375 C 2.753906 -1.425781 2.984375 -1.300781 3.234375 -1.21875 C 3.484375 -1.144531 3.753906 -1.109375 4.046875 -1.109375 C 4.460938 -1.109375 4.882812 -1.179688 5.3125 -1.328125 C 5.738281 -1.472656 6.128906 -1.675781 6.484375 -1.9375 C 6.734375 -1.632812 6.859375 -1.332031 6.859375 -1.03125 C 6.859375 -0.84375 6.726562 -0.65625 6.46875 -0.46875 C 6.21875 -0.28125 5.875 -0.125 5.4375 0 C 5 0.125 4.539062 0.1875 4.0625 0.1875 C 3.675781 0.1875 3.304688 0.144531 2.953125 0.0625 C 2.597656 -0.0078125 2.25 -0.140625 1.90625 -0.328125 C 1.570312 -0.523438 1.28125 -0.769531 1.03125 -1.0625 C 0.789062 -1.351562 0.597656 -1.726562 0.453125 -2.1875 C 0.304688 -2.65625 0.234375 -3.179688 0.234375 -3.765625 C 0.234375 -4.335938 0.335938 -4.859375 0.546875 -5.328125 C 0.765625 -5.804688 1.050781 -6.195312 1.40625 -6.5 C 1.769531 -6.800781 2.171875 -7.03125 2.609375 -7.1875 C 3.054688 -7.351562 3.515625 -7.4375 3.984375 -7.4375 C 4.328125 -7.4375 4.65625 -7.394531 4.96875 -7.3125 C 5.289062 -7.226562 5.585938 -7.09375 5.859375 -6.90625 C 6.140625 -6.726562 6.382812 -6.503906 6.59375 -6.234375 C 6.800781 -5.972656 6.960938 -5.648438 7.078125 -5.265625 C 7.203125 -4.890625 7.265625 -4.472656 7.265625 -4.015625 Z M 5.90625 -4.421875 C 5.863281 -5.046875 5.664062 -5.519531 5.3125 -5.84375 C 4.957031 -6.175781 4.53125 -6.34375 4.03125 -6.34375 C 3.507812 -6.34375 3.035156 -6.164062 2.609375 -5.8125 C 2.179688 -5.46875 1.9375 -5.003906 1.875 -4.421875 Z M 5.90625 -4.421875 "/></g></g></g><g fill="#000000" fill-opacity="1"><g transform="translate(105.300808, 22.944079)"><g/></g></g><g fill="#000000" fill-opacity="1"><g transform="translate(108.694508, 22.944079)"><g><path d="M 3.171875 -1.171875 L 5.796875 -1.171875 C 6.179688 -1.171875 6.539062 -1.242188 6.875 -1.390625 C 7.207031 -1.535156 7.492188 -1.726562 7.734375 -1.96875 C 7.972656 -2.21875 8.175781 -2.507812 8.34375 -2.84375 C 8.519531 -3.175781 8.648438 -3.53125 8.734375 -3.90625 C 8.816406 -4.28125 8.859375 -4.660156 8.859375 -5.046875 C 8.859375 -5.535156 8.785156 -6.007812 8.640625 -6.46875 C 8.492188 -6.9375 8.285156 -7.359375 8.015625 -7.734375 C 7.753906 -8.109375 7.410156 -8.410156 6.984375 -8.640625 C 6.566406 -8.867188 6.101562 -8.984375 5.59375 -8.984375 L 3.171875 -8.984375 Z M 0.765625 -10.203125 C 1.359375 -10.148438 2.191406 -10.125 3.265625 -10.125 C 3.609375 -10.125 4.039062 -10.132812 4.5625 -10.15625 C 5.082031 -10.1875 5.425781 -10.203125 5.59375 -10.203125 C 6.269531 -10.203125 6.890625 -10.101562 7.453125 -9.90625 C 8.015625 -9.71875 8.484375 -9.457031 8.859375 -9.125 C 9.242188 -8.800781 9.570312 -8.414062 9.84375 -7.96875 C 10.113281 -7.53125 10.3125 -7.066406 10.4375 -6.578125 C 10.5625 -6.097656 10.625 -5.597656 10.625 -5.078125 C 10.625 -4.546875 10.5625 -4.03125 10.4375 -3.53125 C 10.320312 -3.039062 10.132812 -2.578125 9.875 -2.140625 C 9.625 -1.703125 9.3125 -1.316406 8.9375 -0.984375 C 8.5625 -0.660156 8.101562 -0.398438 7.5625 -0.203125 C 7.03125 -0.015625 6.441406 0.078125 5.796875 0.078125 C 5.609375 0.078125 5.25 0.0625 4.71875 0.03125 C 4.195312 0.0078125 3.738281 0 3.34375 0 C 3.15625 0 2.921875 0.00390625 2.640625 0.015625 C 2.367188 0.0234375 2.046875 0.0351562 1.671875 0.046875 C 1.296875 0.0546875 0.992188 0.0664062 0.765625 0.078125 C 0.640625 0.00390625 0.546875 -0.140625 0.484375 -0.359375 C 0.429688 -0.578125 0.40625 -0.800781 0.40625 -1.03125 C 0.40625 -1.132812 0.476562 -1.210938 0.625 -1.265625 C 0.78125 -1.328125 0.960938 -1.359375 1.171875 -1.359375 C 1.347656 -1.359375 1.460938 -1.394531 1.515625 -1.46875 C 1.566406 -1.539062 1.59375 -1.644531 1.59375 -1.78125 L 1.59375 -8.34375 C 1.59375 -8.476562 1.566406 -8.582031 1.515625 -8.65625 C 1.460938 -8.726562 1.347656 -8.765625 1.171875 -8.765625 C 0.660156 -8.765625 0.40625 -8.882812 0.40625 -9.125 C 0.40625 -9.34375 0.429688 -9.5625 0.484375 -9.78125 C 0.546875 -10 0.640625 -10.140625 0.765625 -10.203125 Z M 0.765625 -10.203125 "/></g></g></g><g fill="#000000" fill-opacity="1"><g transform="translate(119.696883, 22.944079)"><g><path d="M 5.234375 -0.921875 C 4.910156 -0.578125 4.492188 -0.304688 3.984375 -0.109375 C 3.484375 0.0859375 2.972656 0.1875 2.453125 0.1875 C 1.804688 0.1875 1.269531 0.015625 0.84375 -0.328125 C 0.425781 -0.671875 0.21875 -1.171875 0.21875 -1.828125 C 0.21875 -2.523438 0.554688 -3.050781 1.234375 -3.40625 C 1.734375 -3.675781 2.601562 -3.910156 3.84375 -4.109375 C 4.070312 -4.148438 4.445312 -4.207031 4.96875 -4.28125 C 4.96875 -5.050781 4.867188 -5.582031 4.671875 -5.875 C 4.472656 -6.164062 4.097656 -6.3125 3.546875 -6.3125 C 3.148438 -6.3125 2.703125 -6.21875 2.203125 -6.03125 C 1.710938 -5.851562 1.320312 -5.601562 1.03125 -5.28125 C 0.65625 -5.59375 0.46875 -5.894531 0.46875 -6.1875 C 0.46875 -6.4375 0.640625 -6.660156 0.984375 -6.859375 C 1.335938 -7.054688 1.75 -7.203125 2.21875 -7.296875 C 2.695312 -7.390625 3.175781 -7.4375 3.65625 -7.4375 C 4.101562 -7.4375 4.492188 -7.378906 4.828125 -7.265625 C 5.171875 -7.160156 5.46875 -6.976562 5.71875 -6.71875 C 5.976562 -6.46875 6.175781 -6.117188 6.3125 -5.671875 C 6.445312 -5.234375 6.515625 -4.695312 6.515625 -4.0625 L 6.515625 -1.890625 C 6.515625 -1.703125 6.523438 -1.5625 6.546875 -1.46875 C 6.578125 -1.375 6.609375 -1.316406 6.640625 -1.296875 C 6.679688 -1.273438 6.742188 -1.257812 6.828125 -1.25 C 6.972656 -1.238281 7.078125 -1.226562 7.140625 -1.21875 C 7.210938 -1.207031 7.289062 -1.191406 7.375 -1.171875 C 7.46875 -1.148438 7.53125 -1.117188 7.5625 -1.078125 C 7.601562 -1.046875 7.625 -1 7.625 -0.9375 C 7.625 -0.40625 7.550781 -0.078125 7.40625 0.046875 C 7.1875 0.015625 6.90625 0 6.5625 0 C 6.238281 0 5.941406 0.015625 5.671875 0.046875 C 5.640625 0.0234375 5.597656 -0.00390625 5.546875 -0.046875 C 5.503906 -0.0859375 5.441406 -0.191406 5.359375 -0.359375 C 5.273438 -0.523438 5.234375 -0.710938 5.234375 -0.921875 Z M 2.765625 -1.03125 C 3.171875 -1.03125 3.613281 -1.144531 4.09375 -1.375 C 4.582031 -1.601562 4.875 -1.804688 4.96875 -1.984375 L 4.96875 -3.1875 C 3.726562 -2.96875 2.890625 -2.769531 2.453125 -2.59375 C 2.023438 -2.414062 1.8125 -2.164062 1.8125 -1.84375 C 1.8125 -1.300781 2.128906 -1.03125 2.765625 -1.03125 Z M 2.765625 -1.03125 "/></g></g></g><g fill="#000000" fill-opacity="1"><g transform="translate(127.549905, 22.944079)"><g><path d="M 3.03125 -5.609375 L 4.78125 -1.71875 L 6.28125 -5.609375 C 6.3125 -5.671875 6.328125 -5.726562 6.328125 -5.78125 C 6.328125 -5.875 6.289062 -5.9375 6.21875 -5.96875 C 6.144531 -6.007812 6.066406 -6.03125 5.984375 -6.03125 C 5.898438 -6.039062 5.820312 -6.066406 5.75 -6.109375 C 5.6875 -6.148438 5.65625 -6.222656 5.65625 -6.328125 L 5.65625 -6.375 C 5.71875 -6.976562 5.789062 -7.332031 5.875 -7.4375 C 6.320312 -7.320312 6.800781 -7.265625 7.3125 -7.265625 C 7.851562 -7.265625 8.351562 -7.320312 8.8125 -7.4375 C 8.988281 -7.351562 9.078125 -7.140625 9.078125 -6.796875 C 9.078125 -6.515625 9.019531 -6.316406 8.90625 -6.203125 C 8.800781 -6.097656 8.613281 -6.046875 8.34375 -6.046875 C 8.28125 -6.046875 8.222656 -6.035156 8.171875 -6.015625 C 8.117188 -6.003906 8.078125 -5.992188 8.046875 -5.984375 C 8.023438 -5.972656 8 -5.945312 7.96875 -5.90625 C 7.945312 -5.875 7.929688 -5.847656 7.921875 -5.828125 C 7.910156 -5.804688 7.894531 -5.769531 7.875 -5.71875 C 7.851562 -5.664062 7.835938 -5.628906 7.828125 -5.609375 L 5.109375 0.640625 C 4.847656 1.234375 4.53125 1.664062 4.15625 1.9375 C 3.789062 2.21875 3.335938 2.359375 2.796875 2.359375 C 2.378906 2.359375 2.015625 2.273438 1.703125 2.109375 C 1.398438 1.941406 1.25 1.753906 1.25 1.546875 C 1.25 1.273438 1.269531 1.09375 1.3125 1 C 1.351562 0.914062 1.4375 0.875 1.5625 0.875 C 1.601562 0.875 1.757812 0.90625 2.03125 0.96875 C 2.300781 1.03125 2.550781 1.0625 2.78125 1.0625 C 2.882812 1.0625 2.960938 1.054688 3.015625 1.046875 C 3.078125 1.046875 3.140625 1.023438 3.203125 0.984375 C 3.265625 0.941406 3.3125 0.898438 3.34375 0.859375 C 3.375 0.828125 3.421875 0.753906 3.484375 0.640625 C 3.554688 0.523438 3.613281 0.414062 3.65625 0.3125 C 3.707031 0.207031 3.785156 0.0390625 3.890625 -0.1875 C 4.003906 -0.414062 4.113281 -0.628906 4.21875 -0.828125 C 4.050781 -0.828125 3.925781 -0.84375 3.84375 -0.875 C 3.757812 -0.90625 3.695312 -0.96875 3.65625 -1.0625 L 1.484375 -5.609375 C 1.484375 -5.628906 1.46875 -5.664062 1.4375 -5.71875 C 1.414062 -5.769531 1.398438 -5.800781 1.390625 -5.8125 C 1.390625 -5.832031 1.375 -5.863281 1.34375 -5.90625 C 1.3125 -5.945312 1.28125 -5.972656 1.25 -5.984375 C 1.21875 -5.992188 1.175781 -6.003906 1.125 -6.015625 C 1.082031 -6.035156 1.03125 -6.046875 0.96875 -6.046875 C 0.695312 -6.046875 0.503906 -6.097656 0.390625 -6.203125 C 0.285156 -6.316406 0.234375 -6.515625 0.234375 -6.796875 C 0.234375 -7.140625 0.320312 -7.351562 0.5 -7.4375 C 0.914062 -7.320312 1.414062 -7.265625 2 -7.265625 C 2.601562 -7.265625 3.128906 -7.320312 3.578125 -7.4375 C 3.660156 -7.332031 3.734375 -6.976562 3.796875 -6.375 L 3.796875 -6.328125 C 3.796875 -6.222656 3.753906 -6.148438 3.671875 -6.109375 C 3.585938 -6.066406 3.492188 -6.039062 3.390625 -6.03125 C 3.296875 -6.03125 3.203125 -6.007812 3.109375 -5.96875 C 3.023438 -5.9375 2.984375 -5.875 2.984375 -5.78125 C 2.984375 -5.707031 3 -5.648438 3.03125 -5.609375 Z M 3.03125 -5.609375 "/></g></g></g><g fill="#000000" fill-opacity="1"><g transform="translate(136.916518, 22.944079)"><g/></g></g><g fill="#000000" fill-opacity="1"><g transform="translate(140.310218, 22.944079)"><g><path d="M 7.390625 -0.109375 C 6.828125 0.0859375 6.210938 0.1875 5.546875 0.1875 C 4.878906 0.1875 4.265625 0.0859375 3.703125 -0.109375 C 3.140625 -0.304688 2.65625 -0.570312 2.25 -0.90625 C 1.851562 -1.25 1.507812 -1.644531 1.21875 -2.09375 C 0.9375 -2.539062 0.726562 -3.015625 0.59375 -3.515625 C 0.457031 -4.023438 0.390625 -4.539062 0.390625 -5.0625 C 0.390625 -5.59375 0.457031 -6.109375 0.59375 -6.609375 C 0.726562 -7.117188 0.9375 -7.59375 1.21875 -8.03125 C 1.5 -8.46875 1.835938 -8.851562 2.234375 -9.1875 C 2.640625 -9.519531 3.125 -9.78125 3.6875 -9.96875 C 4.257812 -10.164062 4.878906 -10.265625 5.546875 -10.265625 C 6.210938 -10.265625 6.828125 -10.164062 7.390625 -9.96875 C 7.960938 -9.78125 8.445312 -9.519531 8.84375 -9.1875 C 9.25 -8.851562 9.59375 -8.46875 9.875 -8.03125 C 10.15625 -7.59375 10.363281 -7.117188 10.5 -6.609375 C 10.632812 -6.109375 10.703125 -5.59375 10.703125 -5.0625 C 10.703125 -4.539062 10.632812 -4.023438 10.5 -3.515625 C 10.363281 -3.015625 10.148438 -2.539062 9.859375 -2.09375 C 9.578125 -1.644531 9.238281 -1.25 8.84375 -0.90625 C 8.445312 -0.570312 7.960938 -0.304688 7.390625 -0.109375 Z M 4.3125 -1.265625 C 4.6875 -1.109375 5.097656 -1.03125 5.546875 -1.03125 C 5.992188 -1.03125 6.40625 -1.109375 6.78125 -1.265625 C 7.15625 -1.421875 7.472656 -1.625 7.734375 -1.875 C 8.003906 -2.132812 8.234375 -2.429688 8.421875 -2.765625 C 8.609375 -3.109375 8.75 -3.472656 8.84375 -3.859375 C 8.9375 -4.242188 8.984375 -4.640625 8.984375 -5.046875 C 8.984375 -5.554688 8.90625 -6.046875 8.75 -6.515625 C 8.601562 -6.984375 8.390625 -7.40625 8.109375 -7.78125 C 7.835938 -8.164062 7.476562 -8.472656 7.03125 -8.703125 C 6.59375 -8.929688 6.097656 -9.046875 5.546875 -9.046875 C 4.992188 -9.046875 4.492188 -8.929688 4.046875 -8.703125 C 3.609375 -8.472656 3.25 -8.164062 2.96875 -7.78125 C 2.695312 -7.40625 2.488281 -6.984375 2.34375 -6.515625 C 2.195312 -6.046875 2.125 -5.554688 2.125 -5.046875 C 2.125 -4.640625 2.164062 -4.242188 2.25 -3.859375 C 2.34375 -3.472656 2.484375 -3.109375 2.671875 -2.765625 C 2.859375 -2.429688 3.082031 -2.132812 3.34375 -1.875 C 3.613281 -1.625 3.9375 -1.421875 4.3125 -1.265625 Z M 4.3125 -1.265625 "/></g></g></g><g fill="#000000" fill-opacity="1"><g transform="translate(151.40083, 22.944079)"><g><path d="M 2.734375 -6.65625 L 2.734375 -6.21875 C 2.941406 -6.539062 3.242188 -6.820312 3.640625 -7.0625 C 4.046875 -7.3125 4.429688 -7.4375 4.796875 -7.4375 C 5.035156 -7.4375 5.265625 -7.394531 5.484375 -7.3125 C 5.703125 -7.238281 5.890625 -7.097656 6.046875 -6.890625 C 6.210938 -6.691406 6.296875 -6.441406 6.296875 -6.140625 C 6.296875 -5.335938 5.867188 -4.9375 5.015625 -4.9375 C 4.992188 -4.9375 4.972656 -4.9375 4.953125 -4.9375 C 4.929688 -4.945312 4.914062 -4.957031 4.90625 -4.96875 C 4.894531 -4.976562 4.882812 -4.984375 4.875 -4.984375 C 4.875 -4.992188 4.867188 -5.007812 4.859375 -5.03125 C 4.847656 -5.050781 4.835938 -5.066406 4.828125 -5.078125 C 4.828125 -5.085938 4.828125 -5.109375 4.828125 -5.140625 C 4.828125 -5.171875 4.820312 -5.191406 4.8125 -5.203125 C 4.8125 -5.222656 4.8125 -5.25 4.8125 -5.28125 C 4.8125 -5.320312 4.804688 -5.351562 4.796875 -5.375 L 4.71875 -6.078125 C 4.59375 -6.140625 4.457031 -6.171875 4.3125 -6.171875 C 4.050781 -6.171875 3.785156 -6.070312 3.515625 -5.875 C 3.253906 -5.6875 3.0625 -5.46875 2.9375 -5.21875 L 2.9375 -1.78125 C 2.9375 -1.707031 2.9375 -1.648438 2.9375 -1.609375 C 2.945312 -1.578125 2.960938 -1.535156 2.984375 -1.484375 C 3.015625 -1.429688 3.0625 -1.394531 3.125 -1.375 C 3.1875 -1.351562 3.269531 -1.34375 3.375 -1.34375 C 3.539062 -1.34375 3.6875 -1.3125 3.8125 -1.25 C 3.9375 -1.195312 4 -1.117188 4 -1.015625 C 4 -0.796875 3.960938 -0.578125 3.890625 -0.359375 C 3.816406 -0.148438 3.710938 -0.015625 3.578125 0.046875 C 3.253906 0.015625 2.785156 0 2.171875 0 C 1.566406 0 1.101562 0.015625 0.78125 0.046875 C 0.625 -0.015625 0.507812 -0.148438 0.4375 -0.359375 C 0.375 -0.566406 0.34375 -0.785156 0.34375 -1.015625 C 0.34375 -1.117188 0.40625 -1.195312 0.53125 -1.25 C 0.65625 -1.3125 0.800781 -1.34375 0.96875 -1.34375 C 1.144531 -1.34375 1.257812 -1.378906 1.3125 -1.453125 C 1.375 -1.523438 1.40625 -1.628906 1.40625 -1.765625 L 1.40625 -5.34375 C 1.40625 -5.582031 1.332031 -5.75 1.1875 -5.84375 C 1.050781 -5.945312 0.785156 -6.003906 0.390625 -6.015625 C 0.335938 -6.035156 0.300781 -6.066406 0.28125 -6.109375 C 0.269531 -6.148438 0.265625 -6.25 0.265625 -6.40625 C 0.265625 -6.632812 0.285156 -6.835938 0.328125 -7.015625 C 0.378906 -7.191406 0.429688 -7.289062 0.484375 -7.3125 C 0.804688 -7.269531 1.117188 -7.25 1.421875 -7.25 C 1.617188 -7.25 1.820312 -7.257812 2.03125 -7.28125 C 2.238281 -7.300781 2.347656 -7.3125 2.359375 -7.3125 C 2.515625 -7.3125 2.613281 -7.269531 2.65625 -7.1875 C 2.707031 -7.113281 2.734375 -6.9375 2.734375 -6.65625 Z M 2.734375 -6.65625 "/></g></g></g><g fill="#000000" fill-opacity="1"><g transform="translate(157.964246, 22.944079)"><g/></g></g><g fill="#ffffff" fill-opacity="1"><g transform="translate(161.356387, 22.944079)"><g><path d="M 3.71875 -1.78125 L 3.71875 -8.796875 C 3.71875 -8.847656 3.710938 -8.882812 3.703125 -8.90625 C 3.703125 -8.9375 3.6875 -8.960938 3.65625 -8.984375 C 3.632812 -9.015625 3.597656 -9.03125 3.546875 -9.03125 C 3.335938 -9.03125 3.03125 -9.03125 2.625 -9.03125 C 2.21875 -9.039062 1.925781 -9.046875 1.75 -9.046875 C 1.707031 -8.953125 1.640625 -8.722656 1.546875 -8.359375 C 1.453125 -8.003906 1.359375 -7.691406 1.265625 -7.421875 C 1.171875 -7.148438 1.085938 -7.015625 1.015625 -7.015625 C 0.835938 -7.015625 0.679688 -7.035156 0.546875 -7.078125 C 0.421875 -7.128906 0.320312 -7.1875 0.25 -7.25 C 0.175781 -7.3125 0.125 -7.367188 0.09375 -7.421875 C 0.0625 -7.484375 0.046875 -7.53125 0.046875 -7.5625 C 0.046875 -7.71875 0.128906 -8.179688 0.296875 -8.953125 C 0.460938 -9.734375 0.578125 -10.15625 0.640625 -10.21875 C 0.648438 -10.21875 0.660156 -10.21875 0.671875 -10.21875 C 0.691406 -10.21875 0.707031 -10.21875 0.71875 -10.21875 C 2.0625 -10.101562 3.320312 -10.046875 4.5 -10.046875 C 5.675781 -10.046875 6.9375 -10.101562 8.28125 -10.21875 C 8.289062 -10.21875 8.300781 -10.21875 8.3125 -10.21875 C 8.332031 -10.21875 8.347656 -10.21875 8.359375 -10.21875 C 8.421875 -10.15625 8.535156 -9.734375 8.703125 -8.953125 C 8.867188 -8.179688 8.953125 -7.71875 8.953125 -7.5625 C 8.953125 -7.53125 8.9375 -7.484375 8.90625 -7.421875 C 8.875 -7.367188 8.820312 -7.3125 8.75 -7.25 C 8.675781 -7.1875 8.570312 -7.128906 8.4375 -7.078125 C 8.3125 -7.035156 8.160156 -7.015625 7.984375 -7.015625 C 7.910156 -7.015625 7.820312 -7.148438 7.71875 -7.421875 C 7.625 -7.691406 7.53125 -8.003906 7.4375 -8.359375 C 7.351562 -8.722656 7.289062 -8.953125 7.25 -9.046875 C 7.070312 -9.046875 6.78125 -9.039062 6.375 -9.03125 C 5.96875 -9.03125 5.660156 -9.03125 5.453125 -9.03125 C 5.378906 -9.03125 5.332031 -9.007812 5.3125 -8.96875 C 5.289062 -8.9375 5.28125 -8.878906 5.28125 -8.796875 L 5.28125 -1.796875 C 5.28125 -1.734375 5.28125 -1.679688 5.28125 -1.640625 C 5.289062 -1.597656 5.304688 -1.550781 5.328125 -1.5 C 5.359375 -1.457031 5.40625 -1.421875 5.46875 -1.390625 C 5.53125 -1.367188 5.613281 -1.359375 5.71875 -1.359375 C 5.925781 -1.359375 6.101562 -1.328125 6.25 -1.265625 C 6.40625 -1.210938 6.484375 -1.132812 6.484375 -1.03125 C 6.484375 -0.425781 6.40625 -0.0546875 6.25 0.078125 C 5.570312 0.0234375 4.992188 0 4.515625 0 C 4.035156 0 3.445312 0.0234375 2.75 0.078125 C 2.601562 -0.0546875 2.53125 -0.425781 2.53125 -1.03125 C 2.53125 -1.132812 2.601562 -1.210938 2.75 -1.265625 C 2.894531 -1.328125 3.070312 -1.359375 3.28125 -1.359375 C 3.457031 -1.359375 3.570312 -1.394531 3.625 -1.46875 C 3.6875 -1.539062 3.71875 -1.644531 3.71875 -1.78125 Z M 3.71875 -1.78125 "/></g></g></g><g fill="#ffffff" fill-opacity="1"><g transform="translate(170.35648, 22.944079)"><g><path d="M 2.890625 -9.15625 L 2.890625 -6.28125 C 3.210938 -6.625 3.597656 -6.898438 4.046875 -7.109375 C 4.492188 -7.328125 4.972656 -7.4375 5.484375 -7.4375 C 5.773438 -7.4375 6.039062 -7.382812 6.28125 -7.28125 C 6.53125 -7.1875 6.757812 -7.035156 6.96875 -6.828125 C 7.175781 -6.617188 7.335938 -6.328125 7.453125 -5.953125 C 7.566406 -5.585938 7.625 -5.15625 7.625 -4.65625 L 7.625 -1.890625 C 7.625 -1.460938 7.738281 -1.238281 7.96875 -1.21875 C 8.007812 -1.207031 8.0625 -1.195312 8.125 -1.1875 C 8.1875 -1.1875 8.238281 -1.1875 8.28125 -1.1875 C 8.320312 -1.1875 8.367188 -1.179688 8.421875 -1.171875 C 8.472656 -1.160156 8.515625 -1.148438 8.546875 -1.140625 C 8.578125 -1.140625 8.613281 -1.132812 8.65625 -1.125 C 8.695312 -1.113281 8.726562 -1.097656 8.75 -1.078125 C 8.78125 -1.066406 8.804688 -1.050781 8.828125 -1.03125 C 8.847656 -1.019531 8.863281 -1 8.875 -0.96875 C 8.882812 -0.945312 8.890625 -0.921875 8.890625 -0.890625 C 8.890625 -0.390625 8.789062 -0.078125 8.59375 0.046875 C 8.207031 0.015625 7.832031 0 7.46875 0 C 7.28125 0 7.070312 0.00390625 6.84375 0.015625 C 6.613281 0.0351562 6.441406 0.046875 6.328125 0.046875 C 6.273438 0.046875 6.234375 0.0351562 6.203125 0.015625 C 6.171875 0.00390625 6.144531 -0.03125 6.125 -0.09375 C 6.101562 -0.164062 6.09375 -0.273438 6.09375 -0.421875 L 6.09375 -4.53125 C 6.09375 -5.113281 5.988281 -5.539062 5.78125 -5.8125 C 5.582031 -6.09375 5.316406 -6.234375 4.984375 -6.234375 C 4.671875 -6.234375 4.320312 -6.132812 3.9375 -5.9375 C 3.5625 -5.75 3.210938 -5.507812 2.890625 -5.21875 L 2.890625 -1.703125 C 2.890625 -1.640625 2.890625 -1.585938 2.890625 -1.546875 C 2.898438 -1.503906 2.914062 -1.457031 2.9375 -1.40625 C 2.96875 -1.363281 3.015625 -1.328125 3.078125 -1.296875 C 3.140625 -1.273438 3.222656 -1.265625 3.328125 -1.265625 C 3.492188 -1.265625 3.632812 -1.234375 3.75 -1.171875 C 3.875 -1.117188 3.9375 -1.039062 3.9375 -0.9375 C 3.9375 -0.40625 3.863281 -0.078125 3.71875 0.046875 C 3.289062 0.015625 2.769531 0 2.15625 0 C 1.5 0 0.953125 0.015625 0.515625 0.046875 C 0.367188 -0.0859375 0.296875 -0.414062 0.296875 -0.9375 C 0.296875 -1.039062 0.351562 -1.117188 0.46875 -1.171875 C 0.59375 -1.234375 0.742188 -1.265625 0.921875 -1.265625 C 1.097656 -1.265625 1.210938 -1.300781 1.265625 -1.375 C 1.316406 -1.445312 1.34375 -1.550781 1.34375 -1.6875 L 1.34375 -8.203125 C 1.34375 -8.441406 1.273438 -8.613281 1.140625 -8.71875 C 1.003906 -8.820312 0.738281 -8.878906 0.34375 -8.890625 C 0.28125 -8.910156 0.238281 -8.941406 0.21875 -8.984375 C 0.207031 -9.023438 0.203125 -9.125 0.203125 -9.28125 C 0.203125 -9.507812 0.226562 -9.710938 0.28125 -9.890625 C 0.332031 -10.066406 0.378906 -10.164062 0.421875 -10.1875 C 0.796875 -10.144531 1.15625 -10.125 1.5 -10.125 C 1.707031 -10.125 1.921875 -10.132812 2.140625 -10.15625 C 2.367188 -10.175781 2.492188 -10.1875 2.515625 -10.1875 C 2.671875 -10.1875 2.769531 -10.144531 2.8125 -10.0625 C 2.863281 -9.988281 2.890625 -9.8125 2.890625 -9.53125 C 2.890625 -9.5 2.890625 -9.441406 2.890625 -9.359375 C 2.890625 -9.273438 2.890625 -9.207031 2.890625 -9.15625 Z M 2.890625 -9.15625 "/></g></g></g><g fill="#ffffff" fill-opacity="1"><g transform="translate(179.458384, 22.944079)"><g><path d="M 7.265625 -4.015625 C 7.265625 -3.804688 7.210938 -3.644531 7.109375 -3.53125 C 7.003906 -3.425781 6.804688 -3.375 6.515625 -3.375 L 1.828125 -3.375 C 1.847656 -2.957031 1.921875 -2.597656 2.046875 -2.296875 C 2.171875 -2.003906 2.335938 -1.769531 2.546875 -1.59375 C 2.753906 -1.425781 2.984375 -1.300781 3.234375 -1.21875 C 3.484375 -1.144531 3.753906 -1.109375 4.046875 -1.109375 C 4.460938 -1.109375 4.882812 -1.179688 5.3125 -1.328125 C 5.738281 -1.472656 6.128906 -1.675781 6.484375 -1.9375 C 6.734375 -1.632812 6.859375 -1.332031 6.859375 -1.03125 C 6.859375 -0.84375 6.726562 -0.65625 6.46875 -0.46875 C 6.21875 -0.28125 5.875 -0.125 5.4375 0 C 5 0.125 4.539062 0.1875 4.0625 0.1875 C 3.675781 0.1875 3.304688 0.144531 2.953125 0.0625 C 2.597656 -0.0078125 2.25 -0.140625 1.90625 -0.328125 C 1.570312 -0.523438 1.28125 -0.769531 1.03125 -1.0625 C 0.789062 -1.351562 0.597656 -1.726562 0.453125 -2.1875 C 0.304688 -2.65625 0.234375 -3.179688 0.234375 -3.765625 C 0.234375 -4.335938 0.335938 -4.859375 0.546875 -5.328125 C 0.765625 -5.804688 1.050781 -6.195312 1.40625 -6.5 C 1.769531 -6.800781 2.171875 -7.03125 2.609375 -7.1875 C 3.054688 -7.351562 3.515625 -7.4375 3.984375 -7.4375 C 4.328125 -7.4375 4.65625 -7.394531 4.96875 -7.3125 C 5.289062 -7.226562 5.585938 -7.09375 5.859375 -6.90625 C 6.140625 -6.726562 6.382812 -6.503906 6.59375 -6.234375 C 6.800781 -5.972656 6.960938 -5.648438 7.078125 -5.265625 C 7.203125 -4.890625 7.265625 -4.472656 7.265625 -4.015625 Z M 5.90625 -4.421875 C 5.863281 -5.046875 5.664062 -5.519531 5.3125 -5.84375 C 4.957031 -6.175781 4.53125 -6.34375 4.03125 -6.34375 C 3.507812 -6.34375 3.035156 -6.164062 2.609375 -5.8125 C 2.179688 -5.46875 1.9375 -5.003906 1.875 -4.421875 Z M 5.90625 -4.421875 "/></g></g></g><g fill="#ffffff" fill-opacity="1"><g transform="translate(186.972036, 22.944079)"><g/></g></g><g fill="#ffffff" fill-opacity="1"><g transform="translate(190.365736, 22.944079)"><g><path d="M 3.171875 -1.171875 L 5.796875 -1.171875 C 6.179688 -1.171875 6.539062 -1.242188 6.875 -1.390625 C 7.207031 -1.535156 7.492188 -1.726562 7.734375 -1.96875 C 7.972656 -2.21875 8.175781 -2.507812 8.34375 -2.84375 C 8.519531 -3.175781 8.648438 -3.53125 8.734375 -3.90625 C 8.816406 -4.28125 8.859375 -4.660156 8.859375 -5.046875 C 8.859375 -5.535156 8.785156 -6.007812 8.640625 -6.46875 C 8.492188 -6.9375 8.285156 -7.359375 8.015625 -7.734375 C 7.753906 -8.109375 7.410156 -8.410156 6.984375 -8.640625 C 6.566406 -8.867188 6.101562 -8.984375 5.59375 -8.984375 L 3.171875 -8.984375 Z M 0.765625 -10.203125 C 1.359375 -10.148438 2.191406 -10.125 3.265625 -10.125 C 3.609375 -10.125 4.039062 -10.132812 4.5625 -10.15625 C 5.082031 -10.1875 5.425781 -10.203125 5.59375 -10.203125 C 6.269531 -10.203125 6.890625 -10.101562 7.453125 -9.90625 C 8.015625 -9.71875 8.484375 -9.457031 8.859375 -9.125 C 9.242188 -8.800781 9.570312 -8.414062 9.84375 -7.96875 C 10.113281 -7.53125 10.3125 -7.066406 10.4375 -6.578125 C 10.5625 -6.097656 10.625 -5.597656 10.625 -5.078125 C 10.625 -4.546875 10.5625 -4.03125 10.4375 -3.53125 C 10.320312 -3.039062 10.132812 -2.578125 9.875 -2.140625 C 9.625 -1.703125 9.3125 -1.316406 8.9375 -0.984375 C 8.5625 -0.660156 8.101562 -0.398438 7.5625 -0.203125 C 7.03125 -0.015625 6.441406 0.078125 5.796875 0.078125 C 5.609375 0.078125 5.25 0.0625 4.71875 0.03125 C 4.195312 0.0078125 3.738281 0 3.34375 0 C 3.15625 0 2.921875 0.00390625 2.640625 0.015625 C 2.367188 0.0234375 2.046875 0.0351562 1.671875 0.046875 C 1.296875 0.0546875 0.992188 0.0664062 0.765625 0.078125 C 0.640625 0.00390625 0.546875 -0.140625 0.484375 -0.359375 C 0.429688 -0.578125 0.40625 -0.800781 0.40625 -1.03125 C 0.40625 -1.132812 0.476562 -1.210938 0.625 -1.265625 C 0.78125 -1.328125 0.960938 -1.359375 1.171875 -1.359375 C 1.347656 -1.359375 1.460938 -1.394531 1.515625 -1.46875 C 1.566406 -1.539062 1.59375 -1.644531 1.59375 -1.78125 L 1.59375 -8.34375 C 1.59375 -8.476562 1.566406 -8.582031 1.515625 -8.65625 C 1.460938 -8.726562 1.347656 -8.765625 1.171875 -8.765625 C 0.660156 -8.765625 0.40625 -8.882812 0.40625 -9.125 C 0.40625 -9.34375 0.429688 -9.5625 0.484375 -9.78125 C 0.546875 -10 0.640625 -10.140625 0.765625 -10.203125 Z M 0.765625 -10.203125 "/></g></g></g><g fill="#ffffff" fill-opacity="1"><g transform="translate(201.368111, 22.944079)"><g><path d="M 5.234375 -0.921875 C 4.910156 -0.578125 4.492188 -0.304688 3.984375 -0.109375 C 3.484375 0.0859375 2.972656 0.1875 2.453125 0.1875 C 1.804688 0.1875 1.269531 0.015625 0.84375 -0.328125 C 0.425781 -0.671875 0.21875 -1.171875 0.21875 -1.828125 C 0.21875 -2.523438 0.554688 -3.050781 1.234375 -3.40625 C 1.734375 -3.675781 2.601562 -3.910156 3.84375 -4.109375 C 4.070312 -4.148438 4.445312 -4.207031 4.96875 -4.28125 C 4.96875 -5.050781 4.867188 -5.582031 4.671875 -5.875 C 4.472656 -6.164062 4.097656 -6.3125 3.546875 -6.3125 C 3.148438 -6.3125 2.703125 -6.21875 2.203125 -6.03125 C 1.710938 -5.851562 1.320312 -5.601562 1.03125 -5.28125 C 0.65625 -5.59375 0.46875 -5.894531 0.46875 -6.1875 C 0.46875 -6.4375 0.640625 -6.660156 0.984375 -6.859375 C 1.335938 -7.054688 1.75 -7.203125 2.21875 -7.296875 C 2.695312 -7.390625 3.175781 -7.4375 3.65625 -7.4375 C 4.101562 -7.4375 4.492188 -7.378906 4.828125 -7.265625 C 5.171875 -7.160156 5.46875 -6.976562 5.71875 -6.71875 C 5.976562 -6.46875 6.175781 -6.117188 6.3125 -5.671875 C 6.445312 -5.234375 6.515625 -4.695312 6.515625 -4.0625 L 6.515625 -1.890625 C 6.515625 -1.703125 6.523438 -1.5625 6.546875 -1.46875 C 6.578125 -1.375 6.609375 -1.316406 6.640625 -1.296875 C 6.679688 -1.273438 6.742188 -1.257812 6.828125 -1.25 C 6.972656 -1.238281 7.078125 -1.226562 7.140625 -1.21875 C 7.210938 -1.207031 7.289062 -1.191406 7.375 -1.171875 C 7.46875 -1.148438 7.53125 -1.117188 7.5625 -1.078125 C 7.601562 -1.046875 7.625 -1 7.625 -0.9375 C 7.625 -0.40625 7.550781 -0.078125 7.40625 0.046875 C 7.1875 0.015625 6.90625 0 6.5625 0 C 6.238281 0 5.941406 0.015625 5.671875 0.046875 C 5.640625 0.0234375 5.597656 -0.00390625 5.546875 -0.046875 C 5.503906 -0.0859375 5.441406 -0.191406 5.359375 -0.359375 C 5.273438 -0.523438 5.234375 -0.710938 5.234375 -0.921875 Z M 2.765625 -1.03125 C 3.171875 -1.03125 3.613281 -1.144531 4.09375 -1.375 C 4.582031 -1.601562 4.875 -1.804688 4.96875 -1.984375 L 4.96875 -3.1875 C 3.726562 -2.96875 2.890625 -2.769531 2.453125 -2.59375 C 2.023438 -2.414062 1.8125 -2.164062 1.8125 -1.84375 C 1.8125 -1.300781 2.128906 -1.03125 2.765625 -1.03125 Z M 2.765625 -1.03125 "/></g></g></g><g fill="#ffffff" fill-opacity="1"><g transform="translate(209.221134, 22.944079)"><g><path d="M 3.03125 -5.609375 L 4.78125 -1.71875 L 6.28125 -5.609375 C 6.3125 -5.671875 6.328125 -5.726562 6.328125 -5.78125 C 6.328125 -5.875 6.289062 -5.9375 6.21875 -5.96875 C 6.144531 -6.007812 6.066406 -6.03125 5.984375 -6.03125 C 5.898438 -6.039062 5.820312 -6.066406 5.75 -6.109375 C 5.6875 -6.148438 5.65625 -6.222656 5.65625 -6.328125 L 5.65625 -6.375 C 5.71875 -6.976562 5.789062 -7.332031 5.875 -7.4375 C 6.320312 -7.320312 6.800781 -7.265625 7.3125 -7.265625 C 7.851562 -7.265625 8.351562 -7.320312 8.8125 -7.4375 C 8.988281 -7.351562 9.078125 -7.140625 9.078125 -6.796875 C 9.078125 -6.515625 9.019531 -6.316406 8.90625 -6.203125 C 8.800781 -6.097656 8.613281 -6.046875 8.34375 -6.046875 C 8.28125 -6.046875 8.222656 -6.035156 8.171875 -6.015625 C 8.117188 -6.003906 8.078125 -5.992188 8.046875 -5.984375 C 8.023438 -5.972656 8 -5.945312 7.96875 -5.90625 C 7.945312 -5.875 7.929688 -5.847656 7.921875 -5.828125 C 7.910156 -5.804688 7.894531 -5.769531 7.875 -5.71875 C 7.851562 -5.664062 7.835938 -5.628906 7.828125 -5.609375 L 5.109375 0.640625 C 4.847656 1.234375 4.53125 1.664062 4.15625 1.9375 C 3.789062 2.21875 3.335938 2.359375 2.796875 2.359375 C 2.378906 2.359375 2.015625 2.273438 1.703125 2.109375 C 1.398438 1.941406 1.25 1.753906 1.25 1.546875 C 1.25 1.273438 1.269531 1.09375 1.3125 1 C 1.351562 0.914062 1.4375 0.875 1.5625 0.875 C 1.601562 0.875 1.757812 0.90625 2.03125 0.96875 C 2.300781 1.03125 2.550781 1.0625 2.78125 1.0625 C 2.882812 1.0625 2.960938 1.054688 3.015625 1.046875 C 3.078125 1.046875 3.140625 1.023438 3.203125 0.984375 C 3.265625 0.941406 3.3125 0.898438 3.34375 0.859375 C 3.375 0.828125 3.421875 0.753906 3.484375 0.640625 C 3.554688 0.523438 3.613281 0.414062 3.65625 0.3125 C 3.707031 0.207031 3.785156 0.0390625 3.890625 -0.1875 C 4.003906 -0.414062 4.113281 -0.628906 4.21875 -0.828125 C 4.050781 -0.828125 3.925781 -0.84375 3.84375 -0.875 C 3.757812 -0.90625 3.695312 -0.96875 3.65625 -1.0625 L 1.484375 -5.609375 C 1.484375 -5.628906 1.46875 -5.664062 1.4375 -5.71875 C 1.414062 -5.769531 1.398438 -5.800781 1.390625 -5.8125 C 1.390625 -5.832031 1.375 -5.863281 1.34375 -5.90625 C 1.3125 -5.945312 1.28125 -5.972656 1.25 -5.984375 C 1.21875 -5.992188 1.175781 -6.003906 1.125 -6.015625 C 1.082031 -6.035156 1.03125 -6.046875 0.96875 -6.046875 C 0.695312 -6.046875 0.503906 -6.097656 0.390625 -6.203125 C 0.285156 -6.316406 0.234375 -6.515625 0.234375 -6.796875 C 0.234375 -7.140625 0.320312 -7.351562 0.5 -7.4375 C 0.914062 -7.320312 1.414062 -7.265625 2 -7.265625 C 2.601562 -7.265625 3.128906 -7.320312 3.578125 -7.4375 C 3.660156 -7.332031 3.734375 -6.976562 3.796875 -6.375 L 3.796875 -6.328125 C 3.796875 -6.222656 3.753906 -6.148438 3.671875 -6.109375 C 3.585938 -6.066406 3.492188 -6.039062 3.390625 -6.03125 C 3.296875 -6.03125 3.203125 -6.007812 3.109375 -5.96875 C 3.023438 -5.9375 2.984375 -5.875 2.984375 -5.78125 C 2.984375 -5.707031 3 -5.648438 3.03125 -5.609375 Z M 3.03125 -5.609375 "/></g></g></g><g fill="#ffffff" fill-opacity="1"><g transform="translate(218.587746, 22.944079)"><g/></g></g><g fill="#ffffff" fill-opacity="1"><g transform="translate(221.981446, 22.944079)"><g><path d="M 3.171875 -5.71875 L 5.984375 -5.71875 C 6.554688 -5.71875 7.003906 -5.875 7.328125 -6.1875 C 7.648438 -6.5 7.8125 -6.867188 7.8125 -7.296875 C 7.8125 -7.753906 7.640625 -8.148438 7.296875 -8.484375 C 6.960938 -8.816406 6.484375 -8.984375 5.859375 -8.984375 L 3.171875 -8.984375 Z M 0.765625 -10.203125 C 1.359375 -10.148438 2.191406 -10.125 3.265625 -10.125 C 3.648438 -10.125 4.128906 -10.140625 4.703125 -10.171875 C 5.285156 -10.203125 5.671875 -10.21875 5.859375 -10.21875 C 6.421875 -10.21875 6.929688 -10.132812 7.390625 -9.96875 C 7.859375 -9.8125 8.234375 -9.59375 8.515625 -9.3125 C 8.796875 -9.039062 9.007812 -8.734375 9.15625 -8.390625 C 9.3125 -8.054688 9.390625 -7.707031 9.390625 -7.34375 C 9.390625 -7.113281 9.351562 -6.878906 9.28125 -6.640625 C 9.207031 -6.410156 9.09375 -6.1875 8.9375 -5.96875 C 8.789062 -5.757812 8.613281 -5.566406 8.40625 -5.390625 C 8.207031 -5.222656 7.957031 -5.082031 7.65625 -4.96875 C 7.363281 -4.863281 7.046875 -4.800781 6.703125 -4.78125 C 7.046875 -4.675781 7.335938 -4.476562 7.578125 -4.1875 C 7.828125 -3.90625 8.015625 -3.601562 8.140625 -3.28125 C 8.265625 -2.96875 8.378906 -2.65625 8.484375 -2.34375 C 8.597656 -2.039062 8.726562 -1.789062 8.875 -1.59375 C 9.019531 -1.394531 9.203125 -1.296875 9.421875 -1.296875 C 10.066406 -1.296875 10.390625 -1.234375 10.390625 -1.109375 L 10.390625 -0.859375 C 10.390625 -0.703125 10.378906 -0.578125 10.359375 -0.484375 C 10.335938 -0.390625 10.285156 -0.289062 10.203125 -0.1875 C 10.117188 -0.0820312 9.984375 -0.00390625 9.796875 0.046875 C 9.609375 0.0976562 9.367188 0.125 9.078125 0.125 C 8.785156 0.125 8.53125 0.078125 8.3125 -0.015625 C 8.09375 -0.109375 7.910156 -0.238281 7.765625 -0.40625 C 7.628906 -0.570312 7.503906 -0.765625 7.390625 -0.984375 C 7.285156 -1.203125 7.1875 -1.429688 7.09375 -1.671875 C 7.007812 -1.921875 6.921875 -2.171875 6.828125 -2.421875 C 6.742188 -2.671875 6.640625 -2.910156 6.515625 -3.140625 C 6.390625 -3.378906 6.242188 -3.59375 6.078125 -3.78125 C 5.921875 -3.976562 5.71875 -4.144531 5.46875 -4.28125 C 5.21875 -4.425781 4.929688 -4.523438 4.609375 -4.578125 L 3.171875 -4.578125 L 3.171875 -1.796875 C 3.171875 -1.734375 3.171875 -1.679688 3.171875 -1.640625 C 3.179688 -1.597656 3.195312 -1.550781 3.21875 -1.5 C 3.25 -1.457031 3.296875 -1.421875 3.359375 -1.390625 C 3.421875 -1.367188 3.5 -1.359375 3.59375 -1.359375 C 3.800781 -1.359375 3.976562 -1.328125 4.125 -1.265625 C 4.28125 -1.210938 4.359375 -1.132812 4.359375 -1.03125 C 4.359375 -0.425781 4.285156 -0.0546875 4.140625 0.078125 C 3.453125 0.0234375 2.867188 0 2.390625 0 C 1.972656 0 1.429688 0.0234375 0.765625 0.078125 C 0.640625 0.00390625 0.546875 -0.140625 0.484375 -0.359375 C 0.429688 -0.578125 0.40625 -0.800781 0.40625 -1.03125 C 0.40625 -1.132812 0.476562 -1.210938 0.625 -1.265625 C 0.78125 -1.328125 0.960938 -1.359375 1.171875 -1.359375 C 1.347656 -1.359375 1.460938 -1.394531 1.515625 -1.46875 C 1.566406 -1.539062 1.59375 -1.644531 1.59375 -1.78125 L 1.59375 -8.34375 C 1.59375 -8.476562 1.566406 -8.582031 1.515625 -8.65625 C 1.460938 -8.726562 1.347656 -8.765625 1.171875 -8.765625 C 0.660156 -8.765625 0.40625 -8.882812 0.40625 -9.125 C 0.40625 -9.34375 0.429688 -9.5625 0.484375 -9.78125 C 0.546875 -10 0.640625 -10.140625 0.765625 -10.203125 Z M 0.765625 -10.203125 "/></g></g></g><g fill="#ffffff" fill-opacity="1"><g transform="translate(232.651239, 22.944079)"><g><path d="M 7.578125 -6.828125 L 7.578125 -1.859375 C 7.578125 -1.734375 7.578125 -1.644531 7.578125 -1.59375 C 7.585938 -1.550781 7.601562 -1.5 7.625 -1.4375 C 7.644531 -1.375 7.675781 -1.332031 7.71875 -1.3125 C 7.769531 -1.289062 7.835938 -1.269531 7.921875 -1.25 C 8.003906 -1.238281 8.113281 -1.234375 8.25 -1.234375 C 8.445312 -1.234375 8.570312 -1.207031 8.625 -1.15625 C 8.6875 -1.113281 8.71875 -1.015625 8.71875 -0.859375 C 8.71875 -0.628906 8.691406 -0.425781 8.640625 -0.25 C 8.585938 -0.0820312 8.539062 0.015625 8.5 0.046875 C 8.164062 0.015625 7.859375 0 7.578125 0 C 7.390625 0 7.191406 0.00390625 6.984375 0.015625 C 6.785156 0.0351562 6.664062 0.046875 6.625 0.046875 C 6.445312 0.046875 6.335938 -0.00390625 6.296875 -0.109375 C 6.253906 -0.210938 6.234375 -0.503906 6.234375 -0.984375 C 5.921875 -0.609375 5.539062 -0.316406 5.09375 -0.109375 C 4.644531 0.0859375 4.191406 0.1875 3.734375 0.1875 C 3.398438 0.1875 3.085938 0.128906 2.796875 0.015625 C 2.503906 -0.0976562 2.238281 -0.257812 2 -0.46875 C 1.769531 -0.6875 1.585938 -0.976562 1.453125 -1.34375 C 1.316406 -1.71875 1.25 -2.140625 1.25 -2.609375 L 1.25 -5.328125 C 1.25 -5.753906 1.132812 -5.976562 0.90625 -6 C 0.863281 -6.007812 0.8125 -6.015625 0.75 -6.015625 C 0.6875 -6.015625 0.632812 -6.015625 0.59375 -6.015625 C 0.550781 -6.023438 0.503906 -6.035156 0.453125 -6.046875 C 0.398438 -6.054688 0.359375 -6.0625 0.328125 -6.0625 C 0.296875 -6.070312 0.257812 -6.082031 0.21875 -6.09375 C 0.175781 -6.101562 0.140625 -6.113281 0.109375 -6.125 C 0.0859375 -6.144531 0.0664062 -6.160156 0.046875 -6.171875 C 0.0234375 -6.191406 0.0078125 -6.210938 0 -6.234375 C -0.0078125 -6.265625 -0.015625 -6.296875 -0.015625 -6.328125 C -0.015625 -6.847656 0.0546875 -7.175781 0.203125 -7.3125 C 0.628906 -7.269531 1.023438 -7.25 1.390625 -7.25 C 1.640625 -7.25 1.894531 -7.257812 2.15625 -7.28125 C 2.414062 -7.300781 2.546875 -7.3125 2.546875 -7.3125 C 2.703125 -7.3125 2.78125 -7.148438 2.78125 -6.828125 L 2.78125 -2.53125 C 2.78125 -2.03125 2.910156 -1.65625 3.171875 -1.40625 C 3.429688 -1.15625 3.757812 -1.03125 4.15625 -1.03125 C 4.5 -1.03125 4.84375 -1.117188 5.1875 -1.296875 C 5.53125 -1.484375 5.8125 -1.734375 6.03125 -2.046875 L 6.03125 -5.328125 C 6.03125 -5.753906 5.921875 -5.976562 5.703125 -6 C 5.660156 -6.007812 5.609375 -6.015625 5.546875 -6.015625 C 5.484375 -6.015625 5.429688 -6.015625 5.390625 -6.015625 C 5.347656 -6.023438 5.300781 -6.035156 5.25 -6.046875 C 5.195312 -6.054688 5.15625 -6.0625 5.125 -6.0625 C 5.09375 -6.070312 5.050781 -6.082031 5 -6.09375 C 4.957031 -6.101562 4.925781 -6.113281 4.90625 -6.125 C 4.882812 -6.144531 4.863281 -6.160156 4.84375 -6.171875 C 4.820312 -6.191406 4.804688 -6.210938 4.796875 -6.234375 C 4.785156 -6.265625 4.78125 -6.296875 4.78125 -6.328125 C 4.78125 -6.859375 4.851562 -7.1875 5 -7.3125 C 5.425781 -7.269531 5.816406 -7.25 6.171875 -7.25 C 6.472656 -7.25 6.78125 -7.257812 7.09375 -7.28125 C 7.40625 -7.300781 7.566406 -7.3125 7.578125 -7.3125 C 7.578125 -7.3125 7.578125 -7.148438 7.578125 -6.828125 Z M 7.578125 -6.828125 "/></g></g></g><g fill="#ffffff" fill-opacity="1"><g transform="translate(241.57667, 22.944079)"><g><path d="M 8.796875 0.046875 C 8.359375 0.015625 7.960938 0 7.609375 0 C 7.378906 0 7.125 0.00390625 6.84375 0.015625 C 6.570312 0.0351562 6.394531 0.046875 6.3125 0.046875 C 6.15625 0.046875 6.078125 -0.125 6.078125 -0.46875 L 6.078125 -4.53125 C 6.078125 -5.113281 5.984375 -5.539062 5.796875 -5.8125 C 5.609375 -6.09375 5.359375 -6.234375 5.046875 -6.234375 C 4.734375 -6.234375 4.382812 -6.144531 4 -5.96875 C 3.625 -5.789062 3.273438 -5.5625 2.953125 -5.28125 L 2.953125 -1.703125 C 2.953125 -1.640625 2.953125 -1.585938 2.953125 -1.546875 C 2.960938 -1.503906 2.976562 -1.457031 3 -1.40625 C 3.03125 -1.363281 3.078125 -1.328125 3.140625 -1.296875 C 3.203125 -1.273438 3.28125 -1.265625 3.375 -1.265625 C 3.550781 -1.265625 3.695312 -1.234375 3.8125 -1.171875 C 3.9375 -1.117188 4 -1.039062 4 -0.9375 C 4 -0.40625 3.925781 -0.078125 3.78125 0.046875 C 3.507812 0.015625 2.992188 0 2.234375 0 C 1.472656 0 0.921875 0.015625 0.578125 0.046875 C 0.429688 -0.0859375 0.359375 -0.414062 0.359375 -0.9375 C 0.359375 -1.039062 0.414062 -1.117188 0.53125 -1.171875 C 0.65625 -1.234375 0.804688 -1.265625 0.984375 -1.265625 C 1.160156 -1.265625 1.273438 -1.300781 1.328125 -1.375 C 1.378906 -1.445312 1.40625 -1.550781 1.40625 -1.6875 L 1.40625 -5.34375 C 1.40625 -5.582031 1.332031 -5.75 1.1875 -5.84375 C 1.050781 -5.945312 0.789062 -6.003906 0.40625 -6.015625 C 0.34375 -6.035156 0.300781 -6.066406 0.28125 -6.109375 C 0.269531 -6.148438 0.265625 -6.25 0.265625 -6.40625 C 0.265625 -6.632812 0.289062 -6.835938 0.34375 -7.015625 C 0.394531 -7.191406 0.441406 -7.289062 0.484375 -7.3125 C 0.785156 -7.269531 1.078125 -7.25 1.359375 -7.25 C 1.566406 -7.25 1.78125 -7.257812 2 -7.28125 C 2.226562 -7.300781 2.351562 -7.3125 2.375 -7.3125 C 2.53125 -7.3125 2.628906 -7.269531 2.671875 -7.1875 C 2.722656 -7.113281 2.75 -6.9375 2.75 -6.65625 C 2.75 -6.625 2.75 -6.566406 2.75 -6.484375 C 2.75 -6.398438 2.75 -6.332031 2.75 -6.28125 C 3.132812 -6.625 3.570312 -6.898438 4.0625 -7.109375 C 4.5625 -7.328125 5.039062 -7.4375 5.5 -7.4375 C 6.125 -7.4375 6.632812 -7.210938 7.03125 -6.765625 C 7.425781 -6.316406 7.625 -5.613281 7.625 -4.65625 L 7.625 -1.734375 C 7.625 -1.441406 7.738281 -1.285156 7.96875 -1.265625 C 8.007812 -1.253906 8.066406 -1.25 8.140625 -1.25 C 8.210938 -1.25 8.269531 -1.242188 8.3125 -1.234375 C 8.363281 -1.234375 8.421875 -1.226562 8.484375 -1.21875 C 8.546875 -1.207031 8.59375 -1.195312 8.625 -1.1875 C 8.664062 -1.1875 8.707031 -1.179688 8.75 -1.171875 C 8.800781 -1.160156 8.835938 -1.144531 8.859375 -1.125 C 8.890625 -1.113281 8.914062 -1.097656 8.9375 -1.078125 C 8.96875 -1.066406 8.988281 -1.046875 9 -1.015625 C 9.007812 -0.992188 9.015625 -0.96875 9.015625 -0.9375 C 9.015625 -0.414062 8.941406 -0.0859375 8.796875 0.046875 Z M 8.796875 0.046875 "/></g></g></g><g fill="#ffffff" fill-opacity="1"><g transform="translate(250.753236, 22.944079)"><g><path d="M 6.421875 -1.796875 C 6.421875 -1.335938 6.28125 -0.957031 6 -0.65625 C 5.726562 -0.351562 5.363281 -0.132812 4.90625 0 C 4.445312 0.125 3.90625 0.1875 3.28125 0.1875 C 2.320312 0.1875 1.570312 0.0507812 1.03125 -0.21875 C 0.488281 -0.5 0.21875 -0.925781 0.21875 -1.5 C 0.21875 -2.144531 0.613281 -2.46875 1.40625 -2.46875 C 1.53125 -2.46875 1.613281 -2.441406 1.65625 -2.390625 C 1.695312 -2.347656 1.71875 -2.253906 1.71875 -2.109375 L 1.71875 -1.1875 C 1.882812 -1.09375 2.128906 -1.019531 2.453125 -0.96875 C 2.785156 -0.925781 3.117188 -0.90625 3.453125 -0.90625 C 3.847656 -0.90625 4.175781 -0.988281 4.4375 -1.15625 C 4.695312 -1.320312 4.828125 -1.546875 4.828125 -1.828125 C 4.828125 -2.035156 4.757812 -2.21875 4.625 -2.375 C 4.5 -2.539062 4.328125 -2.671875 4.109375 -2.765625 C 3.898438 -2.867188 3.660156 -2.96875 3.390625 -3.0625 C 3.117188 -3.164062 2.835938 -3.257812 2.546875 -3.34375 C 2.265625 -3.4375 1.988281 -3.546875 1.71875 -3.671875 C 1.445312 -3.804688 1.203125 -3.953125 0.984375 -4.109375 C 0.773438 -4.265625 0.601562 -4.460938 0.46875 -4.703125 C 0.34375 -4.953125 0.28125 -5.234375 0.28125 -5.546875 C 0.28125 -5.953125 0.425781 -6.300781 0.71875 -6.59375 C 1.019531 -6.894531 1.382812 -7.109375 1.8125 -7.234375 C 2.25 -7.367188 2.71875 -7.4375 3.21875 -7.4375 C 5.238281 -7.4375 6.25 -6.847656 6.25 -5.671875 C 6.25 -5.597656 6.234375 -5.519531 6.203125 -5.4375 C 6.179688 -5.351562 6.132812 -5.253906 6.0625 -5.140625 C 6 -5.035156 5.882812 -4.945312 5.71875 -4.875 C 5.550781 -4.8125 5.347656 -4.78125 5.109375 -4.78125 C 5.066406 -4.78125 5.03125 -4.785156 5 -4.796875 C 4.96875 -4.804688 4.941406 -4.816406 4.921875 -4.828125 C 4.910156 -4.835938 4.898438 -4.851562 4.890625 -4.875 C 4.878906 -4.90625 4.875 -4.925781 4.875 -4.9375 C 4.875 -4.957031 4.867188 -4.988281 4.859375 -5.03125 C 4.847656 -5.082031 4.84375 -5.117188 4.84375 -5.140625 L 4.75 -6.09375 C 4.6875 -6.15625 4.488281 -6.222656 4.15625 -6.296875 C 3.832031 -6.378906 3.554688 -6.421875 3.328125 -6.421875 C 2.859375 -6.421875 2.507812 -6.332031 2.28125 -6.15625 C 2.0625 -5.988281 1.953125 -5.769531 1.953125 -5.5 C 1.953125 -5.3125 2.035156 -5.144531 2.203125 -5 C 2.367188 -4.851562 2.582031 -4.726562 2.84375 -4.625 C 3.101562 -4.53125 3.390625 -4.429688 3.703125 -4.328125 C 4.023438 -4.234375 4.34375 -4.113281 4.65625 -3.96875 C 4.976562 -3.832031 5.269531 -3.675781 5.53125 -3.5 C 5.789062 -3.320312 6.003906 -3.085938 6.171875 -2.796875 C 6.335938 -2.503906 6.421875 -2.171875 6.421875 -1.796875 Z M 6.421875 -1.796875 "/></g></g></g><g fill="#ffffff" fill-opacity="1"><g transform="translate(257.391313, 22.944079)"><g/></g></g><g fill="#ffffff" fill-opacity="1"><g transform="translate(260.785013, 22.944079)"><g><path d="M 5.796875 -4.015625 L 5.78125 -1.796875 C 5.78125 -1.734375 5.785156 -1.679688 5.796875 -1.640625 C 5.804688 -1.597656 5.820312 -1.550781 5.84375 -1.5 C 5.863281 -1.457031 5.90625 -1.421875 5.96875 -1.390625 C 6.039062 -1.367188 6.125 -1.359375 6.21875 -1.359375 C 6.425781 -1.359375 6.601562 -1.328125 6.75 -1.265625 C 6.90625 -1.210938 6.984375 -1.132812 6.984375 -1.03125 C 6.984375 -0.425781 6.90625 -0.0546875 6.75 0.078125 C 6.070312 0.0234375 5.492188 0 5.015625 0 C 4.546875 0 3.984375 0.0234375 3.328125 0.078125 C 3.222656 0.00390625 3.144531 -0.140625 3.09375 -0.359375 C 3.050781 -0.578125 3.03125 -0.800781 3.03125 -1.03125 C 3.03125 -1.132812 3.101562 -1.210938 3.25 -1.265625 C 3.40625 -1.328125 3.582031 -1.359375 3.78125 -1.359375 C 3.957031 -1.359375 4.070312 -1.394531 4.125 -1.46875 C 4.1875 -1.539062 4.21875 -1.644531 4.21875 -1.78125 L 4.21875 -4.015625 L 1.65625 -8.375 C 1.488281 -8.664062 1.257812 -8.8125 0.96875 -8.8125 C 0.78125 -8.8125 0.601562 -8.835938 0.4375 -8.890625 C 0.28125 -8.941406 0.171875 -9.019531 0.109375 -9.125 C 0.109375 -9.226562 0.101562 -9.382812 0.09375 -9.59375 C 0.0820312 -9.8125 0.078125 -9.960938 0.078125 -10.046875 C 0.078125 -10.140625 0.0976562 -10.195312 0.140625 -10.21875 C 0.703125 -10.1875 1.335938 -10.171875 2.046875 -10.171875 C 2.742188 -10.171875 3.320312 -10.1875 3.78125 -10.21875 C 3.789062 -10.175781 3.847656 -9.796875 3.953125 -9.078125 C 3.953125 -9.078125 3.953125 -9.070312 3.953125 -9.0625 C 3.953125 -9.050781 3.953125 -9.039062 3.953125 -9.03125 C 3.953125 -8.945312 3.878906 -8.890625 3.734375 -8.859375 C 3.585938 -8.835938 3.4375 -8.816406 3.28125 -8.796875 C 3.132812 -8.773438 3.0625 -8.726562 3.0625 -8.65625 C 3.0625 -8.601562 3.101562 -8.503906 3.1875 -8.359375 L 4.84375 -5.484375 C 4.96875 -5.273438 5.046875 -5.160156 5.078125 -5.140625 C 5.109375 -5.148438 5.179688 -5.265625 5.296875 -5.484375 C 6.054688 -6.816406 6.609375 -7.773438 6.953125 -8.359375 C 7.035156 -8.492188 7.078125 -8.59375 7.078125 -8.65625 C 7.078125 -8.726562 7 -8.773438 6.84375 -8.796875 C 6.695312 -8.816406 6.550781 -8.835938 6.40625 -8.859375 C 6.257812 -8.890625 6.1875 -8.945312 6.1875 -9.03125 C 6.1875 -9.039062 6.1875 -9.050781 6.1875 -9.0625 C 6.1875 -9.070312 6.1875 -9.078125 6.1875 -9.078125 C 6.289062 -9.796875 6.347656 -10.175781 6.359375 -10.21875 C 6.785156 -10.1875 7.316406 -10.171875 7.953125 -10.171875 C 8.660156 -10.171875 9.300781 -10.1875 9.875 -10.21875 C 9.914062 -10.195312 9.9375 -10.144531 9.9375 -10.0625 C 9.9375 -10.007812 9.925781 -9.957031 9.90625 -9.90625 L 9.90625 -9.8125 C 9.90625 -9.757812 9.90625 -9.679688 9.90625 -9.578125 C 9.914062 -9.484375 9.921875 -9.410156 9.921875 -9.359375 C 9.921875 -9.304688 9.914062 -9.226562 9.90625 -9.125 C 9.84375 -9.019531 9.726562 -8.941406 9.5625 -8.890625 C 9.40625 -8.835938 9.226562 -8.8125 9.03125 -8.8125 C 8.738281 -8.8125 8.515625 -8.664062 8.359375 -8.375 Z M 5.796875 -4.015625 "/></g></g></g><g fill="#ffffff" fill-opacity="1"><g transform="translate(270.789641, 22.944079)"><g><path d="M 0.546875 -1.96875 C 0.335938 -2.46875 0.234375 -3.019531 0.234375 -3.625 C 0.234375 -4.238281 0.335938 -4.789062 0.546875 -5.28125 C 0.765625 -5.78125 1.054688 -6.179688 1.421875 -6.484375 C 1.785156 -6.796875 2.191406 -7.03125 2.640625 -7.1875 C 3.085938 -7.351562 3.554688 -7.4375 4.046875 -7.4375 C 4.535156 -7.4375 5.003906 -7.351562 5.453125 -7.1875 C 5.898438 -7.03125 6.300781 -6.796875 6.65625 -6.484375 C 7.019531 -6.179688 7.304688 -5.78125 7.515625 -5.28125 C 7.734375 -4.789062 7.84375 -4.238281 7.84375 -3.625 C 7.84375 -3.019531 7.734375 -2.46875 7.515625 -1.96875 C 7.304688 -1.476562 7.019531 -1.078125 6.65625 -0.765625 C 6.300781 -0.460938 5.898438 -0.226562 5.453125 -0.0625 C 5.003906 0.101562 4.535156 0.1875 4.046875 0.1875 C 3.554688 0.1875 3.085938 0.101562 2.640625 -0.0625 C 2.191406 -0.226562 1.785156 -0.460938 1.421875 -0.765625 C 1.054688 -1.078125 0.765625 -1.476562 0.546875 -1.96875 Z M 2.46875 -5.578125 C 2.03125 -5.109375 1.8125 -4.457031 1.8125 -3.625 C 1.8125 -2.800781 2.03125 -2.15625 2.46875 -1.6875 C 2.914062 -1.21875 3.4375 -0.984375 4.03125 -0.984375 C 4.320312 -0.984375 4.597656 -1.035156 4.859375 -1.140625 C 5.117188 -1.253906 5.351562 -1.421875 5.5625 -1.640625 C 5.769531 -1.859375 5.9375 -2.140625 6.0625 -2.484375 C 6.195312 -2.828125 6.265625 -3.207031 6.265625 -3.625 C 6.265625 -4.050781 6.195312 -4.4375 6.0625 -4.78125 C 5.9375 -5.125 5.769531 -5.398438 5.5625 -5.609375 C 5.351562 -5.828125 5.117188 -5.992188 4.859375 -6.109375 C 4.597656 -6.222656 4.320312 -6.28125 4.03125 -6.28125 C 3.4375 -6.28125 2.914062 -6.046875 2.46875 -5.578125 Z M 2.46875 -5.578125 "/></g></g></g><g fill="#ffffff" fill-opacity="1"><g transform="translate(278.893797, 22.944079)"><g><path d="M 7.578125 -6.828125 L 7.578125 -1.859375 C 7.578125 -1.734375 7.578125 -1.644531 7.578125 -1.59375 C 7.585938 -1.550781 7.601562 -1.5 7.625 -1.4375 C 7.644531 -1.375 7.675781 -1.332031 7.71875 -1.3125 C 7.769531 -1.289062 7.835938 -1.269531 7.921875 -1.25 C 8.003906 -1.238281 8.113281 -1.234375 8.25 -1.234375 C 8.445312 -1.234375 8.570312 -1.207031 8.625 -1.15625 C 8.6875 -1.113281 8.71875 -1.015625 8.71875 -0.859375 C 8.71875 -0.628906 8.691406 -0.425781 8.640625 -0.25 C 8.585938 -0.0820312 8.539062 0.015625 8.5 0.046875 C 8.164062 0.015625 7.859375 0 7.578125 0 C 7.390625 0 7.191406 0.00390625 6.984375 0.015625 C 6.785156 0.0351562 6.664062 0.046875 6.625 0.046875 C 6.445312 0.046875 6.335938 -0.00390625 6.296875 -0.109375 C 6.253906 -0.210938 6.234375 -0.503906 6.234375 -0.984375 C 5.921875 -0.609375 5.539062 -0.316406 5.09375 -0.109375 C 4.644531 0.0859375 4.191406 0.1875 3.734375 0.1875 C 3.398438 0.1875 3.085938 0.128906 2.796875 0.015625 C 2.503906 -0.0976562 2.238281 -0.257812 2 -0.46875 C 1.769531 -0.6875 1.585938 -0.976562 1.453125 -1.34375 C 1.316406 -1.71875 1.25 -2.140625 1.25 -2.609375 L 1.25 -5.328125 C 1.25 -5.753906 1.132812 -5.976562 0.90625 -6 C 0.863281 -6.007812 0.8125 -6.015625 0.75 -6.015625 C 0.6875 -6.015625 0.632812 -6.015625 0.59375 -6.015625 C 0.550781 -6.023438 0.503906 -6.035156 0.453125 -6.046875 C 0.398438 -6.054688 0.359375 -6.0625 0.328125 -6.0625 C 0.296875 -6.070312 0.257812 -6.082031 0.21875 -6.09375 C 0.175781 -6.101562 0.140625 -6.113281 0.109375 -6.125 C 0.0859375 -6.144531 0.0664062 -6.160156 0.046875 -6.171875 C 0.0234375 -6.191406 0.0078125 -6.210938 0 -6.234375 C -0.0078125 -6.265625 -0.015625 -6.296875 -0.015625 -6.328125 C -0.015625 -6.847656 0.0546875 -7.175781 0.203125 -7.3125 C 0.628906 -7.269531 1.023438 -7.25 1.390625 -7.25 C 1.640625 -7.25 1.894531 -7.257812 2.15625 -7.28125 C 2.414062 -7.300781 2.546875 -7.3125 2.546875 -7.3125 C 2.703125 -7.3125 2.78125 -7.148438 2.78125 -6.828125 L 2.78125 -2.53125 C 2.78125 -2.03125 2.910156 -1.65625 3.171875 -1.40625 C 3.429688 -1.15625 3.757812 -1.03125 4.15625 -1.03125 C 4.5 -1.03125 4.84375 -1.117188 5.1875 -1.296875 C 5.53125 -1.484375 5.8125 -1.734375 6.03125 -2.046875 L 6.03125 -5.328125 C 6.03125 -5.753906 5.921875 -5.976562 5.703125 -6 C 5.660156 -6.007812 5.609375 -6.015625 5.546875 -6.015625 C 5.484375 -6.015625 5.429688 -6.015625 5.390625 -6.015625 C 5.347656 -6.023438 5.300781 -6.035156 5.25 -6.046875 C 5.195312 -6.054688 5.15625 -6.0625 5.125 -6.0625 C 5.09375 -6.070312 5.050781 -6.082031 5 -6.09375 C 4.957031 -6.101562 4.925781 -6.113281 4.90625 -6.125 C 4.882812 -6.144531 4.863281 -6.160156 4.84375 -6.171875 C 4.820312 -6.191406 4.804688 -6.210938 4.796875 -6.234375 C 4.785156 -6.265625 4.78125 -6.296875 4.78125 -6.328125 C 4.78125 -6.859375 4.851562 -7.1875 5 -7.3125 C 5.425781 -7.269531 5.816406 -7.25 6.171875 -7.25 C 6.472656 -7.25 6.78125 -7.257812 7.09375 -7.28125 C 7.40625 -7.300781 7.566406 -7.3125 7.578125 -7.3125 C 7.578125 -7.3125 7.578125 -7.148438 7.578125 -6.828125 Z M 7.578125 -6.828125 "/></g></g></g><g fill="#ffffff" fill-opacity="1"><g transform="translate(287.819228, 22.944079)"><g><path d="M 0.46875 -0.9375 C 0.46875 -1.25 0.570312 -1.507812 0.78125 -1.71875 C 0.988281 -1.925781 1.296875 -2.03125 1.703125 -2.03125 C 2.097656 -2.03125 2.394531 -1.921875 2.59375 -1.703125 C 2.789062 -1.492188 2.890625 -1.238281 2.890625 -0.9375 C 2.890625 -0.625 2.789062 -0.359375 2.59375 -0.140625 C 2.394531 0.0664062 2.097656 0.171875 1.703125 0.171875 C 1.296875 0.171875 0.988281 0.0664062 0.78125 -0.140625 C 0.570312 -0.359375 0.46875 -0.625 0.46875 -0.9375 Z M 0.46875 -0.9375 "/></g></g></g><g fill="#ffffff" fill-opacity="1"><g transform="translate(291.151842, 22.944079)"><g><path d="M 0.46875 -0.9375 C 0.46875 -1.25 0.570312 -1.507812 0.78125 -1.71875 C 0.988281 -1.925781 1.296875 -2.03125 1.703125 -2.03125 C 2.097656 -2.03125 2.394531 -1.921875 2.59375 -1.703125 C 2.789062 -1.492188 2.890625 -1.238281 2.890625 -0.9375 C 2.890625 -0.625 2.789062 -0.359375 2.59375 -0.140625 C 2.394531 0.0664062 2.097656 0.171875 1.703125 0.171875 C 1.296875 0.171875 0.988281 0.0664062 0.78125 -0.140625 C 0.570312 -0.359375 0.46875 -0.625 0.46875 -0.9375 Z M 0.46875 -0.9375 "/></g></g></g><g fill="#ffffff" fill-opacity="1"><g transform="translate(294.484455, 22.944079)"><g><path d="M 0.46875 -0.9375 C 0.46875 -1.25 0.570312 -1.507812 0.78125 -1.71875 C 0.988281 -1.925781 1.296875 -2.03125 1.703125 -2.03125 C 2.097656 -2.03125 2.394531 -1.921875 2.59375 -1.703125 C 2.789062 -1.492188 2.890625 -1.238281 2.890625 -0.9375 C 2.890625 -0.625 2.789062 -0.359375 2.59375 -0.140625 C 2.394531 0.0664062 2.097656 0.171875 1.703125 0.171875 C 1.296875 0.171875 0.988281 0.0664062 0.78125 -0.140625 C 0.570312 -0.359375 0.46875 -0.625 0.46875 -0.9375 Z M 0.46875 -0.9375 "/></g></g></g></svg>