<svg xmlns="http://www.w3.org/2000/svg" xmlns:xlink="http://www.w3.org/1999/xlink" width="400" zoomAndPan="magnify" viewBox="0 0 300 37.5" height="50" preserveAspectRatio="xMidYMid meet" version="1.0"><defs><g/><clipPath id="id1"><path d="M 160.980469 10.09375 L 278.660156 10.09375 L 278.660156 25.636719 L 160.980469 25.636719 Z M 160.980469 10.09375 " clip-rule="nonzero"/></clipPath><clipPath id="id2"><path d="M 5.675781 4.277344 L 12 4.277344 L 12 16 L 5.675781 16 Z M 5.675781 4.277344 " clip-rule="nonzero"/></clipPath><clipPath id="id3"><path d="M 12 5 L 18.996094 5 L 18.996094 16.121094 L 12 16.121094 Z M 12 5 " clip-rule="nonzero"/></clipPath><clipPath id="id4"><path d="M 288 3.699219 L 294.0625 3.699219 L 294.0625 15 L 288 15 Z M 288 3.699219 " clip-rule="nonzero"/></clipPath><clipPath id="id5"><path d="M 281 4 L 288 4 L 288 15.542969 L 281 15.542969 Z M 281 4 " clip-rule="nonzero"/></clipPath></defs><g clip-path="url(#id1)"><path fill="#1e3d58" d="M 162.472656 10.09375 L 277.167969 10.09375 C 277.980469 10.09375 278.640625 10.75 278.640625 11.558594 L 278.640625 24.175781 C 278.640625 24.984375 277.980469 25.636719 277.167969 25.636719 L 162.472656 25.636719 C 161.65625 25.636719 160.996094 24.984375 160.996094 24.175781 L 160.996094 11.558594 C 160.996094 10.75 161.65625 10.09375 162.472656 10.09375 " fill-opacity="1" fill-rule="nonzero"/></g><g clip-path="url(#id2)"><path fill="#ff5757" d="M 11.703125 13.441406 C 11.121094 14.703125 9.621094 15.308594 8.285156 15.101562 C 7.738281 15.015625 7.203125 14.8125 6.785156 14.441406 C 5.832031 13.609375 5.683594 12.15625 5.738281 10.867188 C 5.800781 9.480469 6.03125 8.078125 6.660156 6.851562 C 7.285156 5.628906 8.351562 4.601562 9.652344 4.277344 L 10.046875 5.738281 C 10.046875 5.738281 8.957031 6.019531 7.941406 7.859375 C 7.367188 8.90625 7.589844 10 7.589844 10 L 7.660156 9.914062 C 9.53125 8.757812 10.371094 9.515625 11.128906 10.328125 C 11.773438 11.011719 12.175781 12.421875 11.703125 13.441406 Z M 11.703125 13.441406 " fill-opacity="1" fill-rule="nonzero"/></g><g clip-path="url(#id3)"><path fill="#ff5757" d="M 18.601562 14.03125 C 18.066406 15.496094 16.90625 16 15.390625 16.085938 C 14.839844 16.121094 14.019531 15.800781 13.601562 15.433594 C 12.648438 14.59375 12.445312 12.914062 12.4375 11.625 C 12.425781 10.25 12.785156 8.5 13.414062 7.273438 C 14.011719 6.109375 14.949219 5.457031 16.164062 5.085938 C 16.265625 5.054688 16.375 5.113281 16.410156 5.21875 L 16.859375 6.511719 C 16.859375 6.511719 15.394531 6.710938 14.609375 8.289062 C 13.859375 9.800781 14.300781 10.667969 14.300781 10.667969 L 14.375 10.585938 C 16.019531 9.535156 17.054688 10.109375 17.542969 10.429688 C 18.804688 11.265625 18.988281 12.976562 18.601562 14.03125 Z M 18.601562 14.03125 " fill-opacity="1" fill-rule="nonzero"/></g><g fill="#000000" fill-opacity="1"><g transform="translate(20.354623, 22.00639)"><g><path d="M 0.6875 -9.109375 C 2.300781 -9.054688 3.390625 -9.03125 3.953125 -9.03125 C 4.335938 -9.03125 4.734375 -9.035156 5.140625 -9.046875 C 5.554688 -9.054688 5.945312 -9.066406 6.3125 -9.078125 C 6.675781 -9.097656 6.894531 -9.109375 6.96875 -9.109375 C 7.039062 -9.054688 7.164062 -8.644531 7.34375 -7.875 C 7.53125 -7.113281 7.625 -6.660156 7.625 -6.515625 C 7.625 -6.484375 7.609375 -6.441406 7.578125 -6.390625 C 7.546875 -6.335938 7.5 -6.28125 7.4375 -6.21875 C 7.375 -6.164062 7.28125 -6.117188 7.15625 -6.078125 C 7.039062 -6.035156 6.90625 -6.015625 6.75 -6.015625 C 6.695312 -6.015625 6.628906 -6.144531 6.546875 -6.40625 C 6.472656 -6.664062 6.394531 -6.960938 6.3125 -7.296875 C 6.238281 -7.640625 6.1875 -7.859375 6.15625 -7.953125 C 5.863281 -7.953125 5.367188 -7.953125 4.671875 -7.953125 C 3.984375 -7.953125 3.4375 -7.953125 3.03125 -7.953125 C 2.96875 -7.953125 2.921875 -7.925781 2.890625 -7.875 C 2.859375 -7.832031 2.835938 -7.785156 2.828125 -7.734375 C 2.828125 -7.691406 2.828125 -7.632812 2.828125 -7.5625 L 2.828125 -5.265625 C 3.054688 -5.347656 3.34375 -5.421875 3.6875 -5.484375 C 4.039062 -5.554688 4.359375 -5.59375 4.640625 -5.59375 C 4.890625 -5.59375 5.085938 -5.53125 5.234375 -5.40625 C 5.378906 -5.28125 5.453125 -5.082031 5.453125 -4.8125 C 5.453125 -4.582031 5.375 -4.390625 5.21875 -4.234375 C 5.0625 -4.085938 4.878906 -4.015625 4.671875 -4.015625 C 4.378906 -4.378906 3.960938 -4.5625 3.421875 -4.5625 C 3.253906 -4.5625 3.054688 -4.550781 2.828125 -4.53125 L 2.828125 -1.484375 C 2.828125 -1.398438 2.828125 -1.332031 2.828125 -1.28125 C 2.835938 -1.238281 2.859375 -1.191406 2.890625 -1.140625 C 2.921875 -1.097656 2.96875 -1.078125 3.03125 -1.078125 C 3.46875 -1.078125 4.054688 -1.078125 4.796875 -1.078125 C 5.546875 -1.078125 6.082031 -1.078125 6.40625 -1.078125 C 6.4375 -1.171875 6.503906 -1.410156 6.609375 -1.796875 C 6.710938 -2.191406 6.8125 -2.53125 6.90625 -2.8125 C 7.007812 -3.101562 7.101562 -3.25 7.1875 -3.25 C 7.332031 -3.25 7.460938 -3.226562 7.578125 -3.1875 C 7.703125 -3.15625 7.796875 -3.109375 7.859375 -3.046875 C 7.921875 -2.984375 7.96875 -2.925781 8 -2.875 C 8.03125 -2.832031 8.046875 -2.796875 8.046875 -2.765625 C 8.046875 -2.597656 7.9375 -2.097656 7.71875 -1.265625 C 7.5 -0.441406 7.347656 0 7.265625 0.0625 C 6.523438 0.0195312 5.421875 0 3.953125 0 C 2.671875 0 1.582031 0.0195312 0.6875 0.0625 C 0.570312 0 0.488281 -0.125 0.4375 -0.3125 C 0.382812 -0.507812 0.359375 -0.710938 0.359375 -0.921875 C 0.359375 -1.015625 0.425781 -1.085938 0.5625 -1.140625 C 0.695312 -1.191406 0.859375 -1.21875 1.046875 -1.21875 C 1.203125 -1.21875 1.300781 -1.25 1.34375 -1.3125 C 1.394531 -1.375 1.421875 -1.46875 1.421875 -1.59375 L 1.421875 -7.453125 C 1.421875 -7.578125 1.394531 -7.671875 1.34375 -7.734375 C 1.300781 -7.804688 1.203125 -7.84375 1.046875 -7.84375 C 0.585938 -7.84375 0.359375 -7.945312 0.359375 -8.15625 C 0.359375 -8.351562 0.382812 -8.546875 0.4375 -8.734375 C 0.488281 -8.929688 0.570312 -9.054688 0.6875 -9.109375 Z M 0.6875 -9.109375 "/></g></g></g><g fill="#000000" fill-opacity="1"><g transform="translate(28.384174, 22.00639)"><g><path d="M 1.625 -7.546875 C 1.53125 -7.546875 1.429688 -7.554688 1.328125 -7.578125 C 1.222656 -7.597656 1.109375 -7.628906 0.984375 -7.671875 C 0.867188 -7.722656 0.773438 -7.800781 0.703125 -7.90625 C 0.628906 -8.007812 0.59375 -8.132812 0.59375 -8.28125 C 0.59375 -8.78125 0.925781 -9.03125 1.59375 -9.03125 C 1.789062 -9.03125 1.953125 -9.003906 2.078125 -8.953125 C 2.210938 -8.910156 2.3125 -8.847656 2.375 -8.765625 C 2.4375 -8.679688 2.476562 -8.597656 2.5 -8.515625 C 2.53125 -8.441406 2.546875 -8.363281 2.546875 -8.28125 C 2.546875 -8.09375 2.488281 -7.941406 2.375 -7.828125 C 2.257812 -7.710938 2.132812 -7.632812 2 -7.59375 C 1.875 -7.5625 1.75 -7.546875 1.625 -7.546875 Z M 2.625 -5.9375 L 2.625 -1.515625 C 2.625 -1.460938 2.625 -1.414062 2.625 -1.375 C 2.632812 -1.34375 2.648438 -1.300781 2.671875 -1.25 C 2.703125 -1.207031 2.742188 -1.175781 2.796875 -1.15625 C 2.847656 -1.132812 2.921875 -1.125 3.015625 -1.125 C 3.171875 -1.125 3.300781 -1.097656 3.40625 -1.046875 C 3.519531 -1.003906 3.578125 -0.9375 3.578125 -0.84375 C 3.578125 -0.363281 3.507812 -0.0664062 3.375 0.046875 C 3.007812 0.015625 2.5625 0 2.03125 0 C 1.488281 0 0.984375 0.015625 0.515625 0.046875 C 0.378906 -0.078125 0.3125 -0.375 0.3125 -0.84375 C 0.3125 -0.9375 0.363281 -1.003906 0.46875 -1.046875 C 0.582031 -1.097656 0.71875 -1.125 0.875 -1.125 C 1.03125 -1.125 1.128906 -1.15625 1.171875 -1.21875 C 1.222656 -1.289062 1.25 -1.390625 1.25 -1.515625 L 1.25 -4.765625 C 1.25 -4.984375 1.1875 -5.132812 1.0625 -5.21875 C 0.9375 -5.3125 0.703125 -5.363281 0.359375 -5.375 C 0.296875 -5.382812 0.257812 -5.410156 0.25 -5.453125 C 0.238281 -5.492188 0.234375 -5.582031 0.234375 -5.71875 C 0.234375 -5.925781 0.253906 -6.109375 0.296875 -6.265625 C 0.335938 -6.421875 0.382812 -6.507812 0.4375 -6.53125 C 0.738281 -6.488281 1.035156 -6.46875 1.328125 -6.46875 C 1.523438 -6.46875 1.726562 -6.476562 1.9375 -6.5 C 2.15625 -6.519531 2.269531 -6.53125 2.28125 -6.53125 C 2.425781 -6.53125 2.519531 -6.492188 2.5625 -6.421875 C 2.601562 -6.359375 2.625 -6.195312 2.625 -5.9375 Z M 2.625 -5.9375 "/></g></g></g><g fill="#000000" fill-opacity="1"><g transform="translate(32.150301, 22.00639)"><g><path d="M 4.484375 -1.21875 C 4.609375 -0.988281 4.671875 -0.769531 4.671875 -0.5625 C 4.671875 -0.445312 4.617188 -0.347656 4.515625 -0.265625 C 4.421875 -0.179688 4.296875 -0.117188 4.140625 -0.078125 C 3.984375 -0.0351562 3.820312 -0.00390625 3.65625 0.015625 C 3.5 0.0351562 3.347656 0.046875 3.203125 0.046875 C 2.972656 0.046875 2.757812 0.015625 2.5625 -0.046875 C 2.375 -0.109375 2.191406 -0.210938 2.015625 -0.359375 C 1.835938 -0.515625 1.695312 -0.734375 1.59375 -1.015625 C 1.5 -1.296875 1.453125 -1.628906 1.453125 -2.015625 L 1.453125 -5.53125 L 1.1875 -5.53125 C 0.707031 -5.53125 0.445312 -5.53125 0.40625 -5.53125 C 0.269531 -5.570312 0.203125 -5.726562 0.203125 -6 C 0.203125 -6.3125 0.304688 -6.46875 0.515625 -6.46875 L 1.453125 -6.46875 C 1.460938 -6.601562 1.472656 -6.773438 1.484375 -6.984375 C 1.503906 -7.191406 1.519531 -7.351562 1.53125 -7.46875 C 1.539062 -7.59375 1.554688 -7.738281 1.578125 -7.90625 C 1.609375 -8.070312 1.644531 -8.203125 1.6875 -8.296875 C 1.738281 -8.390625 1.800781 -8.484375 1.875 -8.578125 C 1.945312 -8.671875 2.039062 -8.738281 2.15625 -8.78125 C 2.269531 -8.820312 2.410156 -8.84375 2.578125 -8.84375 C 2.679688 -8.84375 2.765625 -8.820312 2.828125 -8.78125 L 2.828125 -6.46875 L 3.640625 -6.46875 C 4.117188 -6.46875 4.367188 -6.476562 4.390625 -6.5 C 4.585938 -6.5 4.6875 -6.328125 4.6875 -5.984375 C 4.6875 -5.722656 4.625 -5.566406 4.5 -5.515625 C 4.363281 -5.523438 4.101562 -5.53125 3.71875 -5.53125 L 2.828125 -5.53125 L 2.828125 -2.046875 C 2.828125 -1.378906 3.046875 -1.046875 3.484375 -1.046875 C 3.765625 -1.046875 4.097656 -1.101562 4.484375 -1.21875 Z M 4.484375 -1.21875 "/></g></g></g><g fill="#000000" fill-opacity="1"><g transform="translate(37.111156, 22.00639)"><g><path d="M 2.578125 -8.171875 L 2.578125 -5.609375 C 2.867188 -5.910156 3.210938 -6.15625 3.609375 -6.34375 C 4.003906 -6.539062 4.429688 -6.640625 4.890625 -6.640625 C 5.148438 -6.640625 5.390625 -6.59375 5.609375 -6.5 C 5.835938 -6.414062 6.039062 -6.28125 6.21875 -6.09375 C 6.40625 -5.914062 6.550781 -5.660156 6.65625 -5.328125 C 6.757812 -4.992188 6.8125 -4.601562 6.8125 -4.15625 L 6.8125 -1.6875 C 6.8125 -1.300781 6.914062 -1.097656 7.125 -1.078125 C 7.15625 -1.078125 7.195312 -1.070312 7.25 -1.0625 C 7.3125 -1.0625 7.359375 -1.0625 7.390625 -1.0625 C 7.429688 -1.0625 7.472656 -1.054688 7.515625 -1.046875 C 7.566406 -1.035156 7.601562 -1.023438 7.625 -1.015625 C 7.65625 -1.015625 7.691406 -1.007812 7.734375 -1 C 7.773438 -0.988281 7.804688 -0.976562 7.828125 -0.96875 C 7.847656 -0.957031 7.867188 -0.941406 7.890625 -0.921875 C 7.910156 -0.910156 7.921875 -0.894531 7.921875 -0.875 C 7.929688 -0.851562 7.9375 -0.828125 7.9375 -0.796875 C 7.9375 -0.347656 7.847656 -0.0664062 7.671875 0.046875 C 7.328125 0.015625 6.992188 0 6.671875 0 C 6.503906 0 6.316406 0.00390625 6.109375 0.015625 C 5.898438 0.0351562 5.742188 0.046875 5.640625 0.046875 C 5.597656 0.046875 5.5625 0.0351562 5.53125 0.015625 C 5.507812 0.00390625 5.488281 -0.03125 5.46875 -0.09375 C 5.445312 -0.15625 5.4375 -0.25 5.4375 -0.375 L 5.4375 -4.046875 C 5.4375 -4.566406 5.347656 -4.945312 5.171875 -5.1875 C 4.992188 -5.4375 4.753906 -5.5625 4.453125 -5.5625 C 4.171875 -5.5625 3.859375 -5.476562 3.515625 -5.3125 C 3.179688 -5.144531 2.867188 -4.925781 2.578125 -4.65625 L 2.578125 -1.515625 C 2.578125 -1.460938 2.578125 -1.414062 2.578125 -1.375 C 2.585938 -1.34375 2.601562 -1.300781 2.625 -1.25 C 2.644531 -1.207031 2.679688 -1.175781 2.734375 -1.15625 C 2.796875 -1.132812 2.875 -1.125 2.96875 -1.125 C 3.125 -1.125 3.253906 -1.097656 3.359375 -1.046875 C 3.472656 -1.003906 3.53125 -0.9375 3.53125 -0.84375 C 3.53125 -0.363281 3.460938 -0.0664062 3.328125 0.046875 C 2.941406 0.015625 2.472656 0 1.921875 0 C 1.335938 0 0.851562 0.015625 0.46875 0.046875 C 0.332031 -0.078125 0.265625 -0.375 0.265625 -0.84375 C 0.265625 -0.9375 0.316406 -1.003906 0.421875 -1.046875 C 0.535156 -1.097656 0.664062 -1.125 0.8125 -1.125 C 0.976562 -1.125 1.082031 -1.15625 1.125 -1.21875 C 1.175781 -1.289062 1.203125 -1.390625 1.203125 -1.515625 L 1.203125 -7.328125 C 1.203125 -7.546875 1.140625 -7.695312 1.015625 -7.78125 C 0.890625 -7.875 0.648438 -7.929688 0.296875 -7.953125 C 0.242188 -7.960938 0.210938 -7.984375 0.203125 -8.015625 C 0.191406 -8.054688 0.1875 -8.144531 0.1875 -8.28125 C 0.1875 -8.488281 0.207031 -8.671875 0.25 -8.828125 C 0.289062 -8.984375 0.332031 -9.078125 0.375 -9.109375 C 0.71875 -9.054688 1.039062 -9.03125 1.34375 -9.03125 C 1.53125 -9.03125 1.722656 -9.039062 1.921875 -9.0625 C 2.117188 -9.09375 2.226562 -9.109375 2.25 -9.109375 C 2.382812 -9.109375 2.472656 -9.070312 2.515625 -9 C 2.554688 -8.925781 2.578125 -8.765625 2.578125 -8.515625 C 2.578125 -8.484375 2.578125 -8.429688 2.578125 -8.359375 C 2.578125 -8.285156 2.578125 -8.222656 2.578125 -8.171875 Z M 2.578125 -8.171875 "/></g></g></g><g fill="#000000" fill-opacity="1"><g transform="translate(45.243805, 22.00639)"><g><path d="M 6.5 -3.578125 C 6.5 -3.398438 6.453125 -3.257812 6.359375 -3.15625 C 6.265625 -3.0625 6.082031 -3.015625 5.8125 -3.015625 L 1.625 -3.015625 C 1.644531 -2.640625 1.710938 -2.316406 1.828125 -2.046875 C 1.941406 -1.785156 2.085938 -1.578125 2.265625 -1.421875 C 2.453125 -1.273438 2.65625 -1.164062 2.875 -1.09375 C 3.101562 -1.019531 3.347656 -0.984375 3.609375 -0.984375 C 3.984375 -0.984375 4.359375 -1.046875 4.734375 -1.171875 C 5.117188 -1.304688 5.46875 -1.492188 5.78125 -1.734375 C 6.007812 -1.460938 6.125 -1.191406 6.125 -0.921875 C 6.125 -0.753906 6.007812 -0.582031 5.78125 -0.40625 C 5.550781 -0.238281 5.238281 -0.101562 4.84375 0 C 4.457031 0.101562 4.050781 0.15625 3.625 0.15625 C 3.28125 0.15625 2.953125 0.117188 2.640625 0.046875 C 2.328125 -0.015625 2.019531 -0.128906 1.71875 -0.296875 C 1.414062 -0.472656 1.15625 -0.691406 0.9375 -0.953125 C 0.71875 -1.210938 0.539062 -1.546875 0.40625 -1.953125 C 0.269531 -2.367188 0.203125 -2.835938 0.203125 -3.359375 C 0.203125 -3.867188 0.296875 -4.335938 0.484375 -4.765625 C 0.679688 -5.191406 0.941406 -5.539062 1.265625 -5.8125 C 1.585938 -6.082031 1.941406 -6.285156 2.328125 -6.421875 C 2.722656 -6.566406 3.128906 -6.640625 3.546875 -6.640625 C 3.859375 -6.640625 4.15625 -6.601562 4.4375 -6.53125 C 4.71875 -6.457031 4.984375 -6.335938 5.234375 -6.171875 C 5.484375 -6.003906 5.703125 -5.800781 5.890625 -5.5625 C 6.078125 -5.332031 6.222656 -5.046875 6.328125 -4.703125 C 6.441406 -4.367188 6.5 -3.992188 6.5 -3.578125 Z M 5.265625 -3.953125 C 5.234375 -4.515625 5.054688 -4.941406 4.734375 -5.234375 C 4.421875 -5.523438 4.046875 -5.671875 3.609375 -5.671875 C 3.140625 -5.671875 2.710938 -5.515625 2.328125 -5.203125 C 1.941406 -4.890625 1.722656 -4.472656 1.671875 -3.953125 Z M 5.265625 -3.953125 "/></g></g></g><g fill="#000000" fill-opacity="1"><g transform="translate(51.957335, 22.00639)"><g><path d="M 2.4375 -5.9375 L 2.4375 -5.546875 C 2.625 -5.835938 2.894531 -6.09375 3.25 -6.3125 C 3.613281 -6.53125 3.957031 -6.640625 4.28125 -6.640625 C 4.5 -6.640625 4.703125 -6.601562 4.890625 -6.53125 C 5.085938 -6.457031 5.257812 -6.332031 5.40625 -6.15625 C 5.550781 -5.976562 5.625 -5.753906 5.625 -5.484375 C 5.625 -4.765625 5.238281 -4.40625 4.46875 -4.40625 C 4.457031 -4.40625 4.441406 -4.40625 4.421875 -4.40625 C 4.410156 -4.414062 4.398438 -4.425781 4.390625 -4.4375 C 4.378906 -4.445312 4.367188 -4.453125 4.359375 -4.453125 C 4.347656 -4.460938 4.335938 -4.472656 4.328125 -4.484375 C 4.328125 -4.503906 4.320312 -4.519531 4.3125 -4.53125 C 4.3125 -4.550781 4.3125 -4.570312 4.3125 -4.59375 C 4.3125 -4.625 4.304688 -4.644531 4.296875 -4.65625 C 4.296875 -4.675781 4.296875 -4.703125 4.296875 -4.734375 C 4.296875 -4.765625 4.289062 -4.785156 4.28125 -4.796875 L 4.21875 -5.4375 C 4.101562 -5.488281 3.984375 -5.515625 3.859375 -5.515625 C 3.617188 -5.515625 3.378906 -5.425781 3.140625 -5.25 C 2.910156 -5.082031 2.738281 -4.882812 2.625 -4.65625 L 2.625 -1.59375 C 2.625 -1.53125 2.625 -1.476562 2.625 -1.4375 C 2.632812 -1.40625 2.648438 -1.367188 2.671875 -1.328125 C 2.703125 -1.285156 2.742188 -1.25 2.796875 -1.21875 C 2.847656 -1.195312 2.921875 -1.1875 3.015625 -1.1875 C 3.171875 -1.1875 3.300781 -1.160156 3.40625 -1.109375 C 3.519531 -1.066406 3.578125 -1 3.578125 -0.90625 C 3.578125 -0.707031 3.539062 -0.515625 3.46875 -0.328125 C 3.40625 -0.140625 3.3125 -0.015625 3.1875 0.046875 C 2.90625 0.015625 2.488281 0 1.9375 0 C 1.394531 0 0.976562 0.015625 0.6875 0.046875 C 0.550781 -0.015625 0.453125 -0.140625 0.390625 -0.328125 C 0.335938 -0.515625 0.3125 -0.707031 0.3125 -0.90625 C 0.3125 -1 0.363281 -1.066406 0.46875 -1.109375 C 0.582031 -1.160156 0.71875 -1.1875 0.875 -1.1875 C 1.03125 -1.1875 1.128906 -1.21875 1.171875 -1.28125 C 1.222656 -1.351562 1.25 -1.453125 1.25 -1.578125 L 1.25 -4.765625 C 1.25 -4.984375 1.1875 -5.132812 1.0625 -5.21875 C 0.9375 -5.3125 0.703125 -5.363281 0.359375 -5.375 C 0.296875 -5.382812 0.257812 -5.410156 0.25 -5.453125 C 0.238281 -5.492188 0.234375 -5.582031 0.234375 -5.71875 C 0.234375 -5.925781 0.253906 -6.109375 0.296875 -6.265625 C 0.335938 -6.421875 0.382812 -6.507812 0.4375 -6.53125 C 0.71875 -6.488281 1 -6.46875 1.28125 -6.46875 C 1.445312 -6.46875 1.625 -6.476562 1.8125 -6.5 C 2 -6.519531 2.097656 -6.53125 2.109375 -6.53125 C 2.253906 -6.53125 2.34375 -6.492188 2.375 -6.421875 C 2.414062 -6.359375 2.4375 -6.195312 2.4375 -5.9375 Z M 2.4375 -5.9375 "/></g></g></g><g fill="#000000" fill-opacity="1"><g transform="translate(57.821818, 22.00639)"><g/></g></g><g fill="#000000" fill-opacity="1"><g transform="translate(60.854126, 22.00639)"><g><path d="M 2.828125 -5.109375 L 5.34375 -5.109375 C 5.851562 -5.109375 6.253906 -5.25 6.546875 -5.53125 C 6.835938 -5.8125 6.984375 -6.140625 6.984375 -6.515625 C 6.984375 -6.921875 6.828125 -7.269531 6.515625 -7.5625 C 6.210938 -7.863281 5.785156 -8.015625 5.234375 -8.015625 L 2.828125 -8.015625 Z M 0.6875 -9.109375 C 1.21875 -9.054688 1.960938 -9.03125 2.921875 -9.03125 C 3.265625 -9.03125 3.691406 -9.046875 4.203125 -9.078125 C 4.722656 -9.117188 5.066406 -9.140625 5.234375 -9.140625 C 5.742188 -9.140625 6.203125 -9.0625 6.609375 -8.90625 C 7.015625 -8.757812 7.34375 -8.5625 7.59375 -8.3125 C 7.851562 -8.070312 8.046875 -7.800781 8.171875 -7.5 C 8.304688 -7.195312 8.375 -6.882812 8.375 -6.5625 C 8.375 -6.351562 8.34375 -6.144531 8.28125 -5.9375 C 8.21875 -5.726562 8.117188 -5.523438 7.984375 -5.328125 C 7.859375 -5.140625 7.703125 -4.96875 7.515625 -4.8125 C 7.328125 -4.664062 7.101562 -4.539062 6.84375 -4.4375 C 6.582031 -4.34375 6.300781 -4.289062 6 -4.28125 C 6.300781 -4.175781 6.5625 -3.992188 6.78125 -3.734375 C 7 -3.484375 7.160156 -3.21875 7.265625 -2.9375 C 7.378906 -2.65625 7.484375 -2.375 7.578125 -2.09375 C 7.679688 -1.820312 7.796875 -1.597656 7.921875 -1.421875 C 8.054688 -1.242188 8.222656 -1.15625 8.421875 -1.15625 C 8.992188 -1.15625 9.28125 -1.101562 9.28125 -1 L 9.28125 -0.765625 C 9.28125 -0.628906 9.269531 -0.519531 9.25 -0.4375 C 9.226562 -0.351562 9.179688 -0.265625 9.109375 -0.171875 C 9.035156 -0.078125 8.914062 -0.0078125 8.75 0.03125 C 8.582031 0.0820312 8.367188 0.109375 8.109375 0.109375 C 7.847656 0.109375 7.617188 0.0664062 7.421875 -0.015625 C 7.234375 -0.0976562 7.070312 -0.210938 6.9375 -0.359375 C 6.8125 -0.515625 6.695312 -0.6875 6.59375 -0.875 C 6.5 -1.070312 6.410156 -1.28125 6.328125 -1.5 C 6.253906 -1.71875 6.175781 -1.9375 6.09375 -2.15625 C 6.019531 -2.382812 5.925781 -2.601562 5.8125 -2.8125 C 5.707031 -3.019531 5.582031 -3.207031 5.4375 -3.375 C 5.289062 -3.550781 5.101562 -3.703125 4.875 -3.828125 C 4.65625 -3.953125 4.398438 -4.039062 4.109375 -4.09375 L 2.828125 -4.09375 L 2.828125 -1.609375 C 2.828125 -1.546875 2.828125 -1.492188 2.828125 -1.453125 C 2.835938 -1.421875 2.851562 -1.382812 2.875 -1.34375 C 2.894531 -1.300781 2.929688 -1.269531 2.984375 -1.25 C 3.046875 -1.226562 3.125 -1.21875 3.21875 -1.21875 C 3.40625 -1.21875 3.5625 -1.191406 3.6875 -1.140625 C 3.820312 -1.085938 3.890625 -1.015625 3.890625 -0.921875 C 3.890625 -0.378906 3.820312 -0.0507812 3.6875 0.0625 C 3.082031 0.0195312 2.566406 0 2.140625 0 C 1.765625 0 1.28125 0.0195312 0.6875 0.0625 C 0.570312 0 0.488281 -0.125 0.4375 -0.3125 C 0.382812 -0.507812 0.359375 -0.710938 0.359375 -0.921875 C 0.359375 -1.015625 0.425781 -1.085938 0.5625 -1.140625 C 0.695312 -1.191406 0.859375 -1.21875 1.046875 -1.21875 C 1.203125 -1.21875 1.300781 -1.25 1.34375 -1.3125 C 1.394531 -1.375 1.421875 -1.46875 1.421875 -1.59375 L 1.421875 -7.453125 C 1.421875 -7.578125 1.394531 -7.671875 1.34375 -7.734375 C 1.300781 -7.804688 1.203125 -7.84375 1.046875 -7.84375 C 0.585938 -7.84375 0.359375 -7.945312 0.359375 -8.15625 C 0.359375 -8.351562 0.382812 -8.546875 0.4375 -8.734375 C 0.488281 -8.929688 0.570312 -9.054688 0.6875 -9.109375 Z M 0.6875 -9.109375 "/></g></g></g><g fill="#000000" fill-opacity="1"><g transform="translate(70.387701, 22.00639)"><g><path d="M 6.765625 -6.109375 L 6.765625 -1.65625 C 6.765625 -1.550781 6.765625 -1.472656 6.765625 -1.421875 C 6.773438 -1.378906 6.785156 -1.332031 6.796875 -1.28125 C 6.816406 -1.226562 6.847656 -1.191406 6.890625 -1.171875 C 6.941406 -1.148438 7.003906 -1.132812 7.078125 -1.125 C 7.148438 -1.113281 7.242188 -1.109375 7.359375 -1.109375 C 7.546875 -1.109375 7.660156 -1.082031 7.703125 -1.03125 C 7.753906 -0.988281 7.78125 -0.898438 7.78125 -0.765625 C 7.78125 -0.566406 7.753906 -0.390625 7.703125 -0.234375 C 7.660156 -0.078125 7.625 0.015625 7.59375 0.046875 C 7.289062 0.015625 7.015625 0 6.765625 0 C 6.597656 0 6.425781 0.00390625 6.25 0.015625 C 6.070312 0.0351562 5.960938 0.046875 5.921875 0.046875 C 5.753906 0.046875 5.65625 0 5.625 -0.09375 C 5.59375 -0.195312 5.578125 -0.457031 5.578125 -0.875 C 5.296875 -0.539062 4.953125 -0.285156 4.546875 -0.109375 C 4.148438 0.0664062 3.75 0.15625 3.34375 0.15625 C 3.039062 0.15625 2.757812 0.101562 2.5 0 C 2.238281 -0.09375 2 -0.234375 1.78125 -0.421875 C 1.570312 -0.617188 1.40625 -0.878906 1.28125 -1.203125 C 1.164062 -1.535156 1.109375 -1.910156 1.109375 -2.328125 L 1.109375 -4.765625 C 1.109375 -5.148438 1.007812 -5.347656 0.8125 -5.359375 C 0.78125 -5.367188 0.734375 -5.375 0.671875 -5.375 C 0.609375 -5.375 0.5625 -5.375 0.53125 -5.375 C 0.5 -5.382812 0.457031 -5.390625 0.40625 -5.390625 C 0.351562 -5.398438 0.3125 -5.40625 0.28125 -5.40625 C 0.257812 -5.414062 0.226562 -5.425781 0.1875 -5.4375 C 0.15625 -5.445312 0.128906 -5.457031 0.109375 -5.46875 C 0.0859375 -5.488281 0.0664062 -5.503906 0.046875 -5.515625 C 0.0234375 -5.535156 0.0078125 -5.554688 0 -5.578125 C -0.0078125 -5.597656 -0.015625 -5.625 -0.015625 -5.65625 C -0.015625 -6.125 0.0507812 -6.414062 0.1875 -6.53125 C 0.570312 -6.488281 0.921875 -6.46875 1.234375 -6.46875 C 1.460938 -6.46875 1.691406 -6.476562 1.921875 -6.5 C 2.148438 -6.519531 2.269531 -6.53125 2.28125 -6.53125 C 2.414062 -6.53125 2.484375 -6.390625 2.484375 -6.109375 L 2.484375 -2.25 C 2.484375 -1.8125 2.597656 -1.476562 2.828125 -1.25 C 3.054688 -1.03125 3.351562 -0.921875 3.71875 -0.921875 C 4.019531 -0.921875 4.320312 -1 4.625 -1.15625 C 4.9375 -1.320312 5.191406 -1.546875 5.390625 -1.828125 L 5.390625 -4.765625 C 5.390625 -5.148438 5.289062 -5.347656 5.09375 -5.359375 C 5.0625 -5.367188 5.015625 -5.375 4.953125 -5.375 C 4.890625 -5.375 4.84375 -5.375 4.8125 -5.375 C 4.78125 -5.382812 4.738281 -5.390625 4.6875 -5.390625 C 4.632812 -5.398438 4.59375 -5.40625 4.5625 -5.40625 C 4.539062 -5.414062 4.507812 -5.425781 4.46875 -5.4375 C 4.4375 -5.445312 4.410156 -5.457031 4.390625 -5.46875 C 4.367188 -5.488281 4.347656 -5.503906 4.328125 -5.515625 C 4.304688 -5.535156 4.289062 -5.554688 4.28125 -5.578125 C 4.269531 -5.597656 4.265625 -5.625 4.265625 -5.65625 C 4.265625 -6.125 4.332031 -6.414062 4.46875 -6.53125 C 4.851562 -6.488281 5.203125 -6.46875 5.515625 -6.46875 C 5.785156 -6.46875 6.054688 -6.476562 6.328125 -6.5 C 6.609375 -6.519531 6.753906 -6.53125 6.765625 -6.53125 C 6.765625 -6.53125 6.765625 -6.390625 6.765625 -6.109375 Z M 6.765625 -6.109375 "/></g></g></g><g fill="#000000" fill-opacity="1"><g transform="translate(78.362671, 22.00639)"><g><path d="M 7.859375 0.046875 C 7.460938 0.015625 7.109375 0 6.796875 0 C 6.585938 0 6.359375 0.00390625 6.109375 0.015625 C 5.867188 0.0351562 5.710938 0.046875 5.640625 0.046875 C 5.503906 0.046875 5.4375 -0.101562 5.4375 -0.40625 L 5.4375 -4.046875 C 5.4375 -4.566406 5.347656 -4.945312 5.171875 -5.1875 C 5.003906 -5.4375 4.785156 -5.5625 4.515625 -5.5625 C 4.234375 -5.5625 3.921875 -5.484375 3.578125 -5.328125 C 3.242188 -5.171875 2.925781 -4.96875 2.625 -4.71875 L 2.625 -1.515625 C 2.625 -1.460938 2.628906 -1.414062 2.640625 -1.375 C 2.648438 -1.34375 2.664062 -1.300781 2.6875 -1.25 C 2.707031 -1.207031 2.742188 -1.175781 2.796875 -1.15625 C 2.859375 -1.132812 2.929688 -1.125 3.015625 -1.125 C 3.171875 -1.125 3.300781 -1.097656 3.40625 -1.046875 C 3.519531 -1.003906 3.578125 -0.9375 3.578125 -0.84375 C 3.578125 -0.363281 3.507812 -0.0664062 3.375 0.046875 C 3.132812 0.015625 2.671875 0 1.984375 0 C 1.304688 0 0.816406 0.015625 0.515625 0.046875 C 0.378906 -0.078125 0.3125 -0.375 0.3125 -0.84375 C 0.3125 -0.9375 0.363281 -1.003906 0.46875 -1.046875 C 0.582031 -1.097656 0.71875 -1.125 0.875 -1.125 C 1.03125 -1.125 1.128906 -1.15625 1.171875 -1.21875 C 1.222656 -1.289062 1.25 -1.390625 1.25 -1.515625 L 1.25 -4.765625 C 1.25 -4.984375 1.1875 -5.132812 1.0625 -5.21875 C 0.945312 -5.3125 0.710938 -5.363281 0.359375 -5.375 C 0.304688 -5.382812 0.269531 -5.410156 0.25 -5.453125 C 0.238281 -5.492188 0.234375 -5.582031 0.234375 -5.71875 C 0.234375 -5.925781 0.253906 -6.109375 0.296875 -6.265625 C 0.347656 -6.421875 0.394531 -6.507812 0.4375 -6.53125 C 0.707031 -6.488281 0.96875 -6.46875 1.21875 -6.46875 C 1.394531 -6.46875 1.582031 -6.476562 1.78125 -6.5 C 1.988281 -6.519531 2.097656 -6.53125 2.109375 -6.53125 C 2.253906 -6.53125 2.347656 -6.492188 2.390625 -6.421875 C 2.429688 -6.359375 2.453125 -6.195312 2.453125 -5.9375 C 2.453125 -5.914062 2.453125 -5.863281 2.453125 -5.78125 C 2.453125 -5.707031 2.453125 -5.648438 2.453125 -5.609375 C 2.796875 -5.921875 3.1875 -6.171875 3.625 -6.359375 C 4.070312 -6.546875 4.5 -6.640625 4.90625 -6.640625 C 5.46875 -6.640625 5.925781 -6.4375 6.28125 -6.03125 C 6.632812 -5.632812 6.8125 -5.007812 6.8125 -4.15625 L 6.8125 -1.546875 C 6.8125 -1.285156 6.910156 -1.144531 7.109375 -1.125 C 7.148438 -1.125 7.203125 -1.117188 7.265625 -1.109375 C 7.335938 -1.109375 7.390625 -1.101562 7.421875 -1.09375 C 7.460938 -1.09375 7.507812 -1.085938 7.5625 -1.078125 C 7.625 -1.078125 7.671875 -1.070312 7.703125 -1.0625 C 7.734375 -1.0625 7.769531 -1.054688 7.8125 -1.046875 C 7.863281 -1.035156 7.898438 -1.023438 7.921875 -1.015625 C 7.941406 -1.003906 7.960938 -0.988281 7.984375 -0.96875 C 8.015625 -0.957031 8.035156 -0.9375 8.046875 -0.90625 C 8.054688 -0.882812 8.0625 -0.863281 8.0625 -0.84375 C 8.0625 -0.375 7.992188 -0.078125 7.859375 0.046875 Z M 7.859375 0.046875 "/></g></g></g><g fill="#000000" fill-opacity="1"><g transform="translate(86.562031, 22.00639)"><g/></g></g><g fill="#000000" fill-opacity="1"><g transform="translate(89.594339, 22.00639)"><g><path d="M 3.3125 -1.59375 L 3.3125 -7.859375 C 3.3125 -7.898438 3.3125 -7.929688 3.3125 -7.953125 C 3.3125 -7.984375 3.296875 -8.007812 3.265625 -8.03125 C 3.242188 -8.0625 3.210938 -8.078125 3.171875 -8.078125 C 2.984375 -8.078125 2.707031 -8.078125 2.34375 -8.078125 C 1.976562 -8.078125 1.71875 -8.078125 1.5625 -8.078125 C 1.53125 -7.992188 1.472656 -7.789062 1.390625 -7.46875 C 1.304688 -7.15625 1.21875 -6.875 1.125 -6.625 C 1.039062 -6.382812 0.96875 -6.265625 0.90625 -6.265625 C 0.75 -6.265625 0.609375 -6.285156 0.484375 -6.328125 C 0.367188 -6.367188 0.28125 -6.414062 0.21875 -6.46875 C 0.15625 -6.53125 0.109375 -6.585938 0.078125 -6.640625 C 0.046875 -6.691406 0.03125 -6.726562 0.03125 -6.75 C 0.03125 -6.894531 0.101562 -7.3125 0.25 -8 C 0.40625 -8.695312 0.507812 -9.078125 0.5625 -9.140625 C 0.582031 -9.140625 0.597656 -9.132812 0.609375 -9.125 C 0.617188 -9.125 0.628906 -9.125 0.640625 -9.125 C 1.835938 -9.03125 2.960938 -8.984375 4.015625 -8.984375 C 5.066406 -8.984375 6.191406 -9.03125 7.390625 -9.125 C 7.398438 -9.125 7.410156 -9.125 7.421875 -9.125 C 7.441406 -9.132812 7.457031 -9.140625 7.46875 -9.140625 C 7.519531 -9.078125 7.617188 -8.695312 7.765625 -8 C 7.921875 -7.3125 8 -6.894531 8 -6.75 C 8 -6.726562 7.984375 -6.691406 7.953125 -6.640625 C 7.921875 -6.585938 7.875 -6.53125 7.8125 -6.46875 C 7.75 -6.414062 7.65625 -6.367188 7.53125 -6.328125 C 7.414062 -6.285156 7.285156 -6.265625 7.140625 -6.265625 C 7.066406 -6.265625 6.988281 -6.382812 6.90625 -6.625 C 6.820312 -6.875 6.738281 -7.15625 6.65625 -7.46875 C 6.570312 -7.789062 6.507812 -7.992188 6.46875 -8.078125 C 6.3125 -8.078125 6.050781 -8.078125 5.6875 -8.078125 C 5.332031 -8.078125 5.054688 -8.078125 4.859375 -8.078125 C 4.796875 -8.078125 4.753906 -8.054688 4.734375 -8.015625 C 4.722656 -7.984375 4.71875 -7.929688 4.71875 -7.859375 L 4.71875 -1.609375 C 4.71875 -1.546875 4.71875 -1.492188 4.71875 -1.453125 C 4.726562 -1.421875 4.742188 -1.382812 4.765625 -1.34375 C 4.785156 -1.300781 4.820312 -1.269531 4.875 -1.25 C 4.9375 -1.226562 5.015625 -1.21875 5.109375 -1.21875 C 5.296875 -1.21875 5.453125 -1.191406 5.578125 -1.140625 C 5.710938 -1.085938 5.78125 -1.015625 5.78125 -0.921875 C 5.78125 -0.378906 5.71875 -0.0507812 5.59375 0.0625 C 4.976562 0.0195312 4.457031 0 4.03125 0 C 3.601562 0 3.078125 0.0195312 2.453125 0.0625 C 2.316406 -0.0507812 2.25 -0.378906 2.25 -0.921875 C 2.25 -1.015625 2.316406 -1.085938 2.453125 -1.140625 C 2.585938 -1.191406 2.75 -1.21875 2.9375 -1.21875 C 3.09375 -1.21875 3.191406 -1.25 3.234375 -1.3125 C 3.285156 -1.375 3.3125 -1.46875 3.3125 -1.59375 Z M 3.3125 -1.59375 "/></g></g></g><g fill="#000000" fill-opacity="1"><g transform="translate(97.636019, 22.00639)"><g><path d="M 2.578125 -8.171875 L 2.578125 -5.609375 C 2.867188 -5.910156 3.210938 -6.15625 3.609375 -6.34375 C 4.003906 -6.539062 4.429688 -6.640625 4.890625 -6.640625 C 5.148438 -6.640625 5.390625 -6.59375 5.609375 -6.5 C 5.835938 -6.414062 6.039062 -6.28125 6.21875 -6.09375 C 6.40625 -5.914062 6.550781 -5.660156 6.65625 -5.328125 C 6.757812 -4.992188 6.8125 -4.601562 6.8125 -4.15625 L 6.8125 -1.6875 C 6.8125 -1.300781 6.914062 -1.097656 7.125 -1.078125 C 7.15625 -1.078125 7.195312 -1.070312 7.25 -1.0625 C 7.3125 -1.0625 7.359375 -1.0625 7.390625 -1.0625 C 7.429688 -1.0625 7.472656 -1.054688 7.515625 -1.046875 C 7.566406 -1.035156 7.601562 -1.023438 7.625 -1.015625 C 7.65625 -1.015625 7.691406 -1.007812 7.734375 -1 C 7.773438 -0.988281 7.804688 -0.976562 7.828125 -0.96875 C 7.847656 -0.957031 7.867188 -0.941406 7.890625 -0.921875 C 7.910156 -0.910156 7.921875 -0.894531 7.921875 -0.875 C 7.929688 -0.851562 7.9375 -0.828125 7.9375 -0.796875 C 7.9375 -0.347656 7.847656 -0.0664062 7.671875 0.046875 C 7.328125 0.015625 6.992188 0 6.671875 0 C 6.503906 0 6.316406 0.00390625 6.109375 0.015625 C 5.898438 0.0351562 5.742188 0.046875 5.640625 0.046875 C 5.597656 0.046875 5.5625 0.0351562 5.53125 0.015625 C 5.507812 0.00390625 5.488281 -0.03125 5.46875 -0.09375 C 5.445312 -0.15625 5.4375 -0.25 5.4375 -0.375 L 5.4375 -4.046875 C 5.4375 -4.566406 5.347656 -4.945312 5.171875 -5.1875 C 4.992188 -5.4375 4.753906 -5.5625 4.453125 -5.5625 C 4.171875 -5.5625 3.859375 -5.476562 3.515625 -5.3125 C 3.179688 -5.144531 2.867188 -4.925781 2.578125 -4.65625 L 2.578125 -1.515625 C 2.578125 -1.460938 2.578125 -1.414062 2.578125 -1.375 C 2.585938 -1.34375 2.601562 -1.300781 2.625 -1.25 C 2.644531 -1.207031 2.679688 -1.175781 2.734375 -1.15625 C 2.796875 -1.132812 2.875 -1.125 2.96875 -1.125 C 3.125 -1.125 3.253906 -1.097656 3.359375 -1.046875 C 3.472656 -1.003906 3.53125 -0.9375 3.53125 -0.84375 C 3.53125 -0.363281 3.460938 -0.0664062 3.328125 0.046875 C 2.941406 0.015625 2.472656 0 1.921875 0 C 1.335938 0 0.851562 0.015625 0.46875 0.046875 C 0.332031 -0.078125 0.265625 -0.375 0.265625 -0.84375 C 0.265625 -0.9375 0.316406 -1.003906 0.421875 -1.046875 C 0.535156 -1.097656 0.664062 -1.125 0.8125 -1.125 C 0.976562 -1.125 1.082031 -1.15625 1.125 -1.21875 C 1.175781 -1.289062 1.203125 -1.390625 1.203125 -1.515625 L 1.203125 -7.328125 C 1.203125 -7.546875 1.140625 -7.695312 1.015625 -7.78125 C 0.890625 -7.875 0.648438 -7.929688 0.296875 -7.953125 C 0.242188 -7.960938 0.210938 -7.984375 0.203125 -8.015625 C 0.191406 -8.054688 0.1875 -8.144531 0.1875 -8.28125 C 0.1875 -8.488281 0.207031 -8.671875 0.25 -8.828125 C 0.289062 -8.984375 0.332031 -9.078125 0.375 -9.109375 C 0.71875 -9.054688 1.039062 -9.03125 1.34375 -9.03125 C 1.53125 -9.03125 1.722656 -9.039062 1.921875 -9.0625 C 2.117188 -9.09375 2.226562 -9.109375 2.25 -9.109375 C 2.382812 -9.109375 2.472656 -9.070312 2.515625 -9 C 2.554688 -8.925781 2.578125 -8.765625 2.578125 -8.515625 C 2.578125 -8.484375 2.578125 -8.429688 2.578125 -8.359375 C 2.578125 -8.285156 2.578125 -8.222656 2.578125 -8.171875 Z M 2.578125 -8.171875 "/></g></g></g><g fill="#000000" fill-opacity="1"><g transform="translate(105.768668, 22.00639)"><g><path d="M 6.5 -3.578125 C 6.5 -3.398438 6.453125 -3.257812 6.359375 -3.15625 C 6.265625 -3.0625 6.082031 -3.015625 5.8125 -3.015625 L 1.625 -3.015625 C 1.644531 -2.640625 1.710938 -2.316406 1.828125 -2.046875 C 1.941406 -1.785156 2.085938 -1.578125 2.265625 -1.421875 C 2.453125 -1.273438 2.65625 -1.164062 2.875 -1.09375 C 3.101562 -1.019531 3.347656 -0.984375 3.609375 -0.984375 C 3.984375 -0.984375 4.359375 -1.046875 4.734375 -1.171875 C 5.117188 -1.304688 5.46875 -1.492188 5.78125 -1.734375 C 6.007812 -1.460938 6.125 -1.191406 6.125 -0.921875 C 6.125 -0.753906 6.007812 -0.582031 5.78125 -0.40625 C 5.550781 -0.238281 5.238281 -0.101562 4.84375 0 C 4.457031 0.101562 4.050781 0.15625 3.625 0.15625 C 3.28125 0.15625 2.953125 0.117188 2.640625 0.046875 C 2.328125 -0.015625 2.019531 -0.128906 1.71875 -0.296875 C 1.414062 -0.472656 1.15625 -0.691406 0.9375 -0.953125 C 0.71875 -1.210938 0.539062 -1.546875 0.40625 -1.953125 C 0.269531 -2.367188 0.203125 -2.835938 0.203125 -3.359375 C 0.203125 -3.867188 0.296875 -4.335938 0.484375 -4.765625 C 0.679688 -5.191406 0.941406 -5.539062 1.265625 -5.8125 C 1.585938 -6.082031 1.941406 -6.285156 2.328125 -6.421875 C 2.722656 -6.566406 3.128906 -6.640625 3.546875 -6.640625 C 3.859375 -6.640625 4.15625 -6.601562 4.4375 -6.53125 C 4.71875 -6.457031 4.984375 -6.335938 5.234375 -6.171875 C 5.484375 -6.003906 5.703125 -5.800781 5.890625 -5.5625 C 6.078125 -5.332031 6.222656 -5.046875 6.328125 -4.703125 C 6.441406 -4.367188 6.5 -3.992188 6.5 -3.578125 Z M 5.265625 -3.953125 C 5.234375 -4.515625 5.054688 -4.941406 4.734375 -5.234375 C 4.421875 -5.523438 4.046875 -5.671875 3.609375 -5.671875 C 3.140625 -5.671875 2.710938 -5.515625 2.328125 -5.203125 C 1.941406 -4.890625 1.722656 -4.472656 1.671875 -3.953125 Z M 5.265625 -3.953125 "/></g></g></g><g fill="#000000" fill-opacity="1"><g transform="translate(112.482198, 22.00639)"><g/></g></g><g fill="#000000" fill-opacity="1"><g transform="translate(115.514505, 22.00639)"><g><path d="M 2.828125 -1.046875 L 5.1875 -1.046875 C 5.53125 -1.046875 5.847656 -1.109375 6.140625 -1.234375 C 6.441406 -1.367188 6.695312 -1.546875 6.90625 -1.765625 C 7.125 -1.984375 7.304688 -2.238281 7.453125 -2.53125 C 7.609375 -2.832031 7.722656 -3.148438 7.796875 -3.484375 C 7.867188 -3.816406 7.90625 -4.15625 7.90625 -4.5 C 7.90625 -4.945312 7.84375 -5.375 7.71875 -5.78125 C 7.59375 -6.195312 7.410156 -6.570312 7.171875 -6.90625 C 6.929688 -7.238281 6.625 -7.503906 6.25 -7.703125 C 5.875 -7.910156 5.457031 -8.015625 5 -8.015625 L 2.828125 -8.015625 Z M 0.6875 -9.109375 C 1.21875 -9.054688 1.960938 -9.03125 2.921875 -9.03125 C 3.222656 -9.03125 3.609375 -9.039062 4.078125 -9.0625 C 4.546875 -9.09375 4.851562 -9.109375 5 -9.109375 C 5.601562 -9.109375 6.15625 -9.019531 6.65625 -8.84375 C 7.15625 -8.675781 7.578125 -8.445312 7.921875 -8.15625 C 8.265625 -7.863281 8.554688 -7.519531 8.796875 -7.125 C 9.035156 -6.726562 9.207031 -6.3125 9.3125 -5.875 C 9.425781 -5.445312 9.484375 -5 9.484375 -4.53125 C 9.484375 -4.0625 9.429688 -3.601562 9.328125 -3.15625 C 9.222656 -2.71875 9.054688 -2.300781 8.828125 -1.90625 C 8.597656 -1.519531 8.316406 -1.179688 7.984375 -0.890625 C 7.648438 -0.597656 7.242188 -0.363281 6.765625 -0.1875 C 6.285156 -0.0195312 5.757812 0.0625 5.1875 0.0625 C 5.007812 0.0625 4.6875 0.0507812 4.21875 0.03125 C 3.757812 0.0078125 3.347656 0 2.984375 0 C 2.816406 0 2.609375 0.00390625 2.359375 0.015625 C 2.117188 0.0234375 1.832031 0.0351562 1.5 0.046875 C 1.164062 0.0546875 0.894531 0.0625 0.6875 0.0625 C 0.570312 0 0.488281 -0.125 0.4375 -0.3125 C 0.382812 -0.507812 0.359375 -0.710938 0.359375 -0.921875 C 0.359375 -1.015625 0.425781 -1.085938 0.5625 -1.140625 C 0.695312 -1.191406 0.859375 -1.21875 1.046875 -1.21875 C 1.203125 -1.21875 1.300781 -1.25 1.34375 -1.3125 C 1.394531 -1.375 1.421875 -1.46875 1.421875 -1.59375 L 1.421875 -7.453125 C 1.421875 -7.578125 1.394531 -7.671875 1.34375 -7.734375 C 1.300781 -7.804688 1.203125 -7.84375 1.046875 -7.84375 C 0.585938 -7.84375 0.359375 -7.945312 0.359375 -8.15625 C 0.359375 -8.351562 0.382812 -8.546875 0.4375 -8.734375 C 0.488281 -8.929688 0.570312 -9.054688 0.6875 -9.109375 Z M 0.6875 -9.109375 "/></g></g></g><g fill="#000000" fill-opacity="1"><g transform="translate(125.345247, 22.00639)"><g><path d="M 4.6875 -0.828125 C 4.382812 -0.515625 4.007812 -0.269531 3.5625 -0.09375 C 3.113281 0.0703125 2.65625 0.15625 2.1875 0.15625 C 1.613281 0.15625 1.132812 0.00390625 0.75 -0.296875 C 0.375 -0.609375 0.1875 -1.050781 0.1875 -1.625 C 0.1875 -2.25 0.488281 -2.71875 1.09375 -3.03125 C 1.550781 -3.28125 2.328125 -3.492188 3.421875 -3.671875 C 3.628906 -3.703125 3.96875 -3.753906 4.4375 -3.828125 C 4.4375 -4.515625 4.347656 -4.988281 4.171875 -5.25 C 3.992188 -5.507812 3.660156 -5.640625 3.171875 -5.640625 C 2.804688 -5.640625 2.40625 -5.554688 1.96875 -5.390625 C 1.53125 -5.234375 1.179688 -5.007812 0.921875 -4.71875 C 0.585938 -4.988281 0.421875 -5.257812 0.421875 -5.53125 C 0.421875 -5.75 0.578125 -5.945312 0.890625 -6.125 C 1.203125 -6.300781 1.566406 -6.429688 1.984375 -6.515625 C 2.410156 -6.597656 2.835938 -6.640625 3.265625 -6.640625 C 3.660156 -6.640625 4.007812 -6.585938 4.3125 -6.484375 C 4.613281 -6.390625 4.878906 -6.226562 5.109375 -6 C 5.335938 -5.78125 5.507812 -5.46875 5.625 -5.0625 C 5.75 -4.664062 5.8125 -4.1875 5.8125 -3.625 L 5.8125 -1.6875 C 5.8125 -1.519531 5.820312 -1.394531 5.84375 -1.3125 C 5.875 -1.226562 5.90625 -1.175781 5.9375 -1.15625 C 5.976562 -1.144531 6.035156 -1.132812 6.109375 -1.125 C 6.234375 -1.113281 6.320312 -1.101562 6.375 -1.09375 C 6.4375 -1.082031 6.507812 -1.066406 6.59375 -1.046875 C 6.675781 -1.023438 6.734375 -1 6.765625 -0.96875 C 6.796875 -0.9375 6.8125 -0.894531 6.8125 -0.84375 C 6.8125 -0.363281 6.75 -0.0664062 6.625 0.046875 C 6.425781 0.015625 6.171875 0 5.859375 0 C 5.578125 0 5.316406 0.015625 5.078125 0.046875 C 5.046875 0.0234375 5.007812 0 4.96875 -0.03125 C 4.925781 -0.0703125 4.867188 -0.164062 4.796875 -0.3125 C 4.722656 -0.46875 4.6875 -0.640625 4.6875 -0.828125 Z M 2.46875 -0.921875 C 2.832031 -0.921875 3.226562 -1.019531 3.65625 -1.21875 C 4.09375 -1.425781 4.351562 -1.613281 4.4375 -1.78125 L 4.4375 -2.84375 C 3.332031 -2.644531 2.585938 -2.46875 2.203125 -2.3125 C 1.816406 -2.15625 1.625 -1.9375 1.625 -1.65625 C 1.625 -1.164062 1.90625 -0.921875 2.46875 -0.921875 Z M 2.46875 -0.921875 "/></g></g></g><g fill="#000000" fill-opacity="1"><g transform="translate(132.362007, 22.00639)"><g><path d="M 2.703125 -5 L 4.265625 -1.53125 L 5.609375 -5 C 5.628906 -5.0625 5.640625 -5.117188 5.640625 -5.171875 C 5.640625 -5.242188 5.609375 -5.296875 5.546875 -5.328125 C 5.484375 -5.367188 5.414062 -5.390625 5.34375 -5.390625 C 5.269531 -5.398438 5.203125 -5.421875 5.140625 -5.453125 C 5.078125 -5.492188 5.046875 -5.554688 5.046875 -5.640625 L 5.046875 -5.6875 C 5.109375 -6.226562 5.175781 -6.546875 5.25 -6.640625 C 5.644531 -6.535156 6.070312 -6.484375 6.53125 -6.484375 C 7.019531 -6.484375 7.46875 -6.535156 7.875 -6.640625 C 8.03125 -6.566406 8.109375 -6.375 8.109375 -6.0625 C 8.109375 -5.820312 8.054688 -5.648438 7.953125 -5.546875 C 7.859375 -5.441406 7.691406 -5.390625 7.453125 -5.390625 C 7.398438 -5.390625 7.347656 -5.382812 7.296875 -5.375 C 7.253906 -5.363281 7.21875 -5.351562 7.1875 -5.34375 C 7.164062 -5.332031 7.140625 -5.3125 7.109375 -5.28125 C 7.085938 -5.25 7.070312 -5.222656 7.0625 -5.203125 C 7.0625 -5.179688 7.050781 -5.148438 7.03125 -5.109375 C 7.007812 -5.066406 7 -5.035156 7 -5.015625 L 4.5625 0.578125 C 4.320312 1.109375 4.035156 1.492188 3.703125 1.734375 C 3.378906 1.984375 2.976562 2.109375 2.5 2.109375 C 2.125 2.109375 1.796875 2.03125 1.515625 1.875 C 1.242188 1.726562 1.109375 1.566406 1.109375 1.390625 C 1.109375 1.148438 1.128906 0.988281 1.171875 0.90625 C 1.210938 0.820312 1.285156 0.78125 1.390625 0.78125 C 1.429688 0.78125 1.570312 0.804688 1.8125 0.859375 C 2.050781 0.921875 2.273438 0.953125 2.484375 0.953125 C 2.578125 0.953125 2.648438 0.945312 2.703125 0.9375 C 2.753906 0.9375 2.804688 0.914062 2.859375 0.875 C 2.921875 0.84375 2.960938 0.8125 2.984375 0.78125 C 3.015625 0.75 3.0625 0.675781 3.125 0.5625 C 3.1875 0.457031 3.238281 0.359375 3.28125 0.265625 C 3.320312 0.179688 3.390625 0.0390625 3.484375 -0.15625 C 3.585938 -0.363281 3.679688 -0.5625 3.765625 -0.75 C 3.617188 -0.75 3.507812 -0.757812 3.4375 -0.78125 C 3.363281 -0.8125 3.304688 -0.867188 3.265625 -0.953125 L 1.328125 -5.015625 C 1.328125 -5.023438 1.316406 -5.054688 1.296875 -5.109375 C 1.273438 -5.160156 1.257812 -5.191406 1.25 -5.203125 C 1.238281 -5.210938 1.21875 -5.234375 1.1875 -5.265625 C 1.164062 -5.304688 1.140625 -5.332031 1.109375 -5.34375 C 1.085938 -5.351562 1.054688 -5.363281 1.015625 -5.375 C 0.972656 -5.382812 0.925781 -5.390625 0.875 -5.390625 C 0.625 -5.390625 0.453125 -5.441406 0.359375 -5.546875 C 0.265625 -5.648438 0.21875 -5.820312 0.21875 -6.0625 C 0.21875 -6.375 0.296875 -6.566406 0.453125 -6.640625 C 0.816406 -6.535156 1.265625 -6.484375 1.796875 -6.484375 C 2.328125 -6.484375 2.789062 -6.535156 3.1875 -6.640625 C 3.269531 -6.546875 3.335938 -6.226562 3.390625 -5.6875 L 3.390625 -5.640625 C 3.390625 -5.554688 3.351562 -5.492188 3.28125 -5.453125 C 3.207031 -5.410156 3.125 -5.390625 3.03125 -5.390625 C 2.945312 -5.390625 2.863281 -5.367188 2.78125 -5.328125 C 2.707031 -5.296875 2.671875 -5.242188 2.671875 -5.171875 C 2.671875 -5.109375 2.679688 -5.050781 2.703125 -5 Z M 2.703125 -5 "/></g></g></g><g fill="#000000" fill-opacity="1"><g transform="translate(140.731177, 22.00639)"><g/></g></g><g fill="#000000" fill-opacity="1"><g transform="translate(143.763484, 22.00639)"><g><path d="M 6.59375 -0.09375 C 6.09375 0.0703125 5.546875 0.15625 4.953125 0.15625 C 4.359375 0.15625 3.804688 0.0703125 3.296875 -0.09375 C 2.796875 -0.269531 2.363281 -0.507812 2 -0.8125 C 1.644531 -1.113281 1.335938 -1.460938 1.078125 -1.859375 C 0.828125 -2.265625 0.640625 -2.691406 0.515625 -3.140625 C 0.398438 -3.597656 0.34375 -4.0625 0.34375 -4.53125 C 0.34375 -5 0.398438 -5.457031 0.515625 -5.90625 C 0.640625 -6.351562 0.828125 -6.773438 1.078125 -7.171875 C 1.335938 -7.566406 1.644531 -7.910156 2 -8.203125 C 2.363281 -8.503906 2.796875 -8.738281 3.296875 -8.90625 C 3.804688 -9.082031 4.359375 -9.171875 4.953125 -9.171875 C 5.546875 -9.171875 6.097656 -9.082031 6.609375 -8.90625 C 7.117188 -8.738281 7.550781 -8.503906 7.90625 -8.203125 C 8.257812 -7.910156 8.5625 -7.566406 8.8125 -7.171875 C 9.070312 -6.773438 9.257812 -6.351562 9.375 -5.90625 C 9.5 -5.457031 9.5625 -5 9.5625 -4.53125 C 9.5625 -4.0625 9.5 -3.597656 9.375 -3.140625 C 9.257812 -2.691406 9.070312 -2.265625 8.8125 -1.859375 C 8.5625 -1.460938 8.253906 -1.113281 7.890625 -0.8125 C 7.535156 -0.507812 7.101562 -0.269531 6.59375 -0.09375 Z M 3.859375 -1.125 C 4.191406 -0.988281 4.554688 -0.921875 4.953125 -0.921875 C 5.347656 -0.921875 5.710938 -0.988281 6.046875 -1.125 C 6.390625 -1.257812 6.675781 -1.441406 6.90625 -1.671875 C 7.144531 -1.898438 7.347656 -2.164062 7.515625 -2.46875 C 7.691406 -2.78125 7.816406 -3.101562 7.890625 -3.4375 C 7.972656 -3.78125 8.015625 -4.132812 8.015625 -4.5 C 8.015625 -4.957031 7.945312 -5.394531 7.8125 -5.8125 C 7.6875 -6.238281 7.5 -6.617188 7.25 -6.953125 C 7.007812 -7.296875 6.6875 -7.566406 6.28125 -7.765625 C 5.882812 -7.972656 5.441406 -8.078125 4.953125 -8.078125 C 4.460938 -8.078125 4.019531 -7.972656 3.625 -7.765625 C 3.226562 -7.566406 2.90625 -7.296875 2.65625 -6.953125 C 2.40625 -6.617188 2.210938 -6.238281 2.078125 -5.8125 C 1.953125 -5.394531 1.890625 -4.957031 1.890625 -4.5 C 1.890625 -4.132812 1.929688 -3.78125 2.015625 -3.4375 C 2.097656 -3.101562 2.222656 -2.78125 2.390625 -2.46875 C 2.554688 -2.164062 2.757812 -1.898438 3 -1.671875 C 3.238281 -1.441406 3.523438 -1.257812 3.859375 -1.125 Z M 3.859375 -1.125 "/></g></g></g><g fill="#000000" fill-opacity="1"><g transform="translate(153.673066, 22.00639)"><g><path d="M 2.4375 -5.9375 L 2.4375 -5.546875 C 2.625 -5.835938 2.894531 -6.09375 3.25 -6.3125 C 3.613281 -6.53125 3.957031 -6.640625 4.28125 -6.640625 C 4.5 -6.640625 4.703125 -6.601562 4.890625 -6.53125 C 5.085938 -6.457031 5.257812 -6.332031 5.40625 -6.15625 C 5.550781 -5.976562 5.625 -5.753906 5.625 -5.484375 C 5.625 -4.765625 5.238281 -4.40625 4.46875 -4.40625 C 4.457031 -4.40625 4.441406 -4.40625 4.421875 -4.40625 C 4.410156 -4.414062 4.398438 -4.425781 4.390625 -4.4375 C 4.378906 -4.445312 4.367188 -4.453125 4.359375 -4.453125 C 4.347656 -4.460938 4.335938 -4.472656 4.328125 -4.484375 C 4.328125 -4.503906 4.320312 -4.519531 4.3125 -4.53125 C 4.3125 -4.550781 4.3125 -4.570312 4.3125 -4.59375 C 4.3125 -4.625 4.304688 -4.644531 4.296875 -4.65625 C 4.296875 -4.675781 4.296875 -4.703125 4.296875 -4.734375 C 4.296875 -4.765625 4.289062 -4.785156 4.28125 -4.796875 L 4.21875 -5.4375 C 4.101562 -5.488281 3.984375 -5.515625 3.859375 -5.515625 C 3.617188 -5.515625 3.378906 -5.425781 3.140625 -5.25 C 2.910156 -5.082031 2.738281 -4.882812 2.625 -4.65625 L 2.625 -1.59375 C 2.625 -1.53125 2.625 -1.476562 2.625 -1.4375 C 2.632812 -1.40625 2.648438 -1.367188 2.671875 -1.328125 C 2.703125 -1.285156 2.742188 -1.25 2.796875 -1.21875 C 2.847656 -1.195312 2.921875 -1.1875 3.015625 -1.1875 C 3.171875 -1.1875 3.300781 -1.160156 3.40625 -1.109375 C 3.519531 -1.066406 3.578125 -1 3.578125 -0.90625 C 3.578125 -0.707031 3.539062 -0.515625 3.46875 -0.328125 C 3.40625 -0.140625 3.3125 -0.015625 3.1875 0.046875 C 2.90625 0.015625 2.488281 0 1.9375 0 C 1.394531 0 0.976562 0.015625 0.6875 0.046875 C 0.550781 -0.015625 0.453125 -0.140625 0.390625 -0.328125 C 0.335938 -0.515625 0.3125 -0.707031 0.3125 -0.90625 C 0.3125 -1 0.363281 -1.066406 0.46875 -1.109375 C 0.582031 -1.160156 0.71875 -1.1875 0.875 -1.1875 C 1.03125 -1.1875 1.128906 -1.21875 1.171875 -1.28125 C 1.222656 -1.351562 1.25 -1.453125 1.25 -1.578125 L 1.25 -4.765625 C 1.25 -4.984375 1.1875 -5.132812 1.0625 -5.21875 C 0.9375 -5.3125 0.703125 -5.363281 0.359375 -5.375 C 0.296875 -5.382812 0.257812 -5.410156 0.25 -5.453125 C 0.238281 -5.492188 0.234375 -5.582031 0.234375 -5.71875 C 0.234375 -5.925781 0.253906 -6.109375 0.296875 -6.265625 C 0.335938 -6.421875 0.382812 -6.507812 0.4375 -6.53125 C 0.71875 -6.488281 1 -6.46875 1.28125 -6.46875 C 1.445312 -6.46875 1.625 -6.476562 1.8125 -6.5 C 2 -6.519531 2.097656 -6.53125 2.109375 -6.53125 C 2.253906 -6.53125 2.34375 -6.492188 2.375 -6.421875 C 2.414062 -6.359375 2.4375 -6.195312 2.4375 -5.9375 Z M 2.4375 -5.9375 "/></g></g></g><g fill="#000000" fill-opacity="1"><g transform="translate(159.537549, 22.00639)"><g/></g></g><g fill="#ffffff" fill-opacity="1"><g transform="translate(162.563965, 22.00639)"><g><path d="M 3.3125 -1.59375 L 3.3125 -7.859375 C 3.3125 -7.898438 3.3125 -7.929688 3.3125 -7.953125 C 3.3125 -7.984375 3.296875 -8.007812 3.265625 -8.03125 C 3.242188 -8.0625 3.210938 -8.078125 3.171875 -8.078125 C 2.984375 -8.078125 2.707031 -8.078125 2.34375 -8.078125 C 1.976562 -8.078125 1.71875 -8.078125 1.5625 -8.078125 C 1.53125 -7.992188 1.472656 -7.789062 1.390625 -7.46875 C 1.304688 -7.15625 1.21875 -6.875 1.125 -6.625 C 1.039062 -6.382812 0.96875 -6.265625 0.90625 -6.265625 C 0.75 -6.265625 0.609375 -6.285156 0.484375 -6.328125 C 0.367188 -6.367188 0.28125 -6.414062 0.21875 -6.46875 C 0.15625 -6.53125 0.109375 -6.585938 0.078125 -6.640625 C 0.046875 -6.691406 0.03125 -6.726562 0.03125 -6.75 C 0.03125 -6.894531 0.101562 -7.3125 0.25 -8 C 0.40625 -8.695312 0.507812 -9.078125 0.5625 -9.140625 C 0.582031 -9.140625 0.597656 -9.132812 0.609375 -9.125 C 0.617188 -9.125 0.628906 -9.125 0.640625 -9.125 C 1.835938 -9.03125 2.960938 -8.984375 4.015625 -8.984375 C 5.066406 -8.984375 6.191406 -9.03125 7.390625 -9.125 C 7.398438 -9.125 7.410156 -9.125 7.421875 -9.125 C 7.441406 -9.132812 7.457031 -9.140625 7.46875 -9.140625 C 7.519531 -9.078125 7.617188 -8.695312 7.765625 -8 C 7.921875 -7.3125 8 -6.894531 8 -6.75 C 8 -6.726562 7.984375 -6.691406 7.953125 -6.640625 C 7.921875 -6.585938 7.875 -6.53125 7.8125 -6.46875 C 7.75 -6.414062 7.65625 -6.367188 7.53125 -6.328125 C 7.414062 -6.285156 7.285156 -6.265625 7.140625 -6.265625 C 7.066406 -6.265625 6.988281 -6.382812 6.90625 -6.625 C 6.820312 -6.875 6.738281 -7.15625 6.65625 -7.46875 C 6.570312 -7.789062 6.507812 -7.992188 6.46875 -8.078125 C 6.3125 -8.078125 6.050781 -8.078125 5.6875 -8.078125 C 5.332031 -8.078125 5.054688 -8.078125 4.859375 -8.078125 C 4.796875 -8.078125 4.753906 -8.054688 4.734375 -8.015625 C 4.722656 -7.984375 4.71875 -7.929688 4.71875 -7.859375 L 4.71875 -1.609375 C 4.71875 -1.546875 4.71875 -1.492188 4.71875 -1.453125 C 4.726562 -1.421875 4.742188 -1.382812 4.765625 -1.34375 C 4.785156 -1.300781 4.820312 -1.269531 4.875 -1.25 C 4.9375 -1.226562 5.015625 -1.21875 5.109375 -1.21875 C 5.296875 -1.21875 5.453125 -1.191406 5.578125 -1.140625 C 5.710938 -1.085938 5.78125 -1.015625 5.78125 -0.921875 C 5.78125 -0.378906 5.71875 -0.0507812 5.59375 0.0625 C 4.976562 0.0195312 4.457031 0 4.03125 0 C 3.601562 0 3.078125 0.0195312 2.453125 0.0625 C 2.316406 -0.0507812 2.25 -0.378906 2.25 -0.921875 C 2.25 -1.015625 2.316406 -1.085938 2.453125 -1.140625 C 2.585938 -1.191406 2.75 -1.21875 2.9375 -1.21875 C 3.09375 -1.21875 3.191406 -1.25 3.234375 -1.3125 C 3.285156 -1.375 3.3125 -1.46875 3.3125 -1.59375 Z M 3.3125 -1.59375 "/></g></g></g><g fill="#ffffff" fill-opacity="1"><g transform="translate(170.605646, 22.00639)"><g><path d="M 2.578125 -8.171875 L 2.578125 -5.609375 C 2.867188 -5.910156 3.210938 -6.15625 3.609375 -6.34375 C 4.003906 -6.539062 4.429688 -6.640625 4.890625 -6.640625 C 5.148438 -6.640625 5.390625 -6.59375 5.609375 -6.5 C 5.835938 -6.414062 6.039062 -6.28125 6.21875 -6.09375 C 6.40625 -5.914062 6.550781 -5.660156 6.65625 -5.328125 C 6.757812 -4.992188 6.8125 -4.601562 6.8125 -4.15625 L 6.8125 -1.6875 C 6.8125 -1.300781 6.914062 -1.097656 7.125 -1.078125 C 7.15625 -1.078125 7.195312 -1.070312 7.25 -1.0625 C 7.3125 -1.0625 7.359375 -1.0625 7.390625 -1.0625 C 7.429688 -1.0625 7.472656 -1.054688 7.515625 -1.046875 C 7.566406 -1.035156 7.601562 -1.023438 7.625 -1.015625 C 7.65625 -1.015625 7.691406 -1.007812 7.734375 -1 C 7.773438 -0.988281 7.804688 -0.976562 7.828125 -0.96875 C 7.847656 -0.957031 7.867188 -0.941406 7.890625 -0.921875 C 7.910156 -0.910156 7.921875 -0.894531 7.921875 -0.875 C 7.929688 -0.851562 7.9375 -0.828125 7.9375 -0.796875 C 7.9375 -0.347656 7.847656 -0.0664062 7.671875 0.046875 C 7.328125 0.015625 6.992188 0 6.671875 0 C 6.503906 0 6.316406 0.00390625 6.109375 0.015625 C 5.898438 0.0351562 5.742188 0.046875 5.640625 0.046875 C 5.597656 0.046875 5.5625 0.0351562 5.53125 0.015625 C 5.507812 0.00390625 5.488281 -0.03125 5.46875 -0.09375 C 5.445312 -0.15625 5.4375 -0.25 5.4375 -0.375 L 5.4375 -4.046875 C 5.4375 -4.566406 5.347656 -4.945312 5.171875 -5.1875 C 4.992188 -5.4375 4.753906 -5.5625 4.453125 -5.5625 C 4.171875 -5.5625 3.859375 -5.476562 3.515625 -5.3125 C 3.179688 -5.144531 2.867188 -4.925781 2.578125 -4.65625 L 2.578125 -1.515625 C 2.578125 -1.460938 2.578125 -1.414062 2.578125 -1.375 C 2.585938 -1.34375 2.601562 -1.300781 2.625 -1.25 C 2.644531 -1.207031 2.679688 -1.175781 2.734375 -1.15625 C 2.796875 -1.132812 2.875 -1.125 2.96875 -1.125 C 3.125 -1.125 3.253906 -1.097656 3.359375 -1.046875 C 3.472656 -1.003906 3.53125 -0.9375 3.53125 -0.84375 C 3.53125 -0.363281 3.460938 -0.0664062 3.328125 0.046875 C 2.941406 0.015625 2.472656 0 1.921875 0 C 1.335938 0 0.851562 0.015625 0.46875 0.046875 C 0.332031 -0.078125 0.265625 -0.375 0.265625 -0.84375 C 0.265625 -0.9375 0.316406 -1.003906 0.421875 -1.046875 C 0.535156 -1.097656 0.664062 -1.125 0.8125 -1.125 C 0.976562 -1.125 1.082031 -1.15625 1.125 -1.21875 C 1.175781 -1.289062 1.203125 -1.390625 1.203125 -1.515625 L 1.203125 -7.328125 C 1.203125 -7.546875 1.140625 -7.695312 1.015625 -7.78125 C 0.890625 -7.875 0.648438 -7.929688 0.296875 -7.953125 C 0.242188 -7.960938 0.210938 -7.984375 0.203125 -8.015625 C 0.191406 -8.054688 0.1875 -8.144531 0.1875 -8.28125 C 0.1875 -8.488281 0.207031 -8.671875 0.25 -8.828125 C 0.289062 -8.984375 0.332031 -9.078125 0.375 -9.109375 C 0.71875 -9.054688 1.039062 -9.03125 1.34375 -9.03125 C 1.53125 -9.03125 1.722656 -9.039062 1.921875 -9.0625 C 2.117188 -9.09375 2.226562 -9.109375 2.25 -9.109375 C 2.382812 -9.109375 2.472656 -9.070312 2.515625 -9 C 2.554688 -8.925781 2.578125 -8.765625 2.578125 -8.515625 C 2.578125 -8.484375 2.578125 -8.429688 2.578125 -8.359375 C 2.578125 -8.285156 2.578125 -8.222656 2.578125 -8.171875 Z M 2.578125 -8.171875 "/></g></g></g><g fill="#ffffff" fill-opacity="1"><g transform="translate(178.738295, 22.00639)"><g><path d="M 6.5 -3.578125 C 6.5 -3.398438 6.453125 -3.257812 6.359375 -3.15625 C 6.265625 -3.0625 6.082031 -3.015625 5.8125 -3.015625 L 1.625 -3.015625 C 1.644531 -2.640625 1.710938 -2.316406 1.828125 -2.046875 C 1.941406 -1.785156 2.085938 -1.578125 2.265625 -1.421875 C 2.453125 -1.273438 2.65625 -1.164062 2.875 -1.09375 C 3.101562 -1.019531 3.347656 -0.984375 3.609375 -0.984375 C 3.984375 -0.984375 4.359375 -1.046875 4.734375 -1.171875 C 5.117188 -1.304688 5.46875 -1.492188 5.78125 -1.734375 C 6.007812 -1.460938 6.125 -1.191406 6.125 -0.921875 C 6.125 -0.753906 6.007812 -0.582031 5.78125 -0.40625 C 5.550781 -0.238281 5.238281 -0.101562 4.84375 0 C 4.457031 0.101562 4.050781 0.15625 3.625 0.15625 C 3.28125 0.15625 2.953125 0.117188 2.640625 0.046875 C 2.328125 -0.015625 2.019531 -0.128906 1.71875 -0.296875 C 1.414062 -0.472656 1.15625 -0.691406 0.9375 -0.953125 C 0.71875 -1.210938 0.539062 -1.546875 0.40625 -1.953125 C 0.269531 -2.367188 0.203125 -2.835938 0.203125 -3.359375 C 0.203125 -3.867188 0.296875 -4.335938 0.484375 -4.765625 C 0.679688 -5.191406 0.941406 -5.539062 1.265625 -5.8125 C 1.585938 -6.082031 1.941406 -6.285156 2.328125 -6.421875 C 2.722656 -6.566406 3.128906 -6.640625 3.546875 -6.640625 C 3.859375 -6.640625 4.15625 -6.601562 4.4375 -6.53125 C 4.71875 -6.457031 4.984375 -6.335938 5.234375 -6.171875 C 5.484375 -6.003906 5.703125 -5.800781 5.890625 -5.5625 C 6.078125 -5.332031 6.222656 -5.046875 6.328125 -4.703125 C 6.441406 -4.367188 6.5 -3.992188 6.5 -3.578125 Z M 5.265625 -3.953125 C 5.234375 -4.515625 5.054688 -4.941406 4.734375 -5.234375 C 4.421875 -5.523438 4.046875 -5.671875 3.609375 -5.671875 C 3.140625 -5.671875 2.710938 -5.515625 2.328125 -5.203125 C 1.941406 -4.890625 1.722656 -4.472656 1.671875 -3.953125 Z M 5.265625 -3.953125 "/></g></g></g><g fill="#ffffff" fill-opacity="1"><g transform="translate(185.451824, 22.00639)"><g/></g></g><g fill="#ffffff" fill-opacity="1"><g transform="translate(188.484132, 22.00639)"><g><path d="M 2.828125 -1.046875 L 5.1875 -1.046875 C 5.53125 -1.046875 5.847656 -1.109375 6.140625 -1.234375 C 6.441406 -1.367188 6.695312 -1.546875 6.90625 -1.765625 C 7.125 -1.984375 7.304688 -2.238281 7.453125 -2.53125 C 7.609375 -2.832031 7.722656 -3.148438 7.796875 -3.484375 C 7.867188 -3.816406 7.90625 -4.15625 7.90625 -4.5 C 7.90625 -4.945312 7.84375 -5.375 7.71875 -5.78125 C 7.59375 -6.195312 7.410156 -6.570312 7.171875 -6.90625 C 6.929688 -7.238281 6.625 -7.503906 6.25 -7.703125 C 5.875 -7.910156 5.457031 -8.015625 5 -8.015625 L 2.828125 -8.015625 Z M 0.6875 -9.109375 C 1.21875 -9.054688 1.960938 -9.03125 2.921875 -9.03125 C 3.222656 -9.03125 3.609375 -9.039062 4.078125 -9.0625 C 4.546875 -9.09375 4.851562 -9.109375 5 -9.109375 C 5.601562 -9.109375 6.15625 -9.019531 6.65625 -8.84375 C 7.15625 -8.675781 7.578125 -8.445312 7.921875 -8.15625 C 8.265625 -7.863281 8.554688 -7.519531 8.796875 -7.125 C 9.035156 -6.726562 9.207031 -6.3125 9.3125 -5.875 C 9.425781 -5.445312 9.484375 -5 9.484375 -4.53125 C 9.484375 -4.0625 9.429688 -3.601562 9.328125 -3.15625 C 9.222656 -2.71875 9.054688 -2.300781 8.828125 -1.90625 C 8.597656 -1.519531 8.316406 -1.179688 7.984375 -0.890625 C 7.648438 -0.597656 7.242188 -0.363281 6.765625 -0.1875 C 6.285156 -0.0195312 5.757812 0.0625 5.1875 0.0625 C 5.007812 0.0625 4.6875 0.0507812 4.21875 0.03125 C 3.757812 0.0078125 3.347656 0 2.984375 0 C 2.816406 0 2.609375 0.00390625 2.359375 0.015625 C 2.117188 0.0234375 1.832031 0.0351562 1.5 0.046875 C 1.164062 0.0546875 0.894531 0.0625 0.6875 0.0625 C 0.570312 0 0.488281 -0.125 0.4375 -0.3125 C 0.382812 -0.507812 0.359375 -0.710938 0.359375 -0.921875 C 0.359375 -1.015625 0.425781 -1.085938 0.5625 -1.140625 C 0.695312 -1.191406 0.859375 -1.21875 1.046875 -1.21875 C 1.203125 -1.21875 1.300781 -1.25 1.34375 -1.3125 C 1.394531 -1.375 1.421875 -1.46875 1.421875 -1.59375 L 1.421875 -7.453125 C 1.421875 -7.578125 1.394531 -7.671875 1.34375 -7.734375 C 1.300781 -7.804688 1.203125 -7.84375 1.046875 -7.84375 C 0.585938 -7.84375 0.359375 -7.945312 0.359375 -8.15625 C 0.359375 -8.351562 0.382812 -8.546875 0.4375 -8.734375 C 0.488281 -8.929688 0.570312 -9.054688 0.6875 -9.109375 Z M 0.6875 -9.109375 "/></g></g></g><g fill="#ffffff" fill-opacity="1"><g transform="translate(198.314874, 22.00639)"><g><path d="M 4.6875 -0.828125 C 4.382812 -0.515625 4.007812 -0.269531 3.5625 -0.09375 C 3.113281 0.0703125 2.65625 0.15625 2.1875 0.15625 C 1.613281 0.15625 1.132812 0.00390625 0.75 -0.296875 C 0.375 -0.609375 0.1875 -1.050781 0.1875 -1.625 C 0.1875 -2.25 0.488281 -2.71875 1.09375 -3.03125 C 1.550781 -3.28125 2.328125 -3.492188 3.421875 -3.671875 C 3.628906 -3.703125 3.96875 -3.753906 4.4375 -3.828125 C 4.4375 -4.515625 4.347656 -4.988281 4.171875 -5.25 C 3.992188 -5.507812 3.660156 -5.640625 3.171875 -5.640625 C 2.804688 -5.640625 2.40625 -5.554688 1.96875 -5.390625 C 1.53125 -5.234375 1.179688 -5.007812 0.921875 -4.71875 C 0.585938 -4.988281 0.421875 -5.257812 0.421875 -5.53125 C 0.421875 -5.75 0.578125 -5.945312 0.890625 -6.125 C 1.203125 -6.300781 1.566406 -6.429688 1.984375 -6.515625 C 2.410156 -6.597656 2.835938 -6.640625 3.265625 -6.640625 C 3.660156 -6.640625 4.007812 -6.585938 4.3125 -6.484375 C 4.613281 -6.390625 4.878906 -6.226562 5.109375 -6 C 5.335938 -5.78125 5.507812 -5.46875 5.625 -5.0625 C 5.75 -4.664062 5.8125 -4.1875 5.8125 -3.625 L 5.8125 -1.6875 C 5.8125 -1.519531 5.820312 -1.394531 5.84375 -1.3125 C 5.875 -1.226562 5.90625 -1.175781 5.9375 -1.15625 C 5.976562 -1.144531 6.035156 -1.132812 6.109375 -1.125 C 6.234375 -1.113281 6.320312 -1.101562 6.375 -1.09375 C 6.4375 -1.082031 6.507812 -1.066406 6.59375 -1.046875 C 6.675781 -1.023438 6.734375 -1 6.765625 -0.96875 C 6.796875 -0.9375 6.8125 -0.894531 6.8125 -0.84375 C 6.8125 -0.363281 6.75 -0.0664062 6.625 0.046875 C 6.425781 0.015625 6.171875 0 5.859375 0 C 5.578125 0 5.316406 0.015625 5.078125 0.046875 C 5.046875 0.0234375 5.007812 0 4.96875 -0.03125 C 4.925781 -0.0703125 4.867188 -0.164062 4.796875 -0.3125 C 4.722656 -0.46875 4.6875 -0.640625 4.6875 -0.828125 Z M 2.46875 -0.921875 C 2.832031 -0.921875 3.226562 -1.019531 3.65625 -1.21875 C 4.09375 -1.425781 4.351562 -1.613281 4.4375 -1.78125 L 4.4375 -2.84375 C 3.332031 -2.644531 2.585938 -2.46875 2.203125 -2.3125 C 1.816406 -2.15625 1.625 -1.9375 1.625 -1.65625 C 1.625 -1.164062 1.90625 -0.921875 2.46875 -0.921875 Z M 2.46875 -0.921875 "/></g></g></g><g fill="#ffffff" fill-opacity="1"><g transform="translate(205.331634, 22.00639)"><g><path d="M 2.703125 -5 L 4.265625 -1.53125 L 5.609375 -5 C 5.628906 -5.0625 5.640625 -5.117188 5.640625 -5.171875 C 5.640625 -5.242188 5.609375 -5.296875 5.546875 -5.328125 C 5.484375 -5.367188 5.414062 -5.390625 5.34375 -5.390625 C 5.269531 -5.398438 5.203125 -5.421875 5.140625 -5.453125 C 5.078125 -5.492188 5.046875 -5.554688 5.046875 -5.640625 L 5.046875 -5.6875 C 5.109375 -6.226562 5.175781 -6.546875 5.25 -6.640625 C 5.644531 -6.535156 6.070312 -6.484375 6.53125 -6.484375 C 7.019531 -6.484375 7.46875 -6.535156 7.875 -6.640625 C 8.03125 -6.566406 8.109375 -6.375 8.109375 -6.0625 C 8.109375 -5.820312 8.054688 -5.648438 7.953125 -5.546875 C 7.859375 -5.441406 7.691406 -5.390625 7.453125 -5.390625 C 7.398438 -5.390625 7.347656 -5.382812 7.296875 -5.375 C 7.253906 -5.363281 7.21875 -5.351562 7.1875 -5.34375 C 7.164062 -5.332031 7.140625 -5.3125 7.109375 -5.28125 C 7.085938 -5.25 7.070312 -5.222656 7.0625 -5.203125 C 7.0625 -5.179688 7.050781 -5.148438 7.03125 -5.109375 C 7.007812 -5.066406 7 -5.035156 7 -5.015625 L 4.5625 0.578125 C 4.320312 1.109375 4.035156 1.492188 3.703125 1.734375 C 3.378906 1.984375 2.976562 2.109375 2.5 2.109375 C 2.125 2.109375 1.796875 2.03125 1.515625 1.875 C 1.242188 1.726562 1.109375 1.566406 1.109375 1.390625 C 1.109375 1.148438 1.128906 0.988281 1.171875 0.90625 C 1.210938 0.820312 1.285156 0.78125 1.390625 0.78125 C 1.429688 0.78125 1.570312 0.804688 1.8125 0.859375 C 2.050781 0.921875 2.273438 0.953125 2.484375 0.953125 C 2.578125 0.953125 2.648438 0.945312 2.703125 0.9375 C 2.753906 0.9375 2.804688 0.914062 2.859375 0.875 C 2.921875 0.84375 2.960938 0.8125 2.984375 0.78125 C 3.015625 0.75 3.0625 0.675781 3.125 0.5625 C 3.1875 0.457031 3.238281 0.359375 3.28125 0.265625 C 3.320312 0.179688 3.390625 0.0390625 3.484375 -0.15625 C 3.585938 -0.363281 3.679688 -0.5625 3.765625 -0.75 C 3.617188 -0.75 3.507812 -0.757812 3.4375 -0.78125 C 3.363281 -0.8125 3.304688 -0.867188 3.265625 -0.953125 L 1.328125 -5.015625 C 1.328125 -5.023438 1.316406 -5.054688 1.296875 -5.109375 C 1.273438 -5.160156 1.257812 -5.191406 1.25 -5.203125 C 1.238281 -5.210938 1.21875 -5.234375 1.1875 -5.265625 C 1.164062 -5.304688 1.140625 -5.332031 1.109375 -5.34375 C 1.085938 -5.351562 1.054688 -5.363281 1.015625 -5.375 C 0.972656 -5.382812 0.925781 -5.390625 0.875 -5.390625 C 0.625 -5.390625 0.453125 -5.441406 0.359375 -5.546875 C 0.265625 -5.648438 0.21875 -5.820312 0.21875 -6.0625 C 0.21875 -6.375 0.296875 -6.566406 0.453125 -6.640625 C 0.816406 -6.535156 1.265625 -6.484375 1.796875 -6.484375 C 2.328125 -6.484375 2.789062 -6.535156 3.1875 -6.640625 C 3.269531 -6.546875 3.335938 -6.226562 3.390625 -5.6875 L 3.390625 -5.640625 C 3.390625 -5.554688 3.351562 -5.492188 3.28125 -5.453125 C 3.207031 -5.410156 3.125 -5.390625 3.03125 -5.390625 C 2.945312 -5.390625 2.863281 -5.367188 2.78125 -5.328125 C 2.707031 -5.296875 2.671875 -5.242188 2.671875 -5.171875 C 2.671875 -5.109375 2.679688 -5.050781 2.703125 -5 Z M 2.703125 -5 "/></g></g></g><g fill="#ffffff" fill-opacity="1"><g transform="translate(213.700803, 22.00639)"><g/></g></g><g fill="#ffffff" fill-opacity="1"><g transform="translate(216.733111, 22.00639)"><g><path d="M 2.828125 -5.109375 L 5.34375 -5.109375 C 5.851562 -5.109375 6.253906 -5.25 6.546875 -5.53125 C 6.835938 -5.8125 6.984375 -6.140625 6.984375 -6.515625 C 6.984375 -6.921875 6.828125 -7.269531 6.515625 -7.5625 C 6.210938 -7.863281 5.785156 -8.015625 5.234375 -8.015625 L 2.828125 -8.015625 Z M 0.6875 -9.109375 C 1.21875 -9.054688 1.960938 -9.03125 2.921875 -9.03125 C 3.265625 -9.03125 3.691406 -9.046875 4.203125 -9.078125 C 4.722656 -9.117188 5.066406 -9.140625 5.234375 -9.140625 C 5.742188 -9.140625 6.203125 -9.0625 6.609375 -8.90625 C 7.015625 -8.757812 7.34375 -8.5625 7.59375 -8.3125 C 7.851562 -8.070312 8.046875 -7.800781 8.171875 -7.5 C 8.304688 -7.195312 8.375 -6.882812 8.375 -6.5625 C 8.375 -6.351562 8.34375 -6.144531 8.28125 -5.9375 C 8.21875 -5.726562 8.117188 -5.523438 7.984375 -5.328125 C 7.859375 -5.140625 7.703125 -4.96875 7.515625 -4.8125 C 7.328125 -4.664062 7.101562 -4.539062 6.84375 -4.4375 C 6.582031 -4.34375 6.300781 -4.289062 6 -4.28125 C 6.300781 -4.175781 6.5625 -3.992188 6.78125 -3.734375 C 7 -3.484375 7.160156 -3.21875 7.265625 -2.9375 C 7.378906 -2.65625 7.484375 -2.375 7.578125 -2.09375 C 7.679688 -1.820312 7.796875 -1.597656 7.921875 -1.421875 C 8.054688 -1.242188 8.222656 -1.15625 8.421875 -1.15625 C 8.992188 -1.15625 9.28125 -1.101562 9.28125 -1 L 9.28125 -0.765625 C 9.28125 -0.628906 9.269531 -0.519531 9.25 -0.4375 C 9.226562 -0.351562 9.179688 -0.265625 9.109375 -0.171875 C 9.035156 -0.078125 8.914062 -0.0078125 8.75 0.03125 C 8.582031 0.0820312 8.367188 0.109375 8.109375 0.109375 C 7.847656 0.109375 7.617188 0.0664062 7.421875 -0.015625 C 7.234375 -0.0976562 7.070312 -0.210938 6.9375 -0.359375 C 6.8125 -0.515625 6.695312 -0.6875 6.59375 -0.875 C 6.5 -1.070312 6.410156 -1.28125 6.328125 -1.5 C 6.253906 -1.71875 6.175781 -1.9375 6.09375 -2.15625 C 6.019531 -2.382812 5.925781 -2.601562 5.8125 -2.8125 C 5.707031 -3.019531 5.582031 -3.207031 5.4375 -3.375 C 5.289062 -3.550781 5.101562 -3.703125 4.875 -3.828125 C 4.65625 -3.953125 4.398438 -4.039062 4.109375 -4.09375 L 2.828125 -4.09375 L 2.828125 -1.609375 C 2.828125 -1.546875 2.828125 -1.492188 2.828125 -1.453125 C 2.835938 -1.421875 2.851562 -1.382812 2.875 -1.34375 C 2.894531 -1.300781 2.929688 -1.269531 2.984375 -1.25 C 3.046875 -1.226562 3.125 -1.21875 3.21875 -1.21875 C 3.40625 -1.21875 3.5625 -1.191406 3.6875 -1.140625 C 3.820312 -1.085938 3.890625 -1.015625 3.890625 -0.921875 C 3.890625 -0.378906 3.820312 -0.0507812 3.6875 0.0625 C 3.082031 0.0195312 2.566406 0 2.140625 0 C 1.765625 0 1.28125 0.0195312 0.6875 0.0625 C 0.570312 0 0.488281 -0.125 0.4375 -0.3125 C 0.382812 -0.507812 0.359375 -0.710938 0.359375 -0.921875 C 0.359375 -1.015625 0.425781 -1.085938 0.5625 -1.140625 C 0.695312 -1.191406 0.859375 -1.21875 1.046875 -1.21875 C 1.203125 -1.21875 1.300781 -1.25 1.34375 -1.3125 C 1.394531 -1.375 1.421875 -1.46875 1.421875 -1.59375 L 1.421875 -7.453125 C 1.421875 -7.578125 1.394531 -7.671875 1.34375 -7.734375 C 1.300781 -7.804688 1.203125 -7.84375 1.046875 -7.84375 C 0.585938 -7.84375 0.359375 -7.945312 0.359375 -8.15625 C 0.359375 -8.351562 0.382812 -8.546875 0.4375 -8.734375 C 0.488281 -8.929688 0.570312 -9.054688 0.6875 -9.109375 Z M 0.6875 -9.109375 "/></g></g></g><g fill="#ffffff" fill-opacity="1"><g transform="translate(226.266687, 22.00639)"><g><path d="M 6.765625 -6.109375 L 6.765625 -1.65625 C 6.765625 -1.550781 6.765625 -1.472656 6.765625 -1.421875 C 6.773438 -1.378906 6.785156 -1.332031 6.796875 -1.28125 C 6.816406 -1.226562 6.847656 -1.191406 6.890625 -1.171875 C 6.941406 -1.148438 7.003906 -1.132812 7.078125 -1.125 C 7.148438 -1.113281 7.242188 -1.109375 7.359375 -1.109375 C 7.546875 -1.109375 7.660156 -1.082031 7.703125 -1.03125 C 7.753906 -0.988281 7.78125 -0.898438 7.78125 -0.765625 C 7.78125 -0.566406 7.753906 -0.390625 7.703125 -0.234375 C 7.660156 -0.078125 7.625 0.015625 7.59375 0.046875 C 7.289062 0.015625 7.015625 0 6.765625 0 C 6.597656 0 6.425781 0.00390625 6.25 0.015625 C 6.070312 0.0351562 5.960938 0.046875 5.921875 0.046875 C 5.753906 0.046875 5.65625 0 5.625 -0.09375 C 5.59375 -0.195312 5.578125 -0.457031 5.578125 -0.875 C 5.296875 -0.539062 4.953125 -0.285156 4.546875 -0.109375 C 4.148438 0.0664062 3.75 0.15625 3.34375 0.15625 C 3.039062 0.15625 2.757812 0.101562 2.5 0 C 2.238281 -0.09375 2 -0.234375 1.78125 -0.421875 C 1.570312 -0.617188 1.40625 -0.878906 1.28125 -1.203125 C 1.164062 -1.535156 1.109375 -1.910156 1.109375 -2.328125 L 1.109375 -4.765625 C 1.109375 -5.148438 1.007812 -5.347656 0.8125 -5.359375 C 0.78125 -5.367188 0.734375 -5.375 0.671875 -5.375 C 0.609375 -5.375 0.5625 -5.375 0.53125 -5.375 C 0.5 -5.382812 0.457031 -5.390625 0.40625 -5.390625 C 0.351562 -5.398438 0.3125 -5.40625 0.28125 -5.40625 C 0.257812 -5.414062 0.226562 -5.425781 0.1875 -5.4375 C 0.15625 -5.445312 0.128906 -5.457031 0.109375 -5.46875 C 0.0859375 -5.488281 0.0664062 -5.503906 0.046875 -5.515625 C 0.0234375 -5.535156 0.0078125 -5.554688 0 -5.578125 C -0.0078125 -5.597656 -0.015625 -5.625 -0.015625 -5.65625 C -0.015625 -6.125 0.0507812 -6.414062 0.1875 -6.53125 C 0.570312 -6.488281 0.921875 -6.46875 1.234375 -6.46875 C 1.460938 -6.46875 1.691406 -6.476562 1.921875 -6.5 C 2.148438 -6.519531 2.269531 -6.53125 2.28125 -6.53125 C 2.414062 -6.53125 2.484375 -6.390625 2.484375 -6.109375 L 2.484375 -2.25 C 2.484375 -1.8125 2.597656 -1.476562 2.828125 -1.25 C 3.054688 -1.03125 3.351562 -0.921875 3.71875 -0.921875 C 4.019531 -0.921875 4.320312 -1 4.625 -1.15625 C 4.9375 -1.320312 5.191406 -1.546875 5.390625 -1.828125 L 5.390625 -4.765625 C 5.390625 -5.148438 5.289062 -5.347656 5.09375 -5.359375 C 5.0625 -5.367188 5.015625 -5.375 4.953125 -5.375 C 4.890625 -5.375 4.84375 -5.375 4.8125 -5.375 C 4.78125 -5.382812 4.738281 -5.390625 4.6875 -5.390625 C 4.632812 -5.398438 4.59375 -5.40625 4.5625 -5.40625 C 4.539062 -5.414062 4.507812 -5.425781 4.46875 -5.4375 C 4.4375 -5.445312 4.410156 -5.457031 4.390625 -5.46875 C 4.367188 -5.488281 4.347656 -5.503906 4.328125 -5.515625 C 4.304688 -5.535156 4.289062 -5.554688 4.28125 -5.578125 C 4.269531 -5.597656 4.265625 -5.625 4.265625 -5.65625 C 4.265625 -6.125 4.332031 -6.414062 4.46875 -6.53125 C 4.851562 -6.488281 5.203125 -6.46875 5.515625 -6.46875 C 5.785156 -6.46875 6.054688 -6.476562 6.328125 -6.5 C 6.609375 -6.519531 6.753906 -6.53125 6.765625 -6.53125 C 6.765625 -6.53125 6.765625 -6.390625 6.765625 -6.109375 Z M 6.765625 -6.109375 "/></g></g></g><g fill="#ffffff" fill-opacity="1"><g transform="translate(234.241656, 22.00639)"><g><path d="M 7.859375 0.046875 C 7.460938 0.015625 7.109375 0 6.796875 0 C 6.585938 0 6.359375 0.00390625 6.109375 0.015625 C 5.867188 0.0351562 5.710938 0.046875 5.640625 0.046875 C 5.503906 0.046875 5.4375 -0.101562 5.4375 -0.40625 L 5.4375 -4.046875 C 5.4375 -4.566406 5.347656 -4.945312 5.171875 -5.1875 C 5.003906 -5.4375 4.785156 -5.5625 4.515625 -5.5625 C 4.234375 -5.5625 3.921875 -5.484375 3.578125 -5.328125 C 3.242188 -5.171875 2.925781 -4.96875 2.625 -4.71875 L 2.625 -1.515625 C 2.625 -1.460938 2.628906 -1.414062 2.640625 -1.375 C 2.648438 -1.34375 2.664062 -1.300781 2.6875 -1.25 C 2.707031 -1.207031 2.742188 -1.175781 2.796875 -1.15625 C 2.859375 -1.132812 2.929688 -1.125 3.015625 -1.125 C 3.171875 -1.125 3.300781 -1.097656 3.40625 -1.046875 C 3.519531 -1.003906 3.578125 -0.9375 3.578125 -0.84375 C 3.578125 -0.363281 3.507812 -0.0664062 3.375 0.046875 C 3.132812 0.015625 2.671875 0 1.984375 0 C 1.304688 0 0.816406 0.015625 0.515625 0.046875 C 0.378906 -0.078125 0.3125 -0.375 0.3125 -0.84375 C 0.3125 -0.9375 0.363281 -1.003906 0.46875 -1.046875 C 0.582031 -1.097656 0.71875 -1.125 0.875 -1.125 C 1.03125 -1.125 1.128906 -1.15625 1.171875 -1.21875 C 1.222656 -1.289062 1.25 -1.390625 1.25 -1.515625 L 1.25 -4.765625 C 1.25 -4.984375 1.1875 -5.132812 1.0625 -5.21875 C 0.945312 -5.3125 0.710938 -5.363281 0.359375 -5.375 C 0.304688 -5.382812 0.269531 -5.410156 0.25 -5.453125 C 0.238281 -5.492188 0.234375 -5.582031 0.234375 -5.71875 C 0.234375 -5.925781 0.253906 -6.109375 0.296875 -6.265625 C 0.347656 -6.421875 0.394531 -6.507812 0.4375 -6.53125 C 0.707031 -6.488281 0.96875 -6.46875 1.21875 -6.46875 C 1.394531 -6.46875 1.582031 -6.476562 1.78125 -6.5 C 1.988281 -6.519531 2.097656 -6.53125 2.109375 -6.53125 C 2.253906 -6.53125 2.347656 -6.492188 2.390625 -6.421875 C 2.429688 -6.359375 2.453125 -6.195312 2.453125 -5.9375 C 2.453125 -5.914062 2.453125 -5.863281 2.453125 -5.78125 C 2.453125 -5.707031 2.453125 -5.648438 2.453125 -5.609375 C 2.796875 -5.921875 3.1875 -6.171875 3.625 -6.359375 C 4.070312 -6.546875 4.5 -6.640625 4.90625 -6.640625 C 5.46875 -6.640625 5.925781 -6.4375 6.28125 -6.03125 C 6.632812 -5.632812 6.8125 -5.007812 6.8125 -4.15625 L 6.8125 -1.546875 C 6.8125 -1.285156 6.910156 -1.144531 7.109375 -1.125 C 7.148438 -1.125 7.203125 -1.117188 7.265625 -1.109375 C 7.335938 -1.109375 7.390625 -1.101562 7.421875 -1.09375 C 7.460938 -1.09375 7.507812 -1.085938 7.5625 -1.078125 C 7.625 -1.078125 7.671875 -1.070312 7.703125 -1.0625 C 7.734375 -1.0625 7.769531 -1.054688 7.8125 -1.046875 C 7.863281 -1.035156 7.898438 -1.023438 7.921875 -1.015625 C 7.941406 -1.003906 7.960938 -0.988281 7.984375 -0.96875 C 8.015625 -0.957031 8.035156 -0.9375 8.046875 -0.90625 C 8.054688 -0.882812 8.0625 -0.863281 8.0625 -0.84375 C 8.0625 -0.375 7.992188 -0.078125 7.859375 0.046875 Z M 7.859375 0.046875 "/></g></g></g><g fill="#ffffff" fill-opacity="1"><g transform="translate(242.441016, 22.00639)"><g><path d="M 5.734375 -1.609375 C 5.734375 -1.203125 5.609375 -0.863281 5.359375 -0.59375 C 5.109375 -0.320312 4.78125 -0.128906 4.375 -0.015625 C 3.96875 0.0976562 3.484375 0.15625 2.921875 0.15625 C 2.066406 0.15625 1.394531 0.0351562 0.90625 -0.203125 C 0.425781 -0.453125 0.1875 -0.832031 0.1875 -1.34375 C 0.1875 -1.914062 0.539062 -2.203125 1.25 -2.203125 C 1.363281 -2.203125 1.4375 -2.179688 1.46875 -2.140625 C 1.507812 -2.097656 1.53125 -2.015625 1.53125 -1.890625 L 1.53125 -1.0625 C 1.6875 -0.976562 1.910156 -0.914062 2.203125 -0.875 C 2.492188 -0.832031 2.789062 -0.8125 3.09375 -0.8125 C 3.445312 -0.8125 3.738281 -0.882812 3.96875 -1.03125 C 4.195312 -1.175781 4.3125 -1.378906 4.3125 -1.640625 C 4.3125 -1.816406 4.253906 -1.976562 4.140625 -2.125 C 4.023438 -2.269531 3.867188 -2.382812 3.671875 -2.46875 C 3.484375 -2.5625 3.265625 -2.648438 3.015625 -2.734375 C 2.773438 -2.828125 2.53125 -2.910156 2.28125 -2.984375 C 2.03125 -3.066406 1.78125 -3.164062 1.53125 -3.28125 C 1.289062 -3.40625 1.070312 -3.535156 0.875 -3.671875 C 0.6875 -3.804688 0.535156 -3.984375 0.421875 -4.203125 C 0.304688 -4.429688 0.25 -4.6875 0.25 -4.96875 C 0.25 -5.320312 0.378906 -5.628906 0.640625 -5.890625 C 0.910156 -6.160156 1.238281 -6.351562 1.625 -6.46875 C 2.007812 -6.582031 2.425781 -6.640625 2.875 -6.640625 C 4.6875 -6.640625 5.59375 -6.113281 5.59375 -5.0625 C 5.59375 -5 5.578125 -4.929688 5.546875 -4.859375 C 5.523438 -4.785156 5.484375 -4.695312 5.421875 -4.59375 C 5.359375 -4.5 5.253906 -4.421875 5.109375 -4.359375 C 4.960938 -4.296875 4.78125 -4.265625 4.5625 -4.265625 C 4.519531 -4.265625 4.484375 -4.269531 4.453125 -4.28125 C 4.429688 -4.289062 4.414062 -4.300781 4.40625 -4.3125 C 4.394531 -4.320312 4.382812 -4.335938 4.375 -4.359375 C 4.363281 -4.390625 4.351562 -4.410156 4.34375 -4.421875 C 4.34375 -4.429688 4.335938 -4.457031 4.328125 -4.5 C 4.328125 -4.539062 4.328125 -4.570312 4.328125 -4.59375 L 4.25 -5.4375 C 4.1875 -5.5 4.007812 -5.5625 3.71875 -5.625 C 3.425781 -5.695312 3.175781 -5.734375 2.96875 -5.734375 C 2.550781 -5.734375 2.242188 -5.65625 2.046875 -5.5 C 1.847656 -5.34375 1.75 -5.148438 1.75 -4.921875 C 1.75 -4.753906 1.820312 -4.601562 1.96875 -4.46875 C 2.113281 -4.34375 2.300781 -4.234375 2.53125 -4.140625 C 2.769531 -4.046875 3.03125 -3.953125 3.3125 -3.859375 C 3.601562 -3.773438 3.890625 -3.671875 4.171875 -3.546875 C 4.453125 -3.421875 4.707031 -3.28125 4.9375 -3.125 C 5.175781 -2.96875 5.367188 -2.757812 5.515625 -2.5 C 5.660156 -2.238281 5.734375 -1.941406 5.734375 -1.609375 Z M 5.734375 -1.609375 "/></g></g></g><g fill="#ffffff" fill-opacity="1"><g transform="translate(248.37221, 22.00639)"><g/></g></g><g fill="#ffffff" fill-opacity="1"><g transform="translate(251.404518, 22.00639)"><g><path d="M 5.171875 -3.59375 L 5.171875 -1.609375 C 5.171875 -1.546875 5.171875 -1.492188 5.171875 -1.453125 C 5.179688 -1.421875 5.195312 -1.382812 5.21875 -1.34375 C 5.238281 -1.300781 5.273438 -1.269531 5.328125 -1.25 C 5.390625 -1.226562 5.46875 -1.21875 5.5625 -1.21875 C 5.738281 -1.21875 5.894531 -1.191406 6.03125 -1.140625 C 6.164062 -1.085938 6.234375 -1.015625 6.234375 -0.921875 C 6.234375 -0.378906 6.164062 -0.0507812 6.03125 0.0625 C 5.425781 0.0195312 4.90625 0 4.46875 0 C 4.0625 0 3.5625 0.0195312 2.96875 0.0625 C 2.875 0 2.804688 -0.125 2.765625 -0.3125 C 2.722656 -0.507812 2.703125 -0.710938 2.703125 -0.921875 C 2.703125 -1.015625 2.769531 -1.085938 2.90625 -1.140625 C 3.039062 -1.191406 3.203125 -1.21875 3.390625 -1.21875 C 3.546875 -1.21875 3.644531 -1.25 3.6875 -1.3125 C 3.738281 -1.375 3.765625 -1.46875 3.765625 -1.59375 L 3.765625 -3.59375 L 1.484375 -7.484375 C 1.328125 -7.734375 1.125 -7.859375 0.875 -7.859375 C 0.695312 -7.859375 0.535156 -7.882812 0.390625 -7.9375 C 0.242188 -7.988281 0.144531 -8.0625 0.09375 -8.15625 C 0.09375 -8.238281 0.0859375 -8.378906 0.078125 -8.578125 C 0.0664062 -8.773438 0.0625 -8.910156 0.0625 -8.984375 C 0.0625 -9.054688 0.0820312 -9.101562 0.125 -9.125 C 0.632812 -9.09375 1.203125 -9.078125 1.828125 -9.078125 C 2.453125 -9.078125 2.96875 -9.09375 3.375 -9.125 C 3.382812 -9.09375 3.4375 -8.753906 3.53125 -8.109375 C 3.53125 -8.109375 3.53125 -8.101562 3.53125 -8.09375 C 3.53125 -8.082031 3.53125 -8.078125 3.53125 -8.078125 C 3.53125 -7.992188 3.460938 -7.9375 3.328125 -7.90625 C 3.203125 -7.882812 3.070312 -7.863281 2.9375 -7.84375 C 2.800781 -7.832031 2.734375 -7.796875 2.734375 -7.734375 C 2.734375 -7.691406 2.769531 -7.601562 2.84375 -7.46875 L 4.328125 -4.890625 C 4.441406 -4.703125 4.507812 -4.601562 4.53125 -4.59375 C 4.5625 -4.601562 4.625 -4.703125 4.71875 -4.890625 C 5.40625 -6.085938 5.90625 -6.945312 6.21875 -7.46875 C 6.28125 -7.59375 6.3125 -7.679688 6.3125 -7.734375 C 6.3125 -7.796875 6.242188 -7.832031 6.109375 -7.84375 C 5.984375 -7.863281 5.851562 -7.882812 5.71875 -7.90625 C 5.59375 -7.9375 5.53125 -7.992188 5.53125 -8.078125 C 5.53125 -8.078125 5.53125 -8.082031 5.53125 -8.09375 C 5.53125 -8.101562 5.53125 -8.109375 5.53125 -8.109375 C 5.625 -8.753906 5.675781 -9.09375 5.6875 -9.125 C 6.0625 -9.09375 6.535156 -9.078125 7.109375 -9.078125 C 7.742188 -9.078125 8.3125 -9.09375 8.8125 -9.125 C 8.851562 -9.101562 8.875 -9.054688 8.875 -8.984375 C 8.875 -8.941406 8.867188 -8.894531 8.859375 -8.84375 L 8.859375 -8.765625 C 8.859375 -8.722656 8.859375 -8.65625 8.859375 -8.5625 C 8.859375 -8.476562 8.859375 -8.410156 8.859375 -8.359375 C 8.859375 -8.316406 8.851562 -8.25 8.84375 -8.15625 C 8.789062 -8.0625 8.691406 -7.988281 8.546875 -7.9375 C 8.398438 -7.882812 8.242188 -7.859375 8.078125 -7.859375 C 7.804688 -7.859375 7.597656 -7.734375 7.453125 -7.484375 Z M 5.171875 -3.59375 "/></g></g></g><g fill="#ffffff" fill-opacity="1"><g transform="translate(260.343761, 22.00639)"><g><path d="M 0.484375 -1.75 C 0.296875 -2.195312 0.203125 -2.691406 0.203125 -3.234375 C 0.203125 -3.785156 0.296875 -4.28125 0.484375 -4.71875 C 0.679688 -5.164062 0.941406 -5.523438 1.265625 -5.796875 C 1.597656 -6.066406 1.960938 -6.273438 2.359375 -6.421875 C 2.753906 -6.566406 3.171875 -6.640625 3.609375 -6.640625 C 4.046875 -6.640625 4.460938 -6.566406 4.859375 -6.421875 C 5.265625 -6.273438 5.625 -6.066406 5.9375 -5.796875 C 6.257812 -5.523438 6.519531 -5.164062 6.71875 -4.71875 C 6.914062 -4.28125 7.015625 -3.785156 7.015625 -3.234375 C 7.015625 -2.691406 6.914062 -2.195312 6.71875 -1.75 C 6.519531 -1.3125 6.257812 -0.953125 5.9375 -0.671875 C 5.625 -0.398438 5.265625 -0.191406 4.859375 -0.046875 C 4.460938 0.0859375 4.046875 0.15625 3.609375 0.15625 C 3.171875 0.15625 2.753906 0.0859375 2.359375 -0.046875 C 1.960938 -0.191406 1.597656 -0.398438 1.265625 -0.671875 C 0.941406 -0.953125 0.679688 -1.3125 0.484375 -1.75 Z M 2.203125 -4.984375 C 1.816406 -4.566406 1.625 -3.984375 1.625 -3.234375 C 1.625 -2.492188 1.816406 -1.914062 2.203125 -1.5 C 2.597656 -1.082031 3.066406 -0.875 3.609375 -0.875 C 3.859375 -0.875 4.097656 -0.921875 4.328125 -1.015625 C 4.566406 -1.117188 4.78125 -1.265625 4.96875 -1.453125 C 5.15625 -1.648438 5.304688 -1.898438 5.421875 -2.203125 C 5.535156 -2.515625 5.59375 -2.859375 5.59375 -3.234375 C 5.59375 -3.617188 5.535156 -3.960938 5.421875 -4.265625 C 5.304688 -4.578125 5.15625 -4.828125 4.96875 -5.015625 C 4.78125 -5.210938 4.566406 -5.359375 4.328125 -5.453125 C 4.097656 -5.554688 3.859375 -5.609375 3.609375 -5.609375 C 3.066406 -5.609375 2.597656 -5.398438 2.203125 -4.984375 Z M 2.203125 -4.984375 "/></g></g></g><g fill="#ffffff" fill-opacity="1"><g transform="translate(267.584912, 22.00639)"><g><path d="M 6.765625 -6.109375 L 6.765625 -1.65625 C 6.765625 -1.550781 6.765625 -1.472656 6.765625 -1.421875 C 6.773438 -1.378906 6.785156 -1.332031 6.796875 -1.28125 C 6.816406 -1.226562 6.847656 -1.191406 6.890625 -1.171875 C 6.941406 -1.148438 7.003906 -1.132812 7.078125 -1.125 C 7.148438 -1.113281 7.242188 -1.109375 7.359375 -1.109375 C 7.546875 -1.109375 7.660156 -1.082031 7.703125 -1.03125 C 7.753906 -0.988281 7.78125 -0.898438 7.78125 -0.765625 C 7.78125 -0.566406 7.753906 -0.390625 7.703125 -0.234375 C 7.660156 -0.078125 7.625 0.015625 7.59375 0.046875 C 7.289062 0.015625 7.015625 0 6.765625 0 C 6.597656 0 6.425781 0.00390625 6.25 0.015625 C 6.070312 0.0351562 5.960938 0.046875 5.921875 0.046875 C 5.753906 0.046875 5.65625 0 5.625 -0.09375 C 5.59375 -0.195312 5.578125 -0.457031 5.578125 -0.875 C 5.296875 -0.539062 4.953125 -0.285156 4.546875 -0.109375 C 4.148438 0.0664062 3.75 0.15625 3.34375 0.15625 C 3.039062 0.15625 2.757812 0.101562 2.5 0 C 2.238281 -0.09375 2 -0.234375 1.78125 -0.421875 C 1.570312 -0.617188 1.40625 -0.878906 1.28125 -1.203125 C 1.164062 -1.535156 1.109375 -1.910156 1.109375 -2.328125 L 1.109375 -4.765625 C 1.109375 -5.148438 1.007812 -5.347656 0.8125 -5.359375 C 0.78125 -5.367188 0.734375 -5.375 0.671875 -5.375 C 0.609375 -5.375 0.5625 -5.375 0.53125 -5.375 C 0.5 -5.382812 0.457031 -5.390625 0.40625 -5.390625 C 0.351562 -5.398438 0.3125 -5.40625 0.28125 -5.40625 C 0.257812 -5.414062 0.226562 -5.425781 0.1875 -5.4375 C 0.15625 -5.445312 0.128906 -5.457031 0.109375 -5.46875 C 0.0859375 -5.488281 0.0664062 -5.503906 0.046875 -5.515625 C 0.0234375 -5.535156 0.0078125 -5.554688 0 -5.578125 C -0.0078125 -5.597656 -0.015625 -5.625 -0.015625 -5.65625 C -0.015625 -6.125 0.0507812 -6.414062 0.1875 -6.53125 C 0.570312 -6.488281 0.921875 -6.46875 1.234375 -6.46875 C 1.460938 -6.46875 1.691406 -6.476562 1.921875 -6.5 C 2.148438 -6.519531 2.269531 -6.53125 2.28125 -6.53125 C 2.414062 -6.53125 2.484375 -6.390625 2.484375 -6.109375 L 2.484375 -2.25 C 2.484375 -1.8125 2.597656 -1.476562 2.828125 -1.25 C 3.054688 -1.03125 3.351562 -0.921875 3.71875 -0.921875 C 4.019531 -0.921875 4.320312 -1 4.625 -1.15625 C 4.9375 -1.320312 5.191406 -1.546875 5.390625 -1.828125 L 5.390625 -4.765625 C 5.390625 -5.148438 5.289062 -5.347656 5.09375 -5.359375 C 5.0625 -5.367188 5.015625 -5.375 4.953125 -5.375 C 4.890625 -5.375 4.84375 -5.375 4.8125 -5.375 C 4.78125 -5.382812 4.738281 -5.390625 4.6875 -5.390625 C 4.632812 -5.398438 4.59375 -5.40625 4.5625 -5.40625 C 4.539062 -5.414062 4.507812 -5.425781 4.46875 -5.4375 C 4.4375 -5.445312 4.410156 -5.457031 4.390625 -5.46875 C 4.367188 -5.488281 4.347656 -5.503906 4.328125 -5.515625 C 4.304688 -5.535156 4.289062 -5.554688 4.28125 -5.578125 C 4.269531 -5.597656 4.265625 -5.625 4.265625 -5.65625 C 4.265625 -6.125 4.332031 -6.414062 4.46875 -6.53125 C 4.851562 -6.488281 5.203125 -6.46875 5.515625 -6.46875 C 5.785156 -6.46875 6.054688 -6.476562 6.328125 -6.5 C 6.609375 -6.519531 6.753906 -6.53125 6.765625 -6.53125 C 6.765625 -6.53125 6.765625 -6.390625 6.765625 -6.109375 Z M 6.765625 -6.109375 "/></g></g></g><g clip-path="url(#id4)"><path fill="#ff5757" d="M 288.285156 12.863281 C 288.867188 14.125 290.371094 14.734375 291.703125 14.523438 C 292.25 14.441406 292.789062 14.234375 293.207031 13.863281 C 294.15625 13.03125 294.308594 11.582031 294.25 10.289062 C 294.1875 8.90625 293.957031 7.5 293.332031 6.277344 C 292.703125 5.050781 291.636719 4.023438 290.335938 3.699219 L 289.941406 5.164062 C 289.941406 5.164062 291.035156 5.445312 292.046875 7.285156 C 292.625 8.332031 292.402344 9.421875 292.402344 9.421875 L 292.328125 9.339844 C 290.460938 8.179688 289.621094 8.941406 288.859375 9.75 C 288.21875 10.433594 287.816406 11.84375 288.285156 12.863281 Z M 288.285156 12.863281 " fill-opacity="1" fill-rule="nonzero"/></g><g clip-path="url(#id5)"><path fill="#ff5757" d="M 281.386719 13.453125 C 281.921875 14.921875 283.082031 15.421875 284.597656 15.511719 C 285.148438 15.542969 285.972656 15.222656 286.390625 14.855469 C 287.339844 14.019531 287.542969 12.339844 287.554688 11.046875 C 287.566406 9.671875 287.207031 7.921875 286.578125 6.699219 C 285.980469 5.535156 285.039062 4.878906 283.828125 4.511719 C 283.722656 4.476562 283.613281 4.539062 283.582031 4.644531 L 283.128906 5.933594 C 283.128906 5.933594 284.597656 6.136719 285.378906 7.710938 C 286.132812 9.226562 285.691406 10.089844 285.691406 10.089844 L 285.617188 10.007812 C 283.96875 8.960938 282.9375 9.53125 282.449219 9.851562 C 281.183594 10.691406 281 12.398438 281.386719 13.453125 Z M 281.386719 13.453125 " fill-opacity="1" fill-rule="nonzero"/></g></svg>