<svg xmlns="http://www.w3.org/2000/svg" xmlns:xlink="http://www.w3.org/1999/xlink" width="200" zoomAndPan="magnify" viewBox="0 0 150 37.5" height="50" preserveAspectRatio="xMidYMid meet" version="1.0"><defs><g/><clipPath id="id1"><path d="M 18 12 L 43.914062 12 L 43.914062 37.007812 L 18 37.007812 Z M 18 12 " clip-rule="nonzero"/></clipPath><clipPath id="id2"><path d="M 0.988281 1 L 35 1 L 35 31 L 0.988281 31 Z M 0.988281 1 " clip-rule="nonzero"/></clipPath><clipPath id="id3"><path d="M 53 26 L 55 26 L 55 26.613281 L 53 26.613281 Z M 53 26 " clip-rule="nonzero"/></clipPath><clipPath id="id4"><path d="M 45 21.433594 L 142 21.433594 L 142 26.613281 L 45 26.613281 Z M 45 21.433594 " clip-rule="nonzero"/></clipPath><clipPath id="id5"><path d="M 62 21.433594 L 63 21.433594 L 63 22 L 62 22 Z M 62 21.433594 " clip-rule="nonzero"/></clipPath><clipPath id="id6"><path d="M 60 21.433594 L 61 21.433594 L 61 22 L 60 22 Z M 60 21.433594 " clip-rule="nonzero"/></clipPath><clipPath id="id7"><path d="M 64 21.433594 L 65 21.433594 L 65 22 L 64 22 Z M 64 21.433594 " clip-rule="nonzero"/></clipPath></defs><g clip-path="url(#id1)"><path fill="#f3952f" d="M 31.445312 36.027344 C 25.113281 36.027344 19.960938 30.890625 19.960938 24.582031 C 19.960938 18.269531 25.113281 13.132812 31.445312 13.132812 C 37.78125 13.132812 42.933594 18.269531 42.933594 24.582031 C 42.933594 30.890625 37.78125 36.027344 31.445312 36.027344 Z M 31.445312 12.152344 C 24.570312 12.152344 18.976562 17.726562 18.976562 24.582031 C 18.976562 31.433594 24.570312 37.007812 31.445312 37.007812 C 38.324219 37.007812 43.917969 31.433594 43.917969 24.582031 C 43.917969 17.726562 38.324219 12.152344 31.445312 12.152344 " fill-opacity="1" fill-rule="nonzero"/></g><path fill="#f3952f" d="M 31.445312 15.222656 C 31.601562 15.222656 31.726562 15.097656 31.726562 14.941406 L 31.726562 14.261719 C 31.726562 14.105469 31.601562 13.980469 31.445312 13.980469 C 31.292969 13.980469 31.164062 14.105469 31.164062 14.261719 L 31.164062 14.941406 C 31.164062 15.097656 31.292969 15.222656 31.445312 15.222656 " fill-opacity="1" fill-rule="nonzero"/><path fill="#f3952f" d="M 31.445312 33.9375 C 31.292969 33.9375 31.164062 34.0625 31.164062 34.21875 L 31.164062 34.902344 C 31.164062 35.054688 31.292969 35.179688 31.445312 35.179688 C 31.601562 35.179688 31.726562 35.054688 31.726562 34.902344 L 31.726562 34.21875 C 31.726562 34.0625 31.601562 33.9375 31.445312 33.9375 " fill-opacity="1" fill-rule="nonzero"/><path fill="#f3952f" d="M 41.800781 24.300781 L 41.117188 24.300781 C 40.960938 24.300781 40.835938 24.425781 40.835938 24.582031 C 40.835938 24.734375 40.960938 24.859375 41.117188 24.859375 L 41.800781 24.859375 C 41.957031 24.859375 42.082031 24.734375 42.082031 24.582031 C 42.082031 24.425781 41.957031 24.300781 41.800781 24.300781 " fill-opacity="1" fill-rule="nonzero"/><path fill="#f3952f" d="M 21.773438 24.300781 L 21.089844 24.300781 C 20.933594 24.300781 20.808594 24.425781 20.808594 24.582031 C 20.808594 24.734375 20.933594 24.859375 21.089844 24.859375 L 21.773438 24.859375 C 21.929688 24.859375 22.054688 24.734375 22.054688 24.582031 C 22.054688 24.425781 21.929688 24.300781 21.773438 24.300781 " fill-opacity="1" fill-rule="nonzero"/><path fill="#f3952f" d="M 40.347656 29.855469 L 39.765625 29.5 C 39.691406 29.453125 39.589844 29.476562 39.542969 29.550781 C 39.5 29.625 39.523438 29.726562 39.597656 29.769531 L 40.179688 30.128906 C 40.207031 30.144531 40.234375 30.152344 40.265625 30.152344 C 40.316406 30.152344 40.371094 30.125 40.402344 30.078125 C 40.445312 30.003906 40.421875 29.902344 40.347656 29.855469 " fill-opacity="1" fill-rule="nonzero"/><path fill="#f3952f" d="M 23.296875 19.390625 L 22.710938 19.03125 C 22.636719 18.984375 22.539062 19.007812 22.492188 19.082031 C 22.445312 19.160156 22.46875 19.257812 22.542969 19.304688 L 23.128906 19.660156 C 23.152344 19.679688 23.183594 19.6875 23.210938 19.6875 C 23.265625 19.6875 23.316406 19.660156 23.347656 19.609375 C 23.394531 19.535156 23.371094 19.4375 23.296875 19.390625 " fill-opacity="1" fill-rule="nonzero"/><path fill="#f3952f" d="M 36.222656 32.964844 C 36.179688 32.886719 36.082031 32.855469 36.003906 32.898438 C 35.925781 32.941406 35.898438 33.039062 35.941406 33.117188 L 36.269531 33.714844 C 36.296875 33.769531 36.351562 33.796875 36.410156 33.796875 C 36.433594 33.796875 36.460938 33.792969 36.484375 33.777344 C 36.5625 33.738281 36.59375 33.640625 36.550781 33.5625 L 36.222656 32.964844 " fill-opacity="1" fill-rule="nonzero"/><path fill="#f3952f" d="M 26.625 15.445312 C 26.582031 15.367188 26.484375 15.339844 26.40625 15.382812 C 26.328125 15.425781 26.300781 15.519531 26.34375 15.597656 L 26.671875 16.199219 C 26.699219 16.25 26.753906 16.28125 26.8125 16.28125 C 26.839844 16.28125 26.863281 16.273438 26.886719 16.261719 C 26.964844 16.21875 26.996094 16.121094 26.953125 16.042969 L 26.625 15.445312 " fill-opacity="1" fill-rule="nonzero"/><path fill="#f3952f" d="M 23.128906 29.5 L 22.542969 29.855469 C 22.46875 29.902344 22.445312 30.003906 22.492188 30.078125 C 22.523438 30.125 22.574219 30.152344 22.628906 30.152344 C 22.65625 30.152344 22.6875 30.144531 22.710938 30.128906 L 23.296875 29.769531 C 23.371094 29.726562 23.394531 29.625 23.347656 29.550781 C 23.300781 29.476562 23.203125 29.453125 23.128906 29.5 " fill-opacity="1" fill-rule="nonzero"/><path fill="#f3952f" d="M 40.179688 19.03125 L 39.597656 19.390625 C 39.523438 19.4375 39.5 19.535156 39.542969 19.609375 C 39.574219 19.660156 39.628906 19.6875 39.679688 19.6875 C 39.710938 19.6875 39.738281 19.679688 39.765625 19.660156 L 40.347656 19.304688 C 40.421875 19.257812 40.445312 19.160156 40.402344 19.082031 C 40.355469 19.007812 40.253906 18.984375 40.179688 19.03125 " fill-opacity="1" fill-rule="nonzero"/><path fill="#f3952f" d="M 26.886719 32.898438 C 26.8125 32.855469 26.714844 32.886719 26.671875 32.964844 L 26.34375 33.5625 C 26.300781 33.640625 26.328125 33.738281 26.40625 33.777344 C 26.429688 33.792969 26.457031 33.796875 26.484375 33.796875 C 26.539062 33.796875 26.59375 33.769531 26.625 33.714844 L 26.953125 33.117188 C 26.996094 33.039062 26.964844 32.941406 26.886719 32.898438 " fill-opacity="1" fill-rule="nonzero"/><path fill="#f3952f" d="M 36.484375 15.382812 C 36.40625 15.339844 36.3125 15.367188 36.269531 15.445312 L 35.941406 16.042969 C 35.898438 16.121094 35.925781 16.21875 36.003906 16.261719 C 36.027344 16.273438 36.054688 16.28125 36.082031 16.28125 C 36.136719 16.28125 36.191406 16.25 36.222656 16.199219 L 36.550781 15.597656 C 36.59375 15.519531 36.5625 15.425781 36.484375 15.382812 " fill-opacity="1" fill-rule="nonzero"/><path fill="#f3952f" d="M 36.242188 21.621094 L 35.921875 21.160156 L 31.871094 23.949219 C 31.746094 23.878906 31.601562 23.835938 31.445312 23.835938 C 31.414062 23.835938 31.378906 23.839844 31.347656 23.84375 L 27.550781 17.183594 L 27.0625 17.460938 L 30.839844 24.085938 C 30.683594 24.242188 30.589844 24.453125 30.589844 24.691406 C 30.589844 25.164062 30.972656 25.546875 31.445312 25.546875 C 31.921875 25.546875 32.304688 25.164062 32.304688 24.691406 C 32.304688 24.578125 32.28125 24.472656 32.242188 24.375 L 36.242188 21.621094 " fill-opacity="1" fill-rule="nonzero"/><g clip-path="url(#id2)"><path fill="#f3952f" d="M 2.925781 29.089844 C 2.464844 29.089844 2.085938 28.714844 2.085938 28.253906 L 2.085938 6.746094 L 33.226562 6.746094 L 33.226562 11.5625 C 33.597656 11.613281 33.960938 11.679688 34.320312 11.757812 L 34.320312 2.992188 C 34.320312 1.929688 33.453125 1.0625 32.386719 1.0625 L 31.632812 1.0625 L 31.632812 3.65625 L 29.773438 3.65625 L 29.773438 1.0625 L 28.371094 1.0625 L 28.371094 3.65625 L 26.511719 3.65625 L 26.511719 1.0625 L 25.109375 1.0625 L 25.109375 3.65625 L 23.25 3.65625 L 23.25 1.0625 L 21.847656 1.0625 L 21.847656 3.65625 L 19.988281 3.65625 L 19.988281 1.0625 L 18.585938 1.0625 L 18.585938 3.65625 L 16.726562 3.65625 L 16.726562 1.0625 L 15.324219 1.0625 L 15.324219 3.65625 L 13.464844 3.65625 L 13.464844 1.0625 L 12.0625 1.0625 L 12.0625 3.65625 L 10.203125 3.65625 L 10.203125 1.0625 L 8.800781 1.0625 L 8.800781 3.65625 L 6.941406 3.65625 L 6.941406 1.0625 L 5.539062 1.0625 L 5.539062 3.65625 L 3.679688 3.65625 L 3.679688 1.0625 L 2.925781 1.0625 C 1.859375 1.0625 0.992188 1.929688 0.992188 2.992188 L 0.992188 28.253906 C 0.992188 29.316406 1.859375 30.179688 2.925781 30.179688 L 19.519531 30.179688 C 19.351562 29.824219 19.199219 29.460938 19.0625 29.089844 L 2.925781 29.089844 " fill-opacity="1" fill-rule="nonzero"/></g><path fill="#f3952f" d="M 5.101562 -0.00390625 L 4.117188 -0.00390625 L 4.117188 3.222656 L 5.101562 3.222656 L 5.101562 -0.00390625 " fill-opacity="1" fill-rule="nonzero"/><path fill="#f3952f" d="M 8.363281 -0.00390625 L 7.378906 -0.00390625 L 7.378906 3.222656 L 8.363281 3.222656 L 8.363281 -0.00390625 " fill-opacity="1" fill-rule="nonzero"/><path fill="#f3952f" d="M 11.625 -0.00390625 L 10.640625 -0.00390625 L 10.640625 3.222656 L 11.625 3.222656 L 11.625 -0.00390625 " fill-opacity="1" fill-rule="nonzero"/><path fill="#f3952f" d="M 14.886719 -0.00390625 L 13.902344 -0.00390625 L 13.902344 3.222656 L 14.886719 3.222656 L 14.886719 -0.00390625 " fill-opacity="1" fill-rule="nonzero"/><path fill="#f3952f" d="M 18.148438 -0.00390625 L 17.164062 -0.00390625 L 17.164062 3.222656 L 18.148438 3.222656 L 18.148438 -0.00390625 " fill-opacity="1" fill-rule="nonzero"/><path fill="#f3952f" d="M 21.410156 -0.00390625 L 20.425781 -0.00390625 L 20.425781 3.222656 L 21.410156 3.222656 L 21.410156 -0.00390625 " fill-opacity="1" fill-rule="nonzero"/><path fill="#f3952f" d="M 24.671875 -0.00390625 L 23.6875 -0.00390625 L 23.6875 3.222656 L 24.671875 3.222656 L 24.671875 -0.00390625 " fill-opacity="1" fill-rule="nonzero"/><path fill="#f3952f" d="M 27.933594 -0.00390625 L 26.949219 -0.00390625 L 26.949219 3.222656 L 27.933594 3.222656 L 27.933594 -0.00390625 " fill-opacity="1" fill-rule="nonzero"/><path fill="#f3952f" d="M 31.195312 -0.00390625 L 30.210938 -0.00390625 L 30.210938 3.222656 L 31.195312 3.222656 L 31.195312 -0.00390625 " fill-opacity="1" fill-rule="nonzero"/><path fill="#f3952f" d="M 8.464844 14.578125 L 5.769531 14.578125 L 5.769531 15.558594 L 8.464844 15.558594 L 8.464844 14.578125 " fill-opacity="1" fill-rule="nonzero"/><path fill="#f3952f" d="M 15.195312 14.578125 L 12.5 14.578125 L 12.5 15.558594 L 15.195312 15.558594 L 15.195312 14.578125 " fill-opacity="1" fill-rule="nonzero"/><path fill="#f3952f" d="M 21.925781 14.578125 L 19.230469 14.578125 L 19.230469 15.558594 L 21.925781 15.558594 L 21.925781 14.578125 " fill-opacity="1" fill-rule="nonzero"/><path fill="#f3952f" d="M 19.078125 20.46875 L 19.125 20.46875 C 19.238281 20.136719 19.363281 19.808594 19.5 19.488281 L 19.078125 19.488281 L 19.078125 20.46875 " fill-opacity="1" fill-rule="nonzero"/><path fill="#f3952f" d="M 8.464844 9.671875 L 5.769531 9.671875 L 5.769531 10.652344 L 8.464844 10.652344 L 8.464844 9.671875 " fill-opacity="1" fill-rule="nonzero"/><path fill="#f3952f" d="M 15.195312 9.671875 L 12.5 9.671875 L 12.5 10.652344 L 15.195312 10.652344 L 15.195312 9.671875 " fill-opacity="1" fill-rule="nonzero"/><path fill="#f3952f" d="M 21.925781 9.671875 L 19.230469 9.671875 L 19.230469 10.652344 L 21.925781 10.652344 L 21.925781 9.671875 " fill-opacity="1" fill-rule="nonzero"/><path fill="#f3952f" d="M 5.769531 25.375 L 8.464844 25.375 L 8.464844 24.394531 L 5.769531 24.394531 L 5.769531 25.375 " fill-opacity="1" fill-rule="nonzero"/><path fill="#f3952f" d="M 12.5 25.375 L 15.195312 25.375 L 15.195312 24.394531 L 12.5 24.394531 L 12.5 25.375 " fill-opacity="1" fill-rule="nonzero"/><path fill="#f3952f" d="M 8.464844 19.488281 L 5.769531 19.488281 L 5.769531 20.46875 L 8.464844 20.46875 L 8.464844 19.488281 " fill-opacity="1" fill-rule="nonzero"/><path fill="#f3952f" d="M 15.195312 19.488281 L 12.5 19.488281 L 12.5 20.46875 L 15.195312 20.46875 L 15.195312 19.488281 " fill-opacity="1" fill-rule="nonzero"/><path fill="#f3952f" d="M 28.65625 10.652344 L 28.65625 9.671875 L 25.960938 9.671875 L 25.960938 10.652344 L 28.65625 10.652344 " fill-opacity="1" fill-rule="nonzero"/><g clip-path="url(#id3)"><path fill="#ff5757" d="M 54.136719 26.121094 C 54.179688 26.183594 54.179688 26.269531 54.09375 26.378906 C 54.027344 26.441406 53.9375 26.484375 53.847656 26.527344 C 53.628906 26.613281 53.539062 26.441406 53.429688 26.355469 C 53.40625 26.335938 53.363281 26.3125 53.339844 26.3125 C 53.585938 26.121094 53.847656 26.054688 54.136719 26.121094 Z M 54.136719 26.121094 " fill-opacity="1" fill-rule="nonzero"/></g><g clip-path="url(#id4)"><path fill="#ff5757" d="M 46.023438 23.175781 C 45.9375 23.003906 45.957031 22.832031 46.199219 22.917969 C 46.488281 23.003906 46.710938 22.894531 46.996094 22.808594 C 47.617188 22.59375 48.277344 22.316406 48.921875 22.316406 C 49.605469 22.316406 50.113281 21.972656 50.710938 21.863281 C 51.417969 21.734375 52.191406 21.671875 52.855469 21.84375 C 53.539062 22.015625 54.226562 21.714844 54.800781 21.949219 C 55.53125 22.25 56.257812 22.058594 56.945312 21.992188 C 57.585938 21.929688 58.203125 22.316406 58.867188 21.929688 C 59.066406 21.800781 59.554688 22.207031 59.90625 22.25 C 60.460938 22.316406 61.035156 22.359375 61.5625 22.25 C 62.226562 22.101562 62.867188 22.144531 63.554688 22.1875 C 65.277344 22.273438 67.003906 22.316406 68.726562 22.335938 C 69.65625 22.359375 70.5625 22.25 71.488281 22.292969 C 73.613281 22.421875 75.734375 22.359375 77.835938 22.378906 C 79.691406 22.1875 81.546875 22.402344 83.40625 22.488281 C 84.710938 22.550781 86.011719 22.316406 87.296875 22.746094 C 87.738281 22.617188 88.15625 22.636719 88.621094 22.636719 C 90.722656 22.703125 92.84375 22.722656 94.945312 22.746094 C 95.828125 22.746094 96.710938 22.660156 97.574219 22.917969 C 98.105469 23.089844 98.65625 23.046875 99.210938 22.851562 C 99.808594 22.636719 100.402344 22.703125 100.957031 23.046875 C 101.113281 23.089844 101.289062 23.175781 101.441406 23.132812 C 102.878906 22.789062 104.316406 22.917969 105.753906 23.132812 C 106.019531 23.175781 106.371094 23.28125 106.570312 23.175781 C 107.191406 22.851562 107.765625 23.132812 108.339844 23.132812 C 108.960938 23.132812 109.554688 23.066406 110.175781 23.21875 C 110.484375 23.304688 110.839844 23.324219 111.167969 23.28125 C 112.273438 23.175781 113.378906 23.21875 114.484375 23.28125 C 115.988281 23.347656 117.492188 23.261719 118.996094 23.410156 C 120.984375 23.628906 122.996094 23.671875 124.984375 23.671875 C 129.164062 23.671875 133.320312 24.078125 137.496094 24.25 C 137.941406 24.273438 138.492188 24.230469 138.800781 24.445312 C 139.507812 24.960938 140.328125 24.851562 141.410156 25.109375 C 136.28125 25.21875 131.527344 25.667969 126.730469 25.453125 C 124.519531 25.347656 122.289062 25.519531 120.078125 25.582031 C 119.238281 25.605469 118.398438 25.734375 117.582031 25.691406 C 115.636719 25.625 113.710938 25.410156 111.765625 25.734375 C 111.347656 25.796875 110.859375 25.777344 110.441406 25.691406 C 109.820312 25.582031 109.203125 25.625 108.605469 25.734375 C 107.921875 25.882812 107.324219 25.28125 106.636719 25.625 C 105.421875 25.476562 104.207031 25.839844 102.992188 25.496094 C 101.246094 25.476562 99.496094 25.949219 97.730469 25.605469 C 97.132812 25.882812 96.511719 25.5625 95.9375 25.605469 C 95.296875 25.648438 94.65625 25.710938 93.992188 25.734375 C 93.085938 25.753906 92.246094 25.519531 91.363281 25.496094 C 90.125 25.453125 88.910156 26.097656 87.648438 25.539062 C 86.832031 25.882812 86.011719 25.5625 85.195312 25.519531 C 84.753906 25.496094 84.246094 25.433594 83.890625 25.625 C 83.25 25.96875 82.632812 25.820312 81.988281 25.753906 C 81.769531 25.734375 81.527344 25.5625 81.347656 25.625 C 80.289062 26.011719 79.292969 25.519531 78.253906 25.496094 C 77.125 25.820312 76 25.949219 74.851562 25.539062 C 73.945312 25.410156 73.039062 25.710938 72.132812 25.539062 C 71.886719 25.496094 71.601562 25.648438 71.335938 25.710938 C 71.070312 25.753906 70.78125 25.863281 70.515625 25.820312 C 69.722656 25.667969 68.96875 25.925781 68.195312 25.90625 C 67.445312 25.882812 66.691406 25.777344 65.917969 25.839844 C 65.210938 25.90625 64.460938 26.035156 63.796875 25.96875 C 63.023438 25.90625 62.226562 26.011719 61.476562 25.90625 C 60.304688 25.734375 59.15625 25.691406 57.984375 25.839844 C 56.789062 25.96875 55.53125 25.582031 54.378906 26.226562 C 54.292969 26.183594 54.203125 26.164062 54.113281 26.140625 C 54.09375 26.078125 54.027344 26.035156 53.980469 26.011719 C 53.847656 25.949219 53.671875 25.949219 53.519531 25.949219 C 53.429688 25.949219 53.320312 26.011719 53.253906 26.078125 C 53.097656 26.25 53.207031 26.292969 53.320312 26.335938 C 53.273438 26.378906 53.230469 26.398438 53.1875 26.441406 C 53.121094 26.507812 52.855469 26.398438 52.746094 26.3125 C 52.523438 26.121094 52.347656 26.011719 52.015625 26.054688 C 51.308594 26.121094 50.621094 26.054688 49.914062 26.226562 C 48.921875 26.464844 47.949219 26.183594 46.976562 25.90625 C 46.6875 25.820312 46.445312 25.625 46.511719 25.324219 C 46.6875 24.574219 45.847656 24.746094 45.625 24.359375 C 45.9375 23.972656 46.3125 23.671875 46.023438 23.175781 Z M 99.253906 24.789062 C 99.320312 24.746094 99.363281 24.679688 99.429688 24.636719 C 99.363281 24.679688 99.320312 24.746094 99.253906 24.789062 Z M 75.46875 24.445312 C 75.558594 24.488281 75.644531 24.53125 75.710938 24.574219 C 75.644531 24.53125 75.558594 24.488281 75.46875 24.445312 Z M 89.574219 24.59375 C 89.375 24.574219 89.175781 24.574219 88.953125 24.550781 C 89.195312 24.574219 89.375 24.59375 89.574219 24.59375 Z M 93.242188 24.746094 C 93.308594 24.703125 93.375 24.636719 93.417969 24.617188 C 93.351562 24.636719 93.285156 24.703125 93.242188 24.746094 Z M 93.242188 24.746094 " fill-opacity="1" fill-rule="nonzero"/></g><g clip-path="url(#id5)"><path fill="#ff5757" d="M 62.601562 21.605469 C 62.472656 21.628906 62.316406 21.605469 62.160156 21.605469 C 62.160156 21.542969 62.160156 21.476562 62.183594 21.476562 C 62.339844 21.457031 62.472656 21.433594 62.625 21.457031 C 62.757812 21.476562 62.757812 21.5625 62.601562 21.605469 Z M 62.601562 21.605469 " fill-opacity="1" fill-rule="nonzero"/></g><g clip-path="url(#id6)"><path fill="#ff5757" d="M 60.460938 21.476562 C 60.503906 21.457031 60.546875 21.457031 60.589844 21.433594 C 60.636719 21.433594 60.679688 21.457031 60.722656 21.457031 C 60.65625 21.476562 60.613281 21.519531 60.546875 21.519531 C 60.527344 21.542969 60.503906 21.5 60.460938 21.476562 Z M 60.460938 21.476562 " fill-opacity="1" fill-rule="nonzero"/></g><g clip-path="url(#id7)"><path fill="#ff5757" d="M 64.019531 21.5 C 64.0625 21.476562 64.105469 21.433594 64.128906 21.433594 C 64.21875 21.433594 64.328125 21.457031 64.417969 21.457031 C 64.417969 21.476562 64.394531 21.519531 64.394531 21.519531 C 64.261719 21.519531 64.152344 21.5 64.019531 21.5 Z M 64.019531 21.5 " fill-opacity="1" fill-rule="nonzero"/></g><g fill="#022136" fill-opacity="1"><g transform="translate(40.528244, 17.008239)"><g><path d="M 3.984375 -1.921875 L 3.984375 -9.453125 C 3.984375 -9.503906 3.976562 -9.546875 3.96875 -9.578125 C 3.96875 -9.609375 3.953125 -9.632812 3.921875 -9.65625 C 3.898438 -9.6875 3.863281 -9.703125 3.8125 -9.703125 C 3.582031 -9.703125 3.25 -9.703125 2.8125 -9.703125 C 2.382812 -9.710938 2.070312 -9.71875 1.875 -9.71875 C 1.832031 -9.613281 1.757812 -9.367188 1.65625 -8.984375 C 1.5625 -8.597656 1.460938 -8.257812 1.359375 -7.96875 C 1.253906 -7.675781 1.164062 -7.53125 1.09375 -7.53125 C 0.90625 -7.53125 0.738281 -7.554688 0.59375 -7.609375 C 0.445312 -7.660156 0.335938 -7.71875 0.265625 -7.78125 C 0.191406 -7.851562 0.132812 -7.921875 0.09375 -7.984375 C 0.0625 -8.046875 0.046875 -8.09375 0.046875 -8.125 C 0.046875 -8.289062 0.132812 -8.789062 0.3125 -9.625 C 0.488281 -10.457031 0.613281 -10.910156 0.6875 -10.984375 C 0.695312 -10.984375 0.707031 -10.984375 0.71875 -10.984375 C 0.738281 -10.984375 0.753906 -10.984375 0.765625 -10.984375 C 2.210938 -10.859375 3.566406 -10.796875 4.828125 -10.796875 C 6.085938 -10.796875 7.441406 -10.859375 8.890625 -10.984375 C 8.898438 -10.984375 8.910156 -10.984375 8.921875 -10.984375 C 8.941406 -10.984375 8.960938 -10.984375 8.984375 -10.984375 C 9.046875 -10.910156 9.164062 -10.457031 9.34375 -9.625 C 9.53125 -8.789062 9.625 -8.289062 9.625 -8.125 C 9.625 -8.09375 9.601562 -8.046875 9.5625 -7.984375 C 9.53125 -7.921875 9.472656 -7.851562 9.390625 -7.78125 C 9.316406 -7.71875 9.207031 -7.660156 9.0625 -7.609375 C 8.925781 -7.554688 8.765625 -7.53125 8.578125 -7.53125 C 8.492188 -7.53125 8.398438 -7.675781 8.296875 -7.96875 C 8.191406 -8.257812 8.085938 -8.597656 7.984375 -8.984375 C 7.890625 -9.367188 7.820312 -9.613281 7.78125 -9.71875 C 7.59375 -9.71875 7.28125 -9.710938 6.84375 -9.703125 C 6.40625 -9.703125 6.070312 -9.703125 5.84375 -9.703125 C 5.769531 -9.703125 5.722656 -9.679688 5.703125 -9.640625 C 5.679688 -9.597656 5.671875 -9.535156 5.671875 -9.453125 L 5.671875 -1.9375 C 5.671875 -1.863281 5.675781 -1.804688 5.6875 -1.765625 C 5.695312 -1.722656 5.710938 -1.671875 5.734375 -1.609375 C 5.765625 -1.554688 5.8125 -1.515625 5.875 -1.484375 C 5.945312 -1.460938 6.035156 -1.453125 6.140625 -1.453125 C 6.367188 -1.453125 6.5625 -1.421875 6.71875 -1.359375 C 6.875 -1.304688 6.953125 -1.222656 6.953125 -1.109375 C 6.953125 -0.460938 6.875 -0.0664062 6.71875 0.078125 C 5.988281 0.0234375 5.363281 0 4.84375 0 C 4.332031 0 3.703125 0.0234375 2.953125 0.078125 C 2.796875 -0.0664062 2.71875 -0.460938 2.71875 -1.109375 C 2.71875 -1.222656 2.796875 -1.304688 2.953125 -1.359375 C 3.109375 -1.421875 3.300781 -1.453125 3.53125 -1.453125 C 3.71875 -1.453125 3.835938 -1.492188 3.890625 -1.578125 C 3.953125 -1.660156 3.984375 -1.773438 3.984375 -1.921875 Z M 3.984375 -1.921875 "/></g></g></g><g fill="#022136" fill-opacity="1"><g transform="translate(50.20222, 17.008239)"><g><path d="M 1.953125 -9.078125 C 1.835938 -9.078125 1.71875 -9.085938 1.59375 -9.109375 C 1.476562 -9.128906 1.347656 -9.171875 1.203125 -9.234375 C 1.054688 -9.296875 0.9375 -9.390625 0.84375 -9.515625 C 0.757812 -9.640625 0.71875 -9.789062 0.71875 -9.96875 C 0.71875 -10.5625 1.117188 -10.859375 1.921875 -10.859375 C 2.148438 -10.859375 2.34375 -10.828125 2.5 -10.765625 C 2.664062 -10.710938 2.785156 -10.632812 2.859375 -10.53125 C 2.929688 -10.4375 2.984375 -10.34375 3.015625 -10.25 C 3.046875 -10.15625 3.0625 -10.054688 3.0625 -9.953125 C 3.0625 -9.734375 2.988281 -9.550781 2.84375 -9.40625 C 2.707031 -9.269531 2.5625 -9.179688 2.40625 -9.140625 C 2.257812 -9.097656 2.109375 -9.078125 1.953125 -9.078125 Z M 3.15625 -7.140625 L 3.15625 -1.828125 C 3.15625 -1.753906 3.160156 -1.695312 3.171875 -1.65625 C 3.179688 -1.613281 3.195312 -1.566406 3.21875 -1.515625 C 3.25 -1.460938 3.296875 -1.421875 3.359375 -1.390625 C 3.429688 -1.367188 3.519531 -1.359375 3.625 -1.359375 C 3.8125 -1.359375 3.96875 -1.328125 4.09375 -1.265625 C 4.226562 -1.210938 4.296875 -1.125 4.296875 -1 C 4.296875 -0.4375 4.21875 -0.0820312 4.0625 0.0625 C 3.625 0.0195312 3.085938 0 2.453125 0 C 1.796875 0 1.179688 0.0195312 0.609375 0.0625 C 0.453125 -0.0820312 0.375 -0.4375 0.375 -1 C 0.375 -1.125 0.4375 -1.210938 0.5625 -1.265625 C 0.695312 -1.328125 0.859375 -1.359375 1.046875 -1.359375 C 1.234375 -1.359375 1.351562 -1.394531 1.40625 -1.46875 C 1.46875 -1.550781 1.5 -1.664062 1.5 -1.8125 L 1.5 -5.734375 C 1.5 -5.992188 1.425781 -6.175781 1.28125 -6.28125 C 1.132812 -6.382812 0.847656 -6.445312 0.421875 -6.46875 C 0.359375 -6.476562 0.316406 -6.507812 0.296875 -6.5625 C 0.285156 -6.613281 0.28125 -6.71875 0.28125 -6.875 C 0.28125 -7.125 0.304688 -7.34375 0.359375 -7.53125 C 0.410156 -7.71875 0.460938 -7.828125 0.515625 -7.859375 C 0.890625 -7.804688 1.253906 -7.78125 1.609375 -7.78125 C 1.835938 -7.78125 2.082031 -7.789062 2.34375 -7.8125 C 2.601562 -7.84375 2.738281 -7.859375 2.75 -7.859375 C 2.914062 -7.859375 3.023438 -7.816406 3.078125 -7.734375 C 3.128906 -7.648438 3.15625 -7.453125 3.15625 -7.140625 Z M 3.15625 -7.140625 "/></g></g></g><g fill="#022136" fill-opacity="1"><g transform="translate(54.732793, 17.008239)"><g><path d="M 3.078125 -7.140625 L 3.078125 -6.75 C 3.429688 -7.113281 3.851562 -7.410156 4.34375 -7.640625 C 4.832031 -7.867188 5.316406 -7.984375 5.796875 -7.984375 C 6.222656 -7.984375 6.613281 -7.875 6.96875 -7.65625 C 7.320312 -7.445312 7.601562 -7.117188 7.8125 -6.671875 C 8.25 -7.054688 8.734375 -7.367188 9.265625 -7.609375 C 9.804688 -7.859375 10.320312 -7.984375 10.8125 -7.984375 C 11.476562 -7.984375 12.015625 -7.738281 12.421875 -7.25 C 12.835938 -6.769531 13.046875 -6.019531 13.046875 -5 L 13.046875 -1.875 C 13.046875 -1.550781 13.171875 -1.378906 13.421875 -1.359375 C 13.472656 -1.359375 13.539062 -1.351562 13.625 -1.34375 C 13.707031 -1.34375 13.769531 -1.335938 13.8125 -1.328125 C 13.863281 -1.328125 13.925781 -1.320312 14 -1.3125 C 14.070312 -1.3125 14.128906 -1.304688 14.171875 -1.296875 C 14.222656 -1.285156 14.273438 -1.273438 14.328125 -1.265625 C 14.378906 -1.253906 14.421875 -1.238281 14.453125 -1.21875 C 14.484375 -1.207031 14.515625 -1.191406 14.546875 -1.171875 C 14.578125 -1.148438 14.597656 -1.125 14.609375 -1.09375 C 14.617188 -1.070312 14.625 -1.046875 14.625 -1.015625 C 14.625 -0.441406 14.546875 -0.0820312 14.390625 0.0625 C 13.816406 0.0195312 13.320312 0 12.90625 0 C 12.664062 0 12.421875 0.0078125 12.171875 0.03125 C 11.921875 0.0507812 11.742188 0.0625 11.640625 0.0625 C 11.472656 0.0625 11.390625 -0.125 11.390625 -0.5 L 11.390625 -4.859375 C 11.390625 -5.492188 11.285156 -5.957031 11.078125 -6.25 C 10.878906 -6.550781 10.613281 -6.703125 10.28125 -6.703125 C 9.945312 -6.703125 9.582031 -6.601562 9.1875 -6.40625 C 8.789062 -6.207031 8.414062 -5.953125 8.0625 -5.640625 C 8.09375 -5.421875 8.109375 -5.207031 8.109375 -5 L 8.109375 -1.875 C 8.109375 -1.550781 8.226562 -1.378906 8.46875 -1.359375 C 8.519531 -1.359375 8.582031 -1.351562 8.65625 -1.34375 C 8.738281 -1.34375 8.800781 -1.335938 8.84375 -1.328125 C 8.894531 -1.328125 8.953125 -1.320312 9.015625 -1.3125 C 9.085938 -1.3125 9.140625 -1.304688 9.171875 -1.296875 C 9.210938 -1.285156 9.257812 -1.273438 9.3125 -1.265625 C 9.363281 -1.253906 9.40625 -1.238281 9.4375 -1.21875 C 9.46875 -1.207031 9.492188 -1.191406 9.515625 -1.171875 C 9.546875 -1.148438 9.566406 -1.125 9.578125 -1.09375 C 9.585938 -1.070312 9.59375 -1.046875 9.59375 -1.015625 C 9.59375 -0.441406 9.515625 -0.0820312 9.359375 0.0625 C 8.890625 0.0195312 8.460938 0 8.078125 0 C 7.828125 0 7.554688 0.0078125 7.265625 0.03125 C 6.972656 0.0507812 6.785156 0.0625 6.703125 0.0625 C 6.535156 0.0625 6.453125 -0.125 6.453125 -0.5 L 6.453125 -4.859375 C 6.453125 -5.492188 6.347656 -5.957031 6.140625 -6.25 C 5.929688 -6.550781 5.660156 -6.703125 5.328125 -6.703125 C 5.003906 -6.703125 4.644531 -6.597656 4.25 -6.390625 C 3.851562 -6.179688 3.488281 -5.921875 3.15625 -5.609375 L 3.15625 -1.828125 C 3.15625 -1.765625 3.160156 -1.707031 3.171875 -1.65625 C 3.179688 -1.613281 3.195312 -1.566406 3.21875 -1.515625 C 3.25 -1.460938 3.300781 -1.421875 3.375 -1.390625 C 3.445312 -1.367188 3.535156 -1.359375 3.640625 -1.359375 C 3.828125 -1.359375 3.984375 -1.328125 4.109375 -1.265625 C 4.242188 -1.210938 4.3125 -1.125 4.3125 -1 C 4.3125 -0.4375 4.226562 -0.0820312 4.0625 0.0625 C 3.59375 0.0195312 3.007812 0 2.3125 0 C 1.550781 0 0.988281 0.0195312 0.625 0.0625 C 0.46875 -0.0820312 0.390625 -0.4375 0.390625 -1 C 0.390625 -1.125 0.453125 -1.210938 0.578125 -1.265625 C 0.710938 -1.328125 0.875 -1.359375 1.0625 -1.359375 C 1.226562 -1.359375 1.34375 -1.390625 1.40625 -1.453125 C 1.46875 -1.523438 1.5 -1.644531 1.5 -1.8125 L 1.5 -5.734375 C 1.5 -5.992188 1.421875 -6.175781 1.265625 -6.28125 C 1.117188 -6.382812 0.835938 -6.445312 0.421875 -6.46875 C 0.359375 -6.476562 0.316406 -6.507812 0.296875 -6.5625 C 0.273438 -6.613281 0.265625 -6.71875 0.265625 -6.875 C 0.265625 -7.125 0.289062 -7.34375 0.34375 -7.53125 C 0.40625 -7.71875 0.460938 -7.828125 0.515625 -7.859375 C 0.890625 -7.804688 1.25 -7.78125 1.59375 -7.78125 C 1.8125 -7.78125 2.039062 -7.789062 2.28125 -7.8125 C 2.53125 -7.84375 2.660156 -7.859375 2.671875 -7.859375 C 2.847656 -7.859375 2.957031 -7.816406 3 -7.734375 C 3.050781 -7.648438 3.078125 -7.453125 3.078125 -7.140625 Z M 3.078125 -7.140625 "/></g></g></g><g fill="#022136" fill-opacity="1"><g transform="translate(69.535582, 17.008239)"><g><path d="M 7.8125 -4.3125 C 7.8125 -4.082031 7.753906 -3.910156 7.640625 -3.796875 C 7.523438 -3.679688 7.3125 -3.625 7 -3.625 L 1.96875 -3.625 C 1.976562 -3.175781 2.050781 -2.789062 2.1875 -2.46875 C 2.332031 -2.144531 2.515625 -1.890625 2.734375 -1.703125 C 2.960938 -1.523438 3.207031 -1.394531 3.46875 -1.3125 C 3.738281 -1.226562 4.03125 -1.1875 4.34375 -1.1875 C 4.789062 -1.1875 5.242188 -1.265625 5.703125 -1.421875 C 6.160156 -1.578125 6.578125 -1.796875 6.953125 -2.078125 C 7.234375 -1.753906 7.375 -1.429688 7.375 -1.109375 C 7.375 -0.898438 7.234375 -0.695312 6.953125 -0.5 C 6.679688 -0.300781 6.304688 -0.132812 5.828125 0 C 5.359375 0.132812 4.867188 0.203125 4.359375 0.203125 C 3.941406 0.203125 3.546875 0.160156 3.171875 0.078125 C 2.796875 -0.00390625 2.425781 -0.148438 2.0625 -0.359375 C 1.695312 -0.566406 1.382812 -0.828125 1.125 -1.140625 C 0.863281 -1.460938 0.648438 -1.867188 0.484375 -2.359375 C 0.328125 -2.859375 0.25 -3.421875 0.25 -4.046875 C 0.25 -4.660156 0.363281 -5.222656 0.59375 -5.734375 C 0.832031 -6.242188 1.140625 -6.660156 1.515625 -6.984375 C 1.898438 -7.304688 2.328125 -7.554688 2.796875 -7.734375 C 3.273438 -7.910156 3.769531 -8 4.28125 -8 C 4.644531 -8 4.992188 -7.953125 5.328125 -7.859375 C 5.671875 -7.765625 5.992188 -7.617188 6.296875 -7.421875 C 6.597656 -7.222656 6.859375 -6.976562 7.078125 -6.6875 C 7.304688 -6.40625 7.484375 -6.0625 7.609375 -5.65625 C 7.742188 -5.25 7.8125 -4.800781 7.8125 -4.3125 Z M 6.34375 -4.75 C 6.289062 -5.425781 6.070312 -5.9375 5.6875 -6.28125 C 5.3125 -6.632812 4.859375 -6.8125 4.328125 -6.8125 C 3.765625 -6.8125 3.253906 -6.625 2.796875 -6.25 C 2.335938 -5.875 2.070312 -5.375 2 -4.75 Z M 6.34375 -4.75 "/></g></g></g><g fill="#022136" fill-opacity="1"><g transform="translate(77.61182, 17.008239)"><g/></g></g><g fill="#022136" fill-opacity="1"><g transform="translate(81.259625, 17.008239)"><g><path d="M 0.890625 -10.96875 C 0.972656 -10.957031 1.109375 -10.941406 1.296875 -10.921875 C 1.484375 -10.898438 1.65625 -10.882812 1.8125 -10.875 C 1.96875 -10.875 2.140625 -10.875 2.328125 -10.875 C 2.523438 -10.875 2.757812 -10.878906 3.03125 -10.890625 C 3.3125 -10.910156 3.484375 -10.921875 3.546875 -10.921875 C 3.554688 -10.921875 3.570312 -10.914062 3.59375 -10.90625 C 3.613281 -10.90625 3.625 -10.90625 3.625 -10.90625 C 3.65625 -10.90625 3.722656 -10.789062 3.828125 -10.5625 C 3.941406 -10.34375 4.097656 -10.015625 4.296875 -9.578125 C 4.492188 -9.148438 4.691406 -8.71875 4.890625 -8.28125 C 5.085938 -7.851562 5.328125 -7.320312 5.609375 -6.6875 C 5.890625 -6.050781 6.117188 -5.53125 6.296875 -5.125 C 6.472656 -4.71875 6.691406 -4.210938 6.953125 -3.609375 C 7.210938 -3.015625 7.378906 -2.632812 7.453125 -2.46875 C 8.023438 -3.875 8.773438 -5.628906 9.703125 -7.734375 C 10.628906 -9.835938 11.128906 -10.894531 11.203125 -10.90625 C 11.234375 -10.914062 11.265625 -10.921875 11.296875 -10.921875 C 11.335938 -10.921875 11.488281 -10.910156 11.75 -10.890625 C 12.007812 -10.878906 12.222656 -10.875 12.390625 -10.875 C 13.066406 -10.875 13.570312 -10.90625 13.90625 -10.96875 C 14.113281 -10.8125 14.21875 -10.398438 14.21875 -9.734375 C 14.21875 -9.617188 14.132812 -9.53125 13.96875 -9.46875 C 13.8125 -9.414062 13.625 -9.390625 13.40625 -9.390625 C 13.21875 -9.390625 13.09375 -9.347656 13.03125 -9.265625 C 12.976562 -9.179688 12.953125 -9.066406 12.953125 -8.921875 L 12.953125 -1.90625 C 12.953125 -1.757812 12.976562 -1.644531 13.03125 -1.5625 C 13.09375 -1.476562 13.21875 -1.4375 13.40625 -1.4375 C 13.625 -1.4375 13.8125 -1.40625 13.96875 -1.34375 C 14.132812 -1.289062 14.21875 -1.207031 14.21875 -1.09375 C 14.21875 -0.851562 14.1875 -0.613281 14.125 -0.375 C 14.0625 -0.144531 13.96875 0.00390625 13.84375 0.078125 C 13.1875 0.0234375 12.628906 0 12.171875 0 C 11.640625 0 11.023438 0.0234375 10.328125 0.078125 C 10.222656 0.00390625 10.144531 -0.144531 10.09375 -0.375 C 10.039062 -0.613281 10.015625 -0.859375 10.015625 -1.109375 C 10.015625 -1.222656 10.09375 -1.304688 10.25 -1.359375 C 10.414062 -1.421875 10.609375 -1.453125 10.828125 -1.453125 C 10.929688 -1.453125 11.019531 -1.460938 11.09375 -1.484375 C 11.164062 -1.515625 11.210938 -1.554688 11.234375 -1.609375 C 11.265625 -1.671875 11.28125 -1.722656 11.28125 -1.765625 C 11.289062 -1.804688 11.296875 -1.863281 11.296875 -1.9375 L 11.296875 -8.359375 C 11.296875 -8.359375 11.179688 -8.09375 10.953125 -7.5625 C 10.722656 -7.039062 10.445312 -6.398438 10.125 -5.640625 C 9.800781 -4.878906 9.472656 -4.117188 9.140625 -3.359375 C 8.816406 -2.597656 8.539062 -1.953125 8.3125 -1.421875 L 7.96875 -0.625 C 7.96875 -0.613281 7.925781 -0.578125 7.84375 -0.515625 C 7.769531 -0.460938 7.664062 -0.398438 7.53125 -0.328125 C 7.40625 -0.265625 7.289062 -0.234375 7.1875 -0.234375 C 6.9375 -0.234375 6.722656 -0.425781 6.546875 -0.8125 C 6.484375 -0.945312 6.320312 -1.304688 6.0625 -1.890625 C 5.8125 -2.472656 5.53125 -3.117188 5.21875 -3.828125 C 4.90625 -4.535156 4.597656 -5.234375 4.296875 -5.921875 C 3.992188 -6.617188 3.738281 -7.195312 3.53125 -7.65625 C 3.320312 -8.125 3.21875 -8.359375 3.21875 -8.359375 L 3.21875 -1.9375 C 3.21875 -1.863281 3.21875 -1.804688 3.21875 -1.765625 C 3.226562 -1.722656 3.242188 -1.671875 3.265625 -1.609375 C 3.296875 -1.554688 3.34375 -1.515625 3.40625 -1.484375 C 3.476562 -1.460938 3.570312 -1.453125 3.6875 -1.453125 C 3.90625 -1.453125 4.09375 -1.421875 4.25 -1.359375 C 4.414062 -1.304688 4.5 -1.222656 4.5 -1.109375 C 4.5 -0.859375 4.472656 -0.613281 4.421875 -0.375 C 4.367188 -0.144531 4.289062 0.00390625 4.1875 0.078125 C 3.59375 0.0234375 3.050781 0 2.5625 0 C 2.101562 0 1.546875 0.0234375 0.890625 0.078125 C 0.753906 0.00390625 0.65625 -0.144531 0.59375 -0.375 C 0.53125 -0.613281 0.5 -0.859375 0.5 -1.109375 C 0.5 -1.222656 0.578125 -1.304688 0.734375 -1.359375 C 0.898438 -1.421875 1.09375 -1.453125 1.3125 -1.453125 C 1.507812 -1.453125 1.632812 -1.492188 1.6875 -1.578125 C 1.75 -1.660156 1.78125 -1.773438 1.78125 -1.921875 L 1.78125 -8.96875 C 1.78125 -9.113281 1.75 -9.222656 1.6875 -9.296875 C 1.632812 -9.378906 1.507812 -9.421875 1.3125 -9.421875 C 0.769531 -9.421875 0.5 -9.546875 0.5 -9.796875 C 0.5 -10.035156 0.53125 -10.269531 0.59375 -10.5 C 0.65625 -10.738281 0.753906 -10.894531 0.890625 -10.96875 Z M 0.890625 -10.96875 "/></g></g></g><g fill="#022136" fill-opacity="1"><g transform="translate(96.098892, 17.008239)"><g><path d="M 5.625 -0.984375 C 5.269531 -0.617188 4.820312 -0.328125 4.28125 -0.109375 C 3.738281 0.0976562 3.191406 0.203125 2.640625 0.203125 C 1.941406 0.203125 1.363281 0.0195312 0.90625 -0.34375 C 0.457031 -0.71875 0.234375 -1.257812 0.234375 -1.96875 C 0.234375 -2.707031 0.59375 -3.269531 1.3125 -3.65625 C 1.863281 -3.945312 2.800781 -4.195312 4.125 -4.40625 C 4.375 -4.457031 4.773438 -4.523438 5.328125 -4.609375 C 5.328125 -5.429688 5.222656 -6 5.015625 -6.3125 C 4.804688 -6.625 4.40625 -6.78125 3.8125 -6.78125 C 3.382812 -6.78125 2.90625 -6.679688 2.375 -6.484375 C 1.84375 -6.285156 1.414062 -6.015625 1.09375 -5.671875 C 0.707031 -6.003906 0.515625 -6.328125 0.515625 -6.640625 C 0.515625 -6.910156 0.703125 -7.148438 1.078125 -7.359375 C 1.453125 -7.578125 1.890625 -7.734375 2.390625 -7.828125 C 2.898438 -7.929688 3.410156 -7.984375 3.921875 -7.984375 C 4.398438 -7.984375 4.820312 -7.921875 5.1875 -7.796875 C 5.550781 -7.679688 5.867188 -7.488281 6.140625 -7.21875 C 6.421875 -6.945312 6.632812 -6.570312 6.78125 -6.09375 C 6.925781 -5.613281 7 -5.035156 7 -4.359375 L 7 -2.03125 C 7 -1.832031 7.015625 -1.679688 7.046875 -1.578125 C 7.078125 -1.472656 7.109375 -1.410156 7.140625 -1.390625 C 7.179688 -1.367188 7.25 -1.351562 7.34375 -1.34375 C 7.488281 -1.332031 7.597656 -1.320312 7.671875 -1.3125 C 7.742188 -1.300781 7.828125 -1.28125 7.921875 -1.25 C 8.023438 -1.226562 8.097656 -1.195312 8.140625 -1.15625 C 8.179688 -1.113281 8.203125 -1.066406 8.203125 -1.015625 C 8.203125 -0.441406 8.117188 -0.0820312 7.953125 0.0625 C 7.722656 0.0195312 7.421875 0 7.046875 0 C 6.703125 0 6.382812 0.015625 6.09375 0.046875 C 6.0625 0.0234375 6.019531 -0.00390625 5.96875 -0.046875 C 5.914062 -0.0859375 5.84375 -0.195312 5.75 -0.375 C 5.664062 -0.5625 5.625 -0.765625 5.625 -0.984375 Z M 2.96875 -1.09375 C 3.40625 -1.09375 3.878906 -1.21875 4.390625 -1.46875 C 4.910156 -1.71875 5.226562 -1.941406 5.34375 -2.140625 L 5.34375 -3.421875 C 4.007812 -3.191406 3.109375 -2.976562 2.640625 -2.78125 C 2.179688 -2.59375 1.953125 -2.328125 1.953125 -1.984375 C 1.953125 -1.390625 2.289062 -1.09375 2.96875 -1.09375 Z M 2.96875 -1.09375 "/></g></g></g><g fill="#022136" fill-opacity="1"><g transform="translate(104.539911, 17.008239)"><g><path d="M 9.453125 0.0625 C 8.972656 0.0195312 8.546875 0 8.171875 0 C 7.921875 0 7.648438 0.0078125 7.359375 0.03125 C 7.066406 0.0507812 6.875 0.0625 6.78125 0.0625 C 6.613281 0.0625 6.53125 -0.125 6.53125 -0.5 L 6.53125 -4.859375 C 6.53125 -5.492188 6.425781 -5.957031 6.21875 -6.25 C 6.019531 -6.550781 5.753906 -6.703125 5.421875 -6.703125 C 5.085938 -6.703125 4.71875 -6.601562 4.3125 -6.40625 C 3.90625 -6.21875 3.523438 -5.972656 3.171875 -5.671875 L 3.171875 -1.828125 C 3.171875 -1.753906 3.171875 -1.695312 3.171875 -1.65625 C 3.179688 -1.613281 3.195312 -1.566406 3.21875 -1.515625 C 3.25 -1.460938 3.296875 -1.421875 3.359375 -1.390625 C 3.429688 -1.367188 3.519531 -1.359375 3.625 -1.359375 C 3.8125 -1.359375 3.96875 -1.328125 4.09375 -1.265625 C 4.226562 -1.210938 4.296875 -1.125 4.296875 -1 C 4.296875 -0.4375 4.21875 -0.0820312 4.0625 0.0625 C 3.769531 0.0195312 3.210938 0 2.390625 0 C 1.578125 0 0.988281 0.0195312 0.625 0.0625 C 0.457031 -0.0820312 0.375 -0.4375 0.375 -1 C 0.375 -1.125 0.4375 -1.210938 0.5625 -1.265625 C 0.695312 -1.328125 0.859375 -1.359375 1.046875 -1.359375 C 1.234375 -1.359375 1.359375 -1.394531 1.421875 -1.46875 C 1.484375 -1.550781 1.515625 -1.664062 1.515625 -1.8125 L 1.515625 -5.734375 C 1.515625 -5.992188 1.4375 -6.175781 1.28125 -6.28125 C 1.132812 -6.382812 0.851562 -6.445312 0.4375 -6.46875 C 0.363281 -6.476562 0.316406 -6.507812 0.296875 -6.5625 C 0.285156 -6.613281 0.28125 -6.71875 0.28125 -6.875 C 0.28125 -7.125 0.304688 -7.34375 0.359375 -7.53125 C 0.410156 -7.71875 0.46875 -7.828125 0.53125 -7.859375 C 0.84375 -7.804688 1.15625 -7.78125 1.46875 -7.78125 C 1.6875 -7.78125 1.914062 -7.789062 2.15625 -7.8125 C 2.40625 -7.84375 2.535156 -7.859375 2.546875 -7.859375 C 2.710938 -7.859375 2.820312 -7.816406 2.875 -7.734375 C 2.925781 -7.648438 2.953125 -7.453125 2.953125 -7.140625 C 2.953125 -7.109375 2.953125 -7.046875 2.953125 -6.953125 C 2.953125 -6.867188 2.953125 -6.800781 2.953125 -6.75 C 3.367188 -7.113281 3.835938 -7.410156 4.359375 -7.640625 C 4.890625 -7.867188 5.40625 -7.984375 5.90625 -7.984375 C 6.582031 -7.984375 7.128906 -7.742188 7.546875 -7.265625 C 7.972656 -6.785156 8.1875 -6.03125 8.1875 -5 L 8.1875 -1.859375 C 8.1875 -1.546875 8.3125 -1.378906 8.5625 -1.359375 C 8.601562 -1.347656 8.664062 -1.335938 8.75 -1.328125 C 8.832031 -1.328125 8.894531 -1.320312 8.9375 -1.3125 C 8.976562 -1.3125 9.035156 -1.304688 9.109375 -1.296875 C 9.179688 -1.296875 9.234375 -1.289062 9.265625 -1.28125 C 9.304688 -1.28125 9.351562 -1.269531 9.40625 -1.25 C 9.457031 -1.238281 9.492188 -1.226562 9.515625 -1.21875 C 9.546875 -1.207031 9.578125 -1.191406 9.609375 -1.171875 C 9.640625 -1.148438 9.660156 -1.125 9.671875 -1.09375 C 9.679688 -1.070312 9.6875 -1.039062 9.6875 -1 C 9.6875 -0.4375 9.609375 -0.0820312 9.453125 0.0625 Z M 9.453125 0.0625 "/></g></g></g><g fill="#022136" fill-opacity="1"><g transform="translate(114.403573, 17.008239)"><g><path d="M 5.625 -0.984375 C 5.269531 -0.617188 4.820312 -0.328125 4.28125 -0.109375 C 3.738281 0.0976562 3.191406 0.203125 2.640625 0.203125 C 1.941406 0.203125 1.363281 0.0195312 0.90625 -0.34375 C 0.457031 -0.71875 0.234375 -1.257812 0.234375 -1.96875 C 0.234375 -2.707031 0.59375 -3.269531 1.3125 -3.65625 C 1.863281 -3.945312 2.800781 -4.195312 4.125 -4.40625 C 4.375 -4.457031 4.773438 -4.523438 5.328125 -4.609375 C 5.328125 -5.429688 5.222656 -6 5.015625 -6.3125 C 4.804688 -6.625 4.40625 -6.78125 3.8125 -6.78125 C 3.382812 -6.78125 2.90625 -6.679688 2.375 -6.484375 C 1.84375 -6.285156 1.414062 -6.015625 1.09375 -5.671875 C 0.707031 -6.003906 0.515625 -6.328125 0.515625 -6.640625 C 0.515625 -6.910156 0.703125 -7.148438 1.078125 -7.359375 C 1.453125 -7.578125 1.890625 -7.734375 2.390625 -7.828125 C 2.898438 -7.929688 3.410156 -7.984375 3.921875 -7.984375 C 4.398438 -7.984375 4.820312 -7.921875 5.1875 -7.796875 C 5.550781 -7.679688 5.867188 -7.488281 6.140625 -7.21875 C 6.421875 -6.945312 6.632812 -6.570312 6.78125 -6.09375 C 6.925781 -5.613281 7 -5.035156 7 -4.359375 L 7 -2.03125 C 7 -1.832031 7.015625 -1.679688 7.046875 -1.578125 C 7.078125 -1.472656 7.109375 -1.410156 7.140625 -1.390625 C 7.179688 -1.367188 7.25 -1.351562 7.34375 -1.34375 C 7.488281 -1.332031 7.597656 -1.320312 7.671875 -1.3125 C 7.742188 -1.300781 7.828125 -1.28125 7.921875 -1.25 C 8.023438 -1.226562 8.097656 -1.195312 8.140625 -1.15625 C 8.179688 -1.113281 8.203125 -1.066406 8.203125 -1.015625 C 8.203125 -0.441406 8.117188 -0.0820312 7.953125 0.0625 C 7.722656 0.0195312 7.421875 0 7.046875 0 C 6.703125 0 6.382812 0.015625 6.09375 0.046875 C 6.0625 0.0234375 6.019531 -0.00390625 5.96875 -0.046875 C 5.914062 -0.0859375 5.84375 -0.195312 5.75 -0.375 C 5.664062 -0.5625 5.625 -0.765625 5.625 -0.984375 Z M 2.96875 -1.09375 C 3.40625 -1.09375 3.878906 -1.21875 4.390625 -1.46875 C 4.910156 -1.71875 5.226562 -1.941406 5.34375 -2.140625 L 5.34375 -3.421875 C 4.007812 -3.191406 3.109375 -2.976562 2.640625 -2.78125 C 2.179688 -2.59375 1.953125 -2.328125 1.953125 -1.984375 C 1.953125 -1.390625 2.289062 -1.09375 2.96875 -1.09375 Z M 2.96875 -1.09375 "/></g></g></g><g fill="#022136" fill-opacity="1"><g transform="translate(122.844592, 17.008239)"><g><path d="M 8 0.953125 C 8 1.378906 7.925781 1.75 7.78125 2.0625 C 7.632812 2.382812 7.441406 2.640625 7.203125 2.828125 C 6.960938 3.023438 6.65625 3.179688 6.28125 3.296875 C 5.914062 3.421875 5.539062 3.503906 5.15625 3.546875 C 4.78125 3.585938 4.34375 3.609375 3.84375 3.609375 C 2.9375 3.609375 2.160156 3.503906 1.515625 3.296875 C 0.867188 3.085938 0.546875 2.8125 0.546875 2.46875 C 0.546875 1.757812 0.742188 0.957031 1.140625 0.0625 C 0.585938 -0.125 0.3125 -0.519531 0.3125 -1.125 C 0.3125 -1.695312 0.664062 -2.273438 1.375 -2.859375 C 1.007812 -3.128906 0.734375 -3.445312 0.546875 -3.8125 C 0.367188 -4.1875 0.28125 -4.570312 0.28125 -4.96875 C 0.28125 -5.34375 0.363281 -5.710938 0.53125 -6.078125 C 0.707031 -6.441406 0.941406 -6.765625 1.234375 -7.046875 C 1.535156 -7.328125 1.90625 -7.550781 2.34375 -7.71875 C 2.78125 -7.894531 3.25 -7.984375 3.75 -7.984375 C 4.175781 -7.984375 4.535156 -7.945312 4.828125 -7.875 C 5.117188 -7.800781 5.398438 -7.679688 5.671875 -7.515625 C 5.671875 -7.523438 5.71875 -7.582031 5.8125 -7.6875 C 5.914062 -7.789062 6.007812 -7.878906 6.09375 -7.953125 C 6.175781 -8.023438 6.285156 -8.109375 6.421875 -8.203125 C 6.566406 -8.304688 6.726562 -8.382812 6.90625 -8.4375 C 7.09375 -8.488281 7.285156 -8.515625 7.484375 -8.515625 C 7.804688 -8.515625 8.007812 -8.476562 8.09375 -8.40625 C 8.175781 -8.332031 8.21875 -8.191406 8.21875 -7.984375 L 8.21875 -7.859375 C 8.21875 -7.753906 8.21875 -7.664062 8.21875 -7.59375 C 8.21875 -7.53125 8.203125 -7.46875 8.171875 -7.40625 C 8.148438 -7.34375 8.128906 -7.296875 8.109375 -7.265625 C 8.085938 -7.234375 8.046875 -7.203125 7.984375 -7.171875 C 7.921875 -7.140625 7.863281 -7.117188 7.8125 -7.109375 C 7.757812 -7.097656 7.671875 -7.085938 7.546875 -7.078125 C 7.421875 -7.066406 7.304688 -7.0625 7.203125 -7.0625 C 7.109375 -7.0625 6.96875 -7.0625 6.78125 -7.0625 C 6.726562 -7.0625 6.648438 -7.0625 6.546875 -7.0625 C 6.453125 -7.070312 6.378906 -7.078125 6.328125 -7.078125 C 6.660156 -6.847656 6.921875 -6.535156 7.109375 -6.140625 C 7.304688 -5.753906 7.40625 -5.328125 7.40625 -4.859375 C 7.40625 -4.085938 7.09375 -3.441406 6.46875 -2.921875 C 5.851562 -2.398438 5.003906 -2.140625 3.921875 -2.140625 C 3.671875 -2.140625 3.429688 -2.15625 3.203125 -2.1875 C 2.972656 -2.226562 2.765625 -2.273438 2.578125 -2.328125 C 2.390625 -2.378906 2.296875 -2.40625 2.296875 -2.40625 C 2.128906 -2.082031 2.046875 -1.765625 2.046875 -1.453125 C 2.046875 -1.296875 2.15625 -1.1875 2.375 -1.125 C 2.59375 -1.0625 2.875 -1.023438 3.21875 -1.015625 C 3.570312 -1.015625 3.957031 -1.015625 4.375 -1.015625 C 4.800781 -1.023438 5.222656 -1.003906 5.640625 -0.953125 C 6.066406 -0.898438 6.457031 -0.816406 6.8125 -0.703125 C 7.164062 -0.585938 7.453125 -0.390625 7.671875 -0.109375 C 7.890625 0.171875 8 0.523438 8 0.953125 Z M 3.84375 -3.390625 C 4.21875 -3.390625 4.539062 -3.429688 4.8125 -3.515625 C 5.09375 -3.609375 5.304688 -3.734375 5.453125 -3.890625 C 5.609375 -4.046875 5.722656 -4.210938 5.796875 -4.390625 C 5.867188 -4.578125 5.90625 -4.78125 5.90625 -5 C 5.90625 -5.476562 5.734375 -5.890625 5.390625 -6.234375 C 5.046875 -6.585938 4.535156 -6.765625 3.859375 -6.765625 C 3.191406 -6.765625 2.691406 -6.59375 2.359375 -6.25 C 2.023438 -5.914062 1.859375 -5.503906 1.859375 -5.015625 C 1.859375 -4.554688 2.015625 -4.171875 2.328125 -3.859375 C 2.648438 -3.546875 3.15625 -3.390625 3.84375 -3.390625 Z M 3 0.3125 C 2.46875 0.28125 2.097656 0.238281 1.890625 0.1875 C 1.890625 0.394531 1.890625 0.550781 1.890625 0.65625 C 1.898438 0.757812 1.910156 0.894531 1.921875 1.0625 C 1.929688 1.238281 1.945312 1.375 1.96875 1.46875 C 2 1.5625 2.039062 1.660156 2.09375 1.765625 C 2.144531 1.867188 2.207031 1.945312 2.28125 2 C 2.363281 2.050781 2.457031 2.085938 2.5625 2.109375 C 3.175781 2.222656 3.734375 2.28125 4.234375 2.28125 C 4.640625 2.28125 4.976562 2.25 5.25 2.1875 C 5.53125 2.132812 5.738281 2.050781 5.875 1.9375 C 6.019531 1.832031 6.117188 1.71875 6.171875 1.59375 C 6.234375 1.46875 6.265625 1.3125 6.265625 1.125 C 6.265625 0.582031 5.648438 0.3125 4.421875 0.3125 Z M 3 0.3125 "/></g></g></g><g fill="#022136" fill-opacity="1"><g transform="translate(131.300202, 17.008239)"><g><path d="M 7.8125 -4.3125 C 7.8125 -4.082031 7.753906 -3.910156 7.640625 -3.796875 C 7.523438 -3.679688 7.3125 -3.625 7 -3.625 L 1.96875 -3.625 C 1.976562 -3.175781 2.050781 -2.789062 2.1875 -2.46875 C 2.332031 -2.144531 2.515625 -1.890625 2.734375 -1.703125 C 2.960938 -1.523438 3.207031 -1.394531 3.46875 -1.3125 C 3.738281 -1.226562 4.03125 -1.1875 4.34375 -1.1875 C 4.789062 -1.1875 5.242188 -1.265625 5.703125 -1.421875 C 6.160156 -1.578125 6.578125 -1.796875 6.953125 -2.078125 C 7.234375 -1.753906 7.375 -1.429688 7.375 -1.109375 C 7.375 -0.898438 7.234375 -0.695312 6.953125 -0.5 C 6.679688 -0.300781 6.304688 -0.132812 5.828125 0 C 5.359375 0.132812 4.867188 0.203125 4.359375 0.203125 C 3.941406 0.203125 3.546875 0.160156 3.171875 0.078125 C 2.796875 -0.00390625 2.425781 -0.148438 2.0625 -0.359375 C 1.695312 -0.566406 1.382812 -0.828125 1.125 -1.140625 C 0.863281 -1.460938 0.648438 -1.867188 0.484375 -2.359375 C 0.328125 -2.859375 0.25 -3.421875 0.25 -4.046875 C 0.25 -4.660156 0.363281 -5.222656 0.59375 -5.734375 C 0.832031 -6.242188 1.140625 -6.660156 1.515625 -6.984375 C 1.898438 -7.304688 2.328125 -7.554688 2.796875 -7.734375 C 3.273438 -7.910156 3.769531 -8 4.28125 -8 C 4.644531 -8 4.992188 -7.953125 5.328125 -7.859375 C 5.671875 -7.765625 5.992188 -7.617188 6.296875 -7.421875 C 6.597656 -7.222656 6.859375 -6.976562 7.078125 -6.6875 C 7.304688 -6.40625 7.484375 -6.0625 7.609375 -5.65625 C 7.742188 -5.25 7.8125 -4.800781 7.8125 -4.3125 Z M 6.34375 -4.75 C 6.289062 -5.425781 6.070312 -5.9375 5.6875 -6.28125 C 5.3125 -6.632812 4.859375 -6.8125 4.328125 -6.8125 C 3.765625 -6.8125 3.253906 -6.625 2.796875 -6.25 C 2.335938 -5.875 2.070312 -5.375 2 -4.75 Z M 6.34375 -4.75 "/></g></g></g><g fill="#022136" fill-opacity="1"><g transform="translate(139.37644, 17.008239)"><g><path d="M 2.9375 -7.140625 L 2.9375 -6.671875 C 3.15625 -7.023438 3.476562 -7.332031 3.90625 -7.59375 C 4.34375 -7.851562 4.757812 -7.984375 5.15625 -7.984375 C 5.414062 -7.984375 5.660156 -7.941406 5.890625 -7.859375 C 6.128906 -7.773438 6.332031 -7.625 6.5 -7.40625 C 6.675781 -7.1875 6.765625 -6.914062 6.765625 -6.59375 C 6.765625 -5.726562 6.300781 -5.296875 5.375 -5.296875 C 5.363281 -5.296875 5.347656 -5.296875 5.328125 -5.296875 C 5.304688 -5.304688 5.289062 -5.316406 5.28125 -5.328125 C 5.269531 -5.335938 5.257812 -5.347656 5.25 -5.359375 C 5.238281 -5.367188 5.226562 -5.382812 5.21875 -5.40625 C 5.207031 -5.425781 5.195312 -5.441406 5.1875 -5.453125 C 5.1875 -5.472656 5.179688 -5.5 5.171875 -5.53125 C 5.171875 -5.5625 5.171875 -5.582031 5.171875 -5.59375 C 5.171875 -5.613281 5.164062 -5.640625 5.15625 -5.671875 C 5.15625 -5.710938 5.15625 -5.75 5.15625 -5.78125 L 5.0625 -6.53125 C 4.9375 -6.59375 4.796875 -6.625 4.640625 -6.625 C 4.359375 -6.625 4.070312 -6.519531 3.78125 -6.3125 C 3.5 -6.113281 3.289062 -5.878906 3.15625 -5.609375 L 3.15625 -1.90625 C 3.15625 -1.832031 3.160156 -1.773438 3.171875 -1.734375 C 3.179688 -1.691406 3.195312 -1.644531 3.21875 -1.59375 C 3.25 -1.539062 3.296875 -1.5 3.359375 -1.46875 C 3.429688 -1.445312 3.519531 -1.4375 3.625 -1.4375 C 3.8125 -1.4375 3.96875 -1.40625 4.09375 -1.34375 C 4.226562 -1.289062 4.296875 -1.207031 4.296875 -1.09375 C 4.296875 -0.851562 4.253906 -0.617188 4.171875 -0.390625 C 4.097656 -0.160156 3.988281 -0.0078125 3.84375 0.0625 C 3.5 0.0195312 3 0 2.34375 0 C 1.6875 0 1.179688 0.0195312 0.828125 0.0625 C 0.671875 -0.0078125 0.554688 -0.160156 0.484375 -0.390625 C 0.410156 -0.617188 0.375 -0.851562 0.375 -1.09375 C 0.375 -1.207031 0.4375 -1.289062 0.5625 -1.34375 C 0.695312 -1.40625 0.859375 -1.4375 1.046875 -1.4375 C 1.234375 -1.4375 1.351562 -1.472656 1.40625 -1.546875 C 1.46875 -1.628906 1.5 -1.742188 1.5 -1.890625 L 1.5 -5.734375 C 1.5 -5.992188 1.425781 -6.175781 1.28125 -6.28125 C 1.132812 -6.382812 0.847656 -6.445312 0.421875 -6.46875 C 0.359375 -6.476562 0.316406 -6.507812 0.296875 -6.5625 C 0.285156 -6.613281 0.28125 -6.71875 0.28125 -6.875 C 0.28125 -7.125 0.304688 -7.34375 0.359375 -7.53125 C 0.410156 -7.71875 0.460938 -7.828125 0.515625 -7.859375 C 0.859375 -7.804688 1.195312 -7.78125 1.53125 -7.78125 C 1.738281 -7.78125 1.953125 -7.789062 2.171875 -7.8125 C 2.398438 -7.84375 2.519531 -7.859375 2.53125 -7.859375 C 2.707031 -7.859375 2.816406 -7.816406 2.859375 -7.734375 C 2.910156 -7.648438 2.9375 -7.453125 2.9375 -7.140625 Z M 2.9375 -7.140625 "/></g></g></g></svg>