<svg xmlns="http://www.w3.org/2000/svg" xmlns:xlink="http://www.w3.org/1999/xlink" width="1080" zoomAndPan="magnify" viewBox="0 0 810 257.250001" height="343" preserveAspectRatio="xMidYMid meet" version="1.0"><defs><clipPath id="id1"><path d="M 1.175781 0 L 808.820312 0 L 808.820312 256.503906 L 1.175781 256.503906 Z M 1.175781 0 " clip-rule="nonzero"/></clipPath></defs><g clip-path="url(#id1)"><path fill="#ffffff" d="M 1.175781 0 L 808.824219 0 L 808.824219 256.503906 L 1.175781 256.503906 Z M 1.175781 0 " fill-opacity="1" fill-rule="nonzero"/><path fill="#ffffff" d="M 1.175781 0 L 808.824219 0 L 808.824219 256.503906 L 1.175781 256.503906 Z M 1.175781 0 " fill-opacity="1" fill-rule="nonzero"/></g><path fill="#022136" d="M 680.191406 6.910156 C 731.960938 6.910156 758.808594 5.660156 772.566406 9.21875 C 783.445312 12.035156 786.144531 19.734375 786.511719 20.308594 C 804.277344 48.039062 797.167969 134.851562 798.480469 204.652344 C 799.230469 244.660156 721.378906 249.171875 705.09375 249.929688 C 689.328125 250.660156 495.5 252.316406 479.722656 252.238281 C 278.929688 251.246094 116.765625 257.671875 45.171875 243.460938 C 15.007812 237.472656 12.375 166.046875 12.34375 109.378906 C 12.332031 93.695312 -4.707031 12.082031 78.683594 7.492188 C 193.554688 1.171875 400.289062 6.832031 404.660156 6.867188 C 576.304688 8.191406 664.023438 6.910156 680.191406 6.910156 Z M 680.191406 6.910156 " fill-opacity="1" fill-rule="evenodd"/><path fill="#d8f7f8" d="M 669.71875 10.933594 C 719.769531 10.933594 745.722656 9.722656 759.023438 13.167969 C 769.539062 15.890625 772.148438 23.347656 772.503906 23.902344 C 789.679688 50.738281 782.808594 134.769531 784.074219 202.332031 C 784.800781 241.058594 709.535156 245.425781 693.792969 246.15625 C 678.550781 246.863281 491.164062 248.46875 475.914062 248.390625 C 281.792969 247.433594 125.019531 253.652344 55.800781 239.894531 C 26.640625 234.101562 24.097656 164.964844 24.066406 110.117188 C 24.058594 94.933594 7.582031 15.9375 88.199219 11.496094 C 199.253906 5.378906 399.117188 10.855469 403.34375 10.890625 C 569.285156 12.171875 654.089844 10.933594 669.714844 10.933594 Z M 669.71875 10.933594 " fill-opacity="1" fill-rule="evenodd"/></svg>